# WaveFront *.obj file (generated by Autodesk ATF)

mtllib Body1.mtl

g Body1

v 0.020500 -0.024500 0.130000
v 0.022500 -0.024500 0.130000
v 0.022500 -0.024500 0.128000
v 0.020500 -0.024500 0.128000
v 0.020500 -0.026000 0.130000
v 0.020500 -0.026000 0.128000
v 0.022500 -0.026000 0.128000
v 0.022500 -0.001000 0.130000
v 0.022500 -0.001000 0.000000
v 0.022500 -0.024500 0.000000
v 0.022500 -0.024500 0.002000
v 0.022500 -0.026000 0.002000
v -0.026645 -0.024519 0.125288
v -0.026750 -0.024662 0.125437
v -0.026871 -0.024777 0.125600
v -0.027146 -0.024935 0.125945
v -0.027458 -0.024999 0.126291
v -0.027628 -0.024992 0.126455
v -0.027804 -0.024953 0.126609
v -0.027983 -0.024876 0.126745
v -0.028154 -0.024757 0.126857
v -0.028304 -0.024594 0.126942
v -0.028368 -0.024497 0.126972
v -0.028420 -0.024392 0.126995
v -0.028460 -0.024280 0.127009
v -0.028487 -0.024163 0.127015
v -0.028499 -0.024043 0.127012
v -0.028497 -0.023923 0.127001
v -0.028481 -0.023804 0.126981
v -0.028451 -0.023690 0.126952
v -0.028355 -0.023481 0.126870
v -0.028221 -0.023308 0.126757
v -0.028064 -0.023174 0.126618
v -0.027894 -0.023081 0.126458
v -0.027719 -0.023024 0.126284
v -0.027368 -0.023009 0.125914
v -0.027026 -0.023120 0.125543
v -0.026870 -0.023224 0.125376
v -0.026735 -0.023356 0.125235
v -0.026625 -0.023516 0.125126
v -0.026580 -0.023608 0.125085
v -0.026543 -0.023709 0.125055
v -0.026517 -0.023815 0.125037
v -0.026503 -0.023926 0.125034
v -0.026501 -0.024037 0.125046
v -0.026511 -0.024145 0.125073
v -0.026532 -0.024249 0.125112
v -0.026562 -0.024347 0.125163
v -0.026500 -0.024000 0.130000
v -0.026534 -0.023741 0.130000
v -0.026634 -0.023500 0.130000
v -0.026793 -0.023293 0.130000
v -0.027000 -0.023134 0.130000
v -0.027241 -0.023034 0.130000
v -0.027500 -0.023000 0.130000
v -0.027759 -0.023034 0.130000
v -0.028000 -0.023134 0.130000
v -0.028207 -0.023293 0.130000
v -0.028366 -0.023500 0.130000
v -0.028466 -0.023741 0.130000
v -0.028500 -0.024000 0.130000
v -0.028466 -0.024259 0.130000
v -0.028366 -0.024500 0.130000
v -0.028207 -0.024707 0.130000
v -0.028000 -0.024866 0.130000
v -0.027759 -0.024966 0.130000
v -0.027500 -0.025000 0.130000
v -0.027241 -0.024966 0.130000
v -0.027000 -0.024866 0.130000
v -0.026793 -0.024707 0.130000
v -0.026634 -0.024500 0.130000
v -0.026534 -0.024259 0.130000
v -0.027500 -0.022000 0.128000
v -0.024500 -0.022000 0.128000
v -0.024500 -0.022000 0.125500
v -0.024500 -0.022000 0.124875
v -0.024500 -0.022000 0.124250
v -0.024500 -0.022000 0.123625
v -0.024500 -0.022000 0.123000
v -0.025095 -0.022132 0.123625
v -0.025691 -0.022264 0.124250
v -0.026286 -0.022396 0.124875
v -0.026881 -0.022527 0.125500
v -0.027477 -0.022659 0.126125
v -0.028072 -0.022791 0.126750
v -0.028667 -0.022923 0.127375
v -0.029263 -0.023055 0.128000
v -0.029020 -0.022700 0.128000
v -0.028706 -0.022404 0.128000
v -0.028336 -0.022183 0.128000
v -0.027928 -0.022046 0.128000
v -0.026750 -0.022000 0.127273
v -0.026951 -0.022015 0.127208
v -0.027148 -0.022057 0.127142
v -0.027338 -0.022125 0.127077
v -0.027518 -0.022217 0.127011
v -0.027684 -0.022332 0.126946
v -0.027834 -0.022467 0.126881
v -0.025056 -0.022078 0.124083
v -0.025031 -0.022055 0.124311
v -0.025003 -0.022036 0.124540
v -0.024973 -0.022021 0.124769
v -0.024941 -0.022009 0.124998
v -0.024909 -0.022002 0.125226
v -0.024875 -0.022000 0.125455
v -0.025611 -0.022156 0.124642
v -0.025561 -0.022111 0.124838
v -0.025506 -0.022072 0.125034
v -0.025446 -0.022042 0.125230
v -0.025383 -0.022019 0.125426
v -0.025317 -0.022005 0.125623
v -0.025250 -0.022000 0.125819
v -0.026167 -0.022234 0.125202
v -0.026092 -0.022166 0.125365
v -0.026009 -0.022109 0.125529
v -0.025919 -0.022063 0.125692
v -0.025824 -0.022028 0.125855
v -0.025726 -0.022007 0.126019
v -0.025625 -0.022000 0.126182
v -0.026723 -0.022311 0.125761
v -0.026623 -0.022221 0.125892
v -0.026512 -0.022145 0.126023
v -0.026392 -0.022083 0.126154
v -0.026266 -0.022038 0.126284
v -0.026134 -0.022010 0.126415
v -0.026000 -0.022000 0.126546
v -0.027500 -0.026000 0.128000
v -0.028010 -0.025934 0.128000
v -0.028486 -0.025740 0.128000
v -0.028897 -0.025431 0.128000
v -0.029216 -0.025027 0.128000
v -0.029421 -0.024556 0.128000
v -0.029499 -0.024047 0.128000
v -0.029445 -0.023536 0.128000
v -0.024500 -0.024000 0.123000
v -0.024500 -0.026000 0.123000
v -0.024875 -0.026000 0.123625
v -0.025250 -0.026000 0.124250
v -0.025625 -0.026000 0.124875
v -0.026000 -0.026000 0.125500
v -0.026375 -0.026000 0.126125
v -0.026750 -0.026000 0.126750
v -0.027125 -0.026000 0.127375
v -0.028514 -0.023332 0.127063
v -0.027101 -0.025954 0.127063
v -0.028668 -0.023365 0.127219
v -0.026352 -0.022879 0.124875
v -0.026373 -0.023312 0.124875
v -0.026358 -0.023745 0.124875
v -0.026289 -0.024281 0.124875
v -0.025693 -0.024151 0.124250
v -0.026167 -0.024788 0.124875
v -0.026051 -0.025130 0.124875
v -0.025919 -0.025448 0.124875
v -0.025848 -0.025597 0.124875
v -0.025775 -0.025739 0.124875
v -0.025701 -0.025874 0.124875
v -0.026101 -0.025897 0.125500
v -0.026200 -0.025783 0.125500
v -0.026298 -0.025659 0.125500
v -0.026392 -0.025525 0.125500
v -0.026568 -0.025232 0.125500
v -0.026722 -0.024906 0.125500
v -0.026970 -0.023008 0.125500
v -0.028205 -0.023267 0.126750
v -0.028713 -0.023801 0.127219
v -0.028557 -0.023769 0.127063
v -0.028525 -0.023762 0.127030
v -0.028497 -0.023329 0.127045
v -0.027263 -0.025892 0.127063
v -0.027421 -0.025813 0.127063
v -0.027575 -0.025719 0.127063
v -0.027861 -0.025487 0.127063
v -0.028111 -0.025202 0.127063
v -0.028376 -0.024735 0.127063
v -0.028680 -0.024240 0.127219
v -0.027834 -0.025143 0.126750
v -0.027603 -0.025436 0.126750
v -0.027338 -0.025680 0.126750
v -0.027196 -0.025782 0.126750
v -0.027050 -0.025870 0.126750
v -0.026901 -0.025943 0.126750
v -0.027556 -0.025084 0.126438
v -0.027344 -0.025385 0.126438
v -0.027102 -0.025641 0.126438
v -0.026972 -0.025751 0.126438
v -0.026838 -0.025848 0.126438
v -0.026701 -0.025931 0.126438
v -0.027278 -0.025025 0.126125
v -0.027086 -0.025334 0.126125
v -0.026865 -0.025603 0.126125
v -0.026747 -0.025721 0.126125
v -0.026625 -0.025826 0.126125
v -0.026501 -0.025920 0.126125
v -0.028822 -0.023397 0.127375
v -0.028870 -0.023834 0.127375
v -0.028835 -0.024273 0.127375
v -0.028674 -0.024800 0.127375
v -0.028389 -0.025261 0.127375
v -0.028120 -0.025537 0.127375
v -0.027811 -0.025757 0.127375
v -0.027646 -0.025844 0.127375
v -0.027475 -0.025914 0.127375
v -0.027301 -0.025966 0.127375
v -0.028525 -0.024767 0.127219
v -0.028250 -0.025232 0.127219
v -0.027990 -0.025512 0.127219
v -0.027693 -0.025738 0.127219
v -0.027533 -0.025828 0.127219
v -0.027369 -0.025903 0.127219
v -0.027201 -0.025960 0.127219
v -0.025735 -0.022750 0.124250
v -0.025748 -0.023181 0.124250
v -0.025738 -0.023613 0.124250
v -0.025611 -0.024670 0.124250
v -0.025534 -0.025028 0.124250
v -0.025446 -0.025371 0.124250
v -0.025399 -0.025536 0.124250
v -0.025350 -0.025695 0.124250
v -0.025300 -0.025850 0.124250
v -0.025117 -0.022620 0.123625
v -0.025124 -0.023051 0.123625
v -0.025119 -0.023482 0.123625
v -0.025096 -0.024021 0.123625
v -0.025056 -0.024551 0.123625
v -0.025017 -0.024926 0.123625
v -0.024973 -0.025294 0.123625
v -0.024949 -0.025474 0.123625
v -0.024925 -0.025652 0.123625
v -0.024900 -0.025827 0.123625
v -0.028525 -0.024207 0.127063
v -0.024500 -0.022000 0.130000
v -0.024500 0.001000 0.130000
v -0.024500 0.001000 0.000000
v -0.024500 -0.022000 0.000000
v -0.024500 -0.022000 0.002000
v -0.024500 -0.026000 0.002000
v -0.027500 -0.026000 0.130000
v -0.028018 -0.025932 0.130000
v -0.028500 -0.025732 0.130000
v -0.028914 -0.025414 0.130000
v -0.029232 -0.025000 0.130000
v -0.029432 -0.024518 0.130000
v -0.029500 -0.024000 0.130000
v -0.029432 -0.023482 0.130000
v -0.029232 -0.023000 0.130000
v -0.028914 -0.022586 0.130000
v -0.028500 -0.022268 0.130000
v -0.028018 -0.022068 0.130000
v -0.027500 -0.022000 0.130000
v 0.024500 -0.026000 0.130000
v 0.024500 0.001000 0.130000
v -0.022500 -0.026000 0.130000
v -0.022500 -0.001000 0.130000
v 0.020500 -0.024500 0.002000
v 0.020500 -0.026000 0.002000
v -0.027500 -0.022000 0.002000
v -0.028018 -0.022068 0.002000
v -0.028500 -0.022268 0.002000
v -0.028914 -0.022586 0.002000
v -0.029232 -0.023000 0.002000
v -0.029432 -0.023482 0.002000
v -0.029500 -0.024000 0.002000
v -0.029432 -0.024518 0.002000
v -0.029232 -0.025000 0.002000
v -0.028914 -0.025414 0.002000
v -0.028500 -0.025732 0.002000
v -0.028018 -0.025932 0.002000
v -0.027500 -0.026000 0.002000
v -0.028500 -0.024000 0.002000
v -0.028466 -0.023741 0.002000
v -0.028366 -0.023500 0.002000
v -0.028207 -0.023293 0.002000
v -0.028000 -0.023134 0.002000
v -0.027759 -0.023034 0.002000
v -0.027500 -0.023000 0.002000
v -0.027241 -0.023034 0.002000
v -0.027000 -0.023134 0.002000
v -0.026793 -0.023293 0.002000
v -0.026634 -0.023500 0.002000
v -0.026534 -0.023741 0.002000
v -0.026500 -0.024000 0.002000
v -0.026534 -0.024259 0.002000
v -0.026634 -0.024500 0.002000
v -0.026793 -0.024707 0.002000
v -0.027000 -0.024866 0.002000
v -0.027241 -0.024966 0.002000
v -0.027500 -0.025000 0.002000
v -0.027759 -0.024966 0.002000
v -0.028000 -0.024866 0.002000
v -0.028207 -0.024707 0.002000
v -0.028366 -0.024500 0.002000
v -0.028466 -0.024259 0.002000
v -0.028500 -0.024000 0.000000
v -0.028466 -0.023741 0.000000
v -0.028366 -0.023500 0.000000
v -0.028207 -0.023293 0.000000
v -0.028000 -0.023134 0.000000
v -0.027759 -0.023034 0.000000
v -0.027500 -0.023000 0.000000
v -0.027241 -0.023034 0.000000
v -0.027000 -0.023134 0.000000
v -0.026793 -0.023293 0.000000
v -0.026634 -0.023500 0.000000
v -0.026534 -0.023741 0.000000
v -0.026500 -0.024000 0.000000
v -0.026534 -0.024259 0.000000
v -0.026634 -0.024500 0.000000
v -0.026793 -0.024707 0.000000
v -0.027000 -0.024866 0.000000
v -0.027241 -0.024966 0.000000
v -0.027500 -0.025000 0.000000
v -0.027759 -0.024966 0.000000
v -0.028000 -0.024866 0.000000
v -0.028207 -0.024707 0.000000
v -0.028366 -0.024500 0.000000
v -0.028466 -0.024259 0.000000
v -0.022500 -0.001000 0.000000
v -0.022500 -0.026000 0.000000
v -0.027500 -0.026000 0.000000
v -0.027500 -0.022000 0.000000
v -0.028018 -0.022068 0.000000
v -0.028500 -0.022268 0.000000
v -0.028914 -0.022586 0.000000
v -0.029232 -0.023000 0.000000
v -0.029432 -0.023482 0.000000
v -0.029500 -0.024000 0.000000
v -0.029432 -0.024518 0.000000
v -0.029232 -0.025000 0.000000
v -0.028914 -0.025414 0.000000
v -0.028500 -0.025732 0.000000
v -0.028018 -0.025932 0.000000
v 0.024500 0.001000 0.000000
v 0.024500 -0.026000 0.000000
v 0.020500 -0.026000 0.000000
v 0.020500 -0.024500 0.000000
vt 0.000000 0.000000 0.000000
vt 0.200000 0.000000 0.000000
vt 0.000000 0.200000 0.000000
vt 0.200000 0.200000 0.000000
vt 0.000000 0.000000 0.000000
vt 0.150000 0.000000 0.000000
vt 0.000000 0.200000 0.000000
vt 0.150000 0.200000 0.000000
vt -0.100000 -0.075000 0.000000
vt 0.100000 -0.075000 0.000000
vt -0.100000 0.075000 0.000000
vt 0.100000 0.075000 0.000000
vt 2.500000 12.800000 0.000000
vt 2.350000 12.800000 0.000000
vt 2.500000 0.200000 0.000000
vt 2.350000 0.200000 0.000000
vt 0.000000 0.000000 0.000000
vt 2.350000 0.000000 0.000000
vt 2.350000 13.000000 0.000000
vt 0.000000 13.000000 0.000000
vt 0.483738 -0.278728 0.000000
vt 0.471176 -0.259558 0.000000
vt 0.000000 -0.261799 0.000000
vt 0.456324 -0.241823 0.000000
vt 0.000000 -0.235619 0.000000
vt 0.440040 -0.225098 0.000000
vt 0.000000 -0.209440 0.000000
vt 0.405547 -0.193316 0.000000
vt 0.000000 -0.183260 0.000000
vt 0.370928 -0.161281 0.000000
vt 0.000000 -0.157080 0.000000
vt 0.354460 -0.144283 0.000000
vt 0.000000 -0.130900 0.000000
vt 0.339117 -0.126147 0.000000
vt -0.000000 -0.104720 0.000000
vt 0.325549 -0.106707 0.000000
vt 0.314275 -0.085796 0.000000
vt -0.000000 -0.078540 0.000000
vt 0.305847 -0.063602 0.000000
vt 0.000000 -0.052360 0.000000
vt 0.302783 -0.052039 0.000000
vt 0.300539 -0.040289 0.000000
vt 0.000000 -0.026180 0.000000
vt 0.299127 -0.028391 0.000000
vt 0.298550 -0.016345 0.000000
vt 0.000000 0.000000 0.000000
vt 0.298820 -0.004296 0.000000
vt 0.299948 0.007746 0.000000
vt 0.000000 0.026180 0.000000
vt 0.301936 0.019744 0.000000
vt 0.304768 0.031550 0.000000
vt 0.000000 0.052360 0.000000
vt 0.312969 0.054615 0.000000
vt 0.000000 0.078540 0.000000
vt 0.324256 0.076488 0.000000
vt 0.338226 0.097138 0.000000
vt 0.000000 0.104720 0.000000
vt 0.354216 0.116548 0.000000
vt 0.000000 0.130900 0.000000
vt 0.371609 0.134975 0.000000
vt 0.000000 0.157080 0.000000
vt 0.408598 0.170362 0.000000
vt 0.000000 0.183260 0.000000
vt 0.445654 0.206487 0.000000
vt 0.000000 0.209440 0.000000
vt 0.462411 0.225296 0.000000
vt 0.000000 0.235619 0.000000
vt 0.476460 0.244200 0.000000
vt 0.000000 0.261799 0.000000
vt 0.487358 0.263639 0.000000
vt 0.491502 0.273927 0.000000
vt 0.000000 0.287979 0.000000
vt 0.494546 0.284635 0.000000
vt 0.496275 0.295574 0.000000
vt 0.000000 0.314159 0.000000
vt 0.496566 0.306709 0.000000
vt 0.000000 -0.314159 0.000000
vt 0.496566 -0.321610 0.000000
vt 0.495360 -0.310491 0.000000
vt 0.492725 -0.299597 0.000000
vt 0.000000 -0.287979 0.000000
vt 0.488781 -0.288960 0.000000
vt -0.000000 0.000000 0.000000
vt -0.208922 0.089790 0.000000
vt -0.208922 0.000000 0.000000
vt -0.227701 0.089790 0.000000
vt -0.239018 0.000000 0.000000
vt -0.246481 0.089790 0.000000
vt -0.265260 0.089790 0.000000
vt -0.265260 0.179579 0.000000
vt -0.284040 0.179579 0.000000
vt -0.284040 0.224474 0.000000
vt -0.302820 0.224474 0.000000
vt -0.302820 0.269369 0.000000
vt -0.321599 0.269369 0.000000
vt -0.321599 0.314264 0.000000
vt -0.359159 0.314264 0.000000
vt -0.359159 0.359159 0.000000
vt -0.314264 0.359159 0.000000
vt -0.302820 0.314264 0.000000
vt -0.284040 0.314264 0.000000
vt -0.284040 0.269369 0.000000
vt -0.265260 0.269369 0.000000
vt -0.265260 0.224474 0.000000
vt -0.246481 0.224474 0.000000
vt -0.246481 0.179579 0.000000
vt -0.227701 0.179579 0.000000
vt 0.000000 0.314264 0.000000
vt -0.179579 0.359159 0.000000
vt -0.208922 0.314264 0.000000
vt -0.224474 0.359159 0.000000
vt -0.227701 0.314264 0.000000
vt -0.246481 0.314264 0.000000
vt -0.227701 0.269369 0.000000
vt -0.246481 0.269369 0.000000
vt -0.227701 0.224474 0.000000
vt -0.269369 0.359159 0.000000
vt -0.265260 0.314264 0.000000
vt -0.359159 0.269369 0.000000
vt -0.321599 0.224474 0.000000
vt -0.302820 0.179579 0.000000
vt -0.284040 0.089790 0.000000
vt -0.269052 0.000000 0.000000
vt -0.359159 0.224474 0.000000
vt -0.321599 0.179579 0.000000
vt -0.302820 0.089790 0.000000
vt -0.359159 0.179579 0.000000
vt -0.321599 0.089790 0.000000
vt -0.299028 0.000000 0.000000
vt -0.359159 0.134685 0.000000
vt -0.359159 0.089790 0.000000
vt -0.359159 0.044895 0.000000
vt -0.329063 0.000000 0.000000
vt -0.359159 0.000000 0.000000
vt 0.000000 0.089790 0.000000
vt -0.208922 0.179579 0.000000
vt 0.000000 0.179579 0.000000
vt -0.208922 0.224474 0.000000
vt 0.000000 0.224474 0.000000
vt -0.208922 0.269369 0.000000
vt 0.000000 0.269369 0.000000
vt -0.185838 0.394362 0.000000
vt -0.185158 0.434349 0.000000
vt -0.200908 0.376911 0.000000
vt -0.238185 0.434349 0.000000
vt -0.212769 0.356259 0.000000
vt -0.238185 0.347479 0.000000
vt -0.221741 0.333605 0.000000
vt -0.231797 0.285630 0.000000
vt -0.238185 0.260609 0.000000
vt -0.231485 0.237504 0.000000
vt -0.238185 0.217174 0.000000
vt -0.226955 0.214625 0.000000
vt -0.238185 0.173739 0.000000
vt -0.219014 0.193325 0.000000
vt -0.207388 0.174488 0.000000
vt -0.238185 0.130305 0.000000
vt -0.191967 0.158828 0.000000
vt -0.185158 0.130305 0.000000
vt -0.173147 0.147055 0.000000
vt -0.185158 0.108587 0.000000
vt -0.162641 0.142747 0.000000
vt -0.132130 0.086870 0.000000
vt -0.151646 0.139571 0.000000
vt -0.132130 0.108587 0.000000
vt -0.140313 0.137549 0.000000
vt -0.132130 0.130305 0.000000
vt -0.128763 0.136697 0.000000
vt -0.117265 0.137039 0.000000
vt -0.090080 0.108587 0.000000
vt -0.105960 0.138585 0.000000
vt -0.090080 0.130305 0.000000
vt -0.095012 0.141348 0.000000
vt -0.090080 0.134777 0.000000
vt -0.084679 0.145300 0.000000
vt -0.048030 0.108587 0.000000
vt -0.048030 0.086870 0.000000
vt -0.090080 0.086870 0.000000
vt -0.049015 0.000000 0.000000
vt -0.097905 0.000000 0.000000
vt -0.146788 0.000000 0.000000
vt -0.185158 0.086870 0.000000
vt -0.195803 0.000000 0.000000
vt -0.238185 0.086870 0.000000
vt -0.244811 0.000000 0.000000
vt -0.276541 0.086870 0.000000
vt -0.293708 0.000000 0.000000
vt -0.314896 0.086870 0.000000
vt -0.334074 0.086870 0.000000
vt -0.334074 0.108587 0.000000
vt -0.353252 0.108587 0.000000
vt -0.353252 0.130305 0.000000
vt -0.372430 0.130305 0.000000
vt -0.372430 0.173739 0.000000
vt -0.391608 0.173739 0.000000
vt -0.372430 0.217174 0.000000
vt -0.391608 0.260609 0.000000
vt -0.372430 0.260609 0.000000
vt -0.391608 0.347479 0.000000
vt -0.372430 0.347479 0.000000
vt -0.391608 0.434349 0.000000
vt -0.372430 0.434349 0.000000
vt -0.391608 0.521218 0.000000
vt -0.372430 0.521218 0.000000
vt -0.391608 0.608088 0.000000
vt -0.372430 0.608088 0.000000
vt -0.391608 0.694958 0.000000
vt -0.353252 0.608088 0.000000
vt -0.334074 0.608088 0.000000
vt -0.334074 0.521218 0.000000
vt -0.314896 0.521218 0.000000
vt -0.314896 0.434349 0.000000
vt -0.276541 0.434349 0.000000
vt -0.276541 0.347479 0.000000
vt -0.177016 0.401355 0.000000
vt -0.167392 0.406815 0.000000
vt -0.157165 0.410451 0.000000
vt -0.146458 0.412099 0.000000
vt -0.132130 0.434349 0.000000
vt -0.185158 0.521218 0.000000
vt -0.238185 0.521218 0.000000
vt -0.276541 0.521218 0.000000
vt -0.135587 0.411668 0.000000
vt -0.124884 0.409243 0.000000
vt -0.114500 0.404995 0.000000
vt -0.104710 0.399224 0.000000
vt -0.090080 0.434349 0.000000
vt -0.132130 0.521218 0.000000
vt -0.090080 0.521218 0.000000
vt -0.132130 0.608088 0.000000
vt -0.090080 0.608088 0.000000
vt -0.195804 0.694958 0.000000
vt -0.000000 0.694958 0.000000
vt -0.048030 0.608088 0.000000
vt -0.000000 0.608088 0.000000
vt -0.000000 0.521218 0.000000
vt -0.048030 0.521218 0.000000
vt -0.000000 0.434349 0.000000
vt -0.048030 0.434349 0.000000
vt -0.000000 0.347479 0.000000
vt -0.048030 0.347479 0.000000
vt -0.039644 0.289834 0.000000
vt -0.057974 0.341292 0.000000
vt -0.071448 0.364560 0.000000
vt -0.087060 0.384074 0.000000
vt -0.000000 0.260609 0.000000
vt -0.033606 0.238436 0.000000
vt -0.035649 0.214246 0.000000
vt -0.000000 0.173739 0.000000
vt -0.041586 0.191988 0.000000
vt -0.048030 0.173739 0.000000
vt -0.051789 0.172517 0.000000
vt -0.048030 0.132689 0.000000
vt -0.066271 0.156759 0.000000
vt -0.048030 0.130305 0.000000
vt -0.391608 0.000000 0.000000
vt -0.342599 0.000000 0.000000
vt -0.391608 0.086870 0.000000
vt -0.372430 0.086870 0.000000
vt -0.372430 0.108587 0.000000
vt -0.353252 0.086870 0.000000
vt -0.000000 0.000000 0.000000
vt -0.000000 0.086870 0.000000
vt -0.276541 0.608088 0.000000
vt -0.238185 0.608088 0.000000
vt -0.185158 0.608088 0.000000
vt -0.334074 0.434349 0.000000
vt -0.314896 0.347479 0.000000
vt -0.334074 0.347479 0.000000
vt -0.314896 0.260609 0.000000
vt -0.334074 0.260609 0.000000
vt -0.314896 0.217174 0.000000
vt -0.334074 0.217174 0.000000
vt -0.314896 0.173739 0.000000
vt -0.334074 0.173739 0.000000
vt -0.314896 0.130305 0.000000
vt -0.334074 0.130305 0.000000
vt -0.314896 0.108587 0.000000
vt -0.353252 0.434349 0.000000
vt -0.353252 0.347479 0.000000
vt -0.353252 0.260609 0.000000
vt -0.353252 0.217174 0.000000
vt -0.353252 0.173739 0.000000
vt -0.353252 0.521218 0.000000
vt -0.276541 0.260609 0.000000
vt -0.276541 0.130305 0.000000
vt -0.276541 0.173739 0.000000
vt -0.276541 0.217174 0.000000
vt -0.276541 0.108587 0.000000
vt -0.238185 0.108587 0.000000
vt -0.314896 0.608088 0.000000
vt 2.700000 12.300000 0.000000
vt 2.500000 12.300000 0.000000
vt 2.700000 0.200000 0.000000
vt 2.300000 0.200000 0.000000
vt 2.300000 12.300000 0.000000
vt -0.000000 0.000000 0.000000
vt -0.000000 13.000000 0.000000
vt 2.300000 12.362500 0.000000
vt 2.300000 12.425000 0.000000
vt 2.300000 12.487500 0.000000
vt 2.300000 12.550000 0.000000
vt 2.300000 12.800000 0.000000
vt 2.300000 13.000000 0.000000
vt 2.300000 0.000000 0.000000
vt -0.000000 -0.314159 0.000000
vt -0.000000 -0.271013 0.000000
vt -0.200000 -0.314159 0.000000
vt -0.200000 -0.261799 0.000000
vt -0.000000 -0.227866 0.000000
vt -0.200000 -0.209440 0.000000
vt -0.000000 -0.184720 0.000000
vt -0.200000 -0.157080 0.000000
vt -0.000000 -0.141573 0.000000
vt -0.200000 -0.104720 0.000000
vt -0.000000 -0.098427 0.000000
vt -0.200000 -0.052360 0.000000
vt -0.000000 -0.046853 0.000000
vt -0.200000 0.000000 0.000000
vt -0.000000 0.004720 0.000000
vt -0.200000 0.052360 0.000000
vt -0.000000 0.056293 0.000000
vt -0.200000 0.104720 0.000000
vt -0.000000 0.107866 0.000000
vt -0.200000 0.157080 0.000000
vt -0.000000 0.159440 0.000000
vt -0.200000 0.209440 0.000000
vt -0.000000 0.211013 0.000000
vt -0.200000 0.261799 0.000000
vt -0.000000 0.262586 0.000000
vt -0.200000 0.314159 0.000000
vt -0.000000 0.314159 0.000000
vt -0.000000 0.000000 0.000000
vt 0.300000 0.000000 0.000000
vt -0.000000 0.200000 0.000000
vt 0.300000 0.200000 0.000000
vt 2.403407 1.175882 0.000000
vt 2.000000 1.350000 0.000000
vt 2.400000 1.150000 0.000000
vt 2.200000 0.950000 0.000000
vt 2.403407 1.124118 0.000000
vt 2.413397 1.100000 0.000000
vt 2.429289 1.079289 0.000000
vt 2.450000 1.063397 0.000000
vt 2.500000 0.950000 0.000000
vt 2.474118 1.053407 0.000000
vt 2.500000 1.050000 0.000000
vt 2.551764 0.956815 0.000000
vt 2.600000 0.976795 0.000000
vt 2.413397 1.200000 0.000000
vt 2.429289 1.220711 0.000000
vt 2.450000 1.236603 0.000000
vt 2.500000 1.350000 0.000000
vt 2.474118 1.246593 0.000000
vt 2.500000 1.250000 0.000000
vt 2.525882 1.246593 0.000000
vt 2.600000 1.323205 0.000000
vt 2.551764 1.343185 0.000000
vt 2.641421 1.291421 0.000000
vt 2.550000 1.236603 0.000000
vt 2.673205 1.250000 0.000000
vt 2.570711 1.220711 0.000000
vt 2.586603 1.200000 0.000000
vt 2.693185 1.201764 0.000000
vt 2.596593 1.175882 0.000000
vt 2.700000 1.150000 0.000000
vt 2.600000 1.150000 0.000000
vt 2.596593 1.124118 0.000000
vt 2.693185 1.098236 0.000000
vt 2.586603 1.100000 0.000000
vt 2.673205 1.050000 0.000000
vt 2.570711 1.079289 0.000000
vt 2.550000 1.063397 0.000000
vt 2.641421 1.008579 0.000000
vt 2.525882 1.053407 0.000000
vt -2.500000 1.200000 0.000000
vt -2.700000 1.350000 0.000000
vt -2.500000 -1.150000 0.000000
vt -2.700000 -1.350000 0.000000
vt 2.200000 -1.350000 0.000000
vt -2.300000 1.200000 0.000000
vt -2.300000 1.350000 0.000000
vt 2.000000 -1.150000 0.000000
vt 2.500000 -1.200000 0.000000
vt 2.300000 -1.200000 0.000000
vt 2.500000 -1.350000 0.000000
vt 2.300000 -1.350000 0.000000
vt -2.200000 -0.950000 0.000000
vt -2.400000 -1.150000 0.000000
vt -2.200000 -1.350000 0.000000
vt -2.403407 -1.175882 0.000000
vt -2.413397 -1.200000 0.000000
vt -2.500000 -0.950000 0.000000
vt -2.450000 -1.063397 0.000000
vt -2.429289 -1.079289 0.000000
vt -2.413397 -1.100000 0.000000
vt -2.551764 -0.956815 0.000000
vt -2.500000 -1.050000 0.000000
vt -2.474118 -1.053407 0.000000
vt -2.525882 -1.053407 0.000000
vt -2.600000 -0.976795 0.000000
vt -2.550000 -1.063397 0.000000
vt -2.641421 -1.008579 0.000000
vt -2.570711 -1.079289 0.000000
vt -2.673205 -1.050000 0.000000
vt -2.586603 -1.100000 0.000000
vt -2.693185 -1.098236 0.000000
vt -2.596593 -1.124118 0.000000
vt -2.700000 -1.150000 0.000000
vt -2.600000 -1.150000 0.000000
vt -2.596593 -1.175882 0.000000
vt -2.693185 -1.201764 0.000000
vt -2.586603 -1.200000 0.000000
vt -2.673205 -1.250000 0.000000
vt -2.570711 -1.220711 0.000000
vt -2.641421 -1.291421 0.000000
vt -2.550000 -1.236603 0.000000
vt -2.600000 -1.323205 0.000000
vt -2.525882 -1.246593 0.000000
vt -2.551764 -1.343185 0.000000
vt -2.500000 -1.250000 0.000000
vt -2.500000 -1.350000 0.000000
vt -2.474118 -1.246593 0.000000
vt -2.450000 -1.236603 0.000000
vt -2.429289 -1.220711 0.000000
vt -2.403407 -1.124118 0.000000
vt 0.200000 -0.287979 0.000000
vt 0.000000 -0.287979 0.000000
vt 0.200000 -0.314159 0.000000
vt 0.000000 -0.314159 0.000000
vt 0.200000 0.314159 0.000000
vt 0.000000 0.314159 0.000000
vt 0.200000 0.287979 0.000000
vt -0.000000 0.287979 0.000000
vt 0.200000 0.261799 0.000000
vt 0.000000 0.261799 0.000000
vt 0.200000 0.235619 0.000000
vt 0.000000 0.235619 0.000000
vt 0.200000 0.209440 0.000000
vt -0.000000 0.209440 0.000000
vt 0.200000 0.183260 0.000000
vt -0.000000 0.183260 0.000000
vt 0.200000 0.157080 0.000000
vt 0.000000 0.157080 0.000000
vt 0.200000 0.130900 0.000000
vt -0.000000 0.130900 0.000000
vt 0.200000 0.104720 0.000000
vt 0.000000 0.104720 0.000000
vt 0.200000 0.078540 0.000000
vt 0.000000 0.078540 0.000000
vt 0.200000 0.052360 0.000000
vt -0.000000 0.052360 0.000000
vt 0.200000 0.026180 0.000000
vt -0.000000 0.026180 0.000000
vt 0.200000 0.000000 0.000000
vt 0.000000 0.000000 0.000000
vt 0.200000 -0.026180 0.000000
vt -0.000000 -0.026180 0.000000
vt 0.200000 -0.052360 0.000000
vt 0.000000 -0.052360 0.000000
vt 0.200000 -0.078540 0.000000
vt -0.000000 -0.078540 0.000000
vt 0.200000 -0.104720 0.000000
vt -0.000000 -0.104720 0.000000
vt 0.200000 -0.130900 0.000000
vt 0.000000 -0.130900 0.000000
vt 0.200000 -0.157080 0.000000
vt 0.000000 -0.157080 0.000000
vt 0.200000 -0.183260 0.000000
vt -0.000000 -0.183260 0.000000
vt 0.200000 -0.209440 0.000000
vt 0.000000 -0.209440 0.000000
vt 0.200000 -0.235619 0.000000
vt 0.000000 -0.235619 0.000000
vt 0.200000 -0.261799 0.000000
vt -0.000000 -0.261799 0.000000
vt 0.000000 0.000000 0.000000
vt 4.500000 0.000000 0.000000
vt 0.000000 13.000000 0.000000
vt 4.500000 13.000000 0.000000
vt 0.000000 0.000000 0.000000
vt 2.500000 0.000000 0.000000
vt 0.000000 13.000000 0.000000
vt 2.500000 13.000000 0.000000
vt 0.000000 0.200000 0.000000
vt 0.000000 0.000000 0.000000
vt 0.300000 0.200000 0.000000
vt 0.500000 0.000000 0.000000
vt 0.300000 12.300000 0.000000
vt 0.500000 13.000000 0.000000
vt 0.262500 12.362500 0.000000
vt 0.225000 12.425000 0.000000
vt 0.187500 12.487500 0.000000
vt 0.150000 12.550000 0.000000
vt 0.000000 13.000000 0.000000
vt 0.112500 12.612500 0.000000
vt 0.075000 12.675000 0.000000
vt 0.037500 12.737500 0.000000
vt 0.000000 12.800000 0.000000
vt -0.200000 0.314159 0.000000
vt -0.000000 0.314159 0.000000
vt -0.200000 0.366519 0.000000
vt -0.000000 0.366519 0.000000
vt -0.200000 0.418879 0.000000
vt -0.000000 0.418879 0.000000
vt -0.200000 0.471239 0.000000
vt -0.000000 0.471239 0.000000
vt -0.200000 0.523599 0.000000
vt -0.000000 0.523599 0.000000
vt -0.200000 0.575959 0.000000
vt -0.000000 0.575959 0.000000
vt -0.200000 0.628319 0.000000
vt -0.000000 0.628319 0.000000
vt -0.200000 0.680678 0.000000
vt -0.000000 0.680678 0.000000
vt -0.200000 0.733038 0.000000
vt -0.000000 0.733038 0.000000
vt -0.200000 0.785398 0.000000
vt -0.000000 0.785398 0.000000
vt -0.200000 0.837758 0.000000
vt -0.000000 0.837758 0.000000
vt -0.200000 0.890118 0.000000
vt -0.000000 0.890118 0.000000
vt -0.200000 0.942478 0.000000
vt -0.000000 0.942478 0.000000
vt -0.000000 0.000000 0.000000
vt 0.300000 0.000000 0.000000
vt -0.000000 0.200000 0.000000
vt 0.300000 0.200000 0.000000
vt -0.000000 0.000000 0.000000
vt 4.900000 0.000000 0.000000
vt -0.000000 13.000000 0.000000
vt 4.900000 13.000000 0.000000
vt 0.000000 0.000000 0.000000
vt 2.700000 0.000000 0.000000
vt 0.000000 13.000000 0.000000
vt 2.700000 13.000000 0.000000
vt 0.000000 0.200000 0.000000
vt 0.000000 0.000000 0.000000
vt 0.200000 0.200000 0.000000
vt 0.400000 0.000000 0.000000
vt 0.200000 12.800000 0.000000
vt 0.400000 13.000000 0.000000
vt 0.000000 13.000000 0.000000
vt 0.000000 12.800000 0.000000
vt 0.000000 0.000000 0.000000
vt 0.150000 0.000000 0.000000
vt 0.000000 0.200000 0.000000
vt 0.150000 0.200000 0.000000
vt 0.000000 0.000000 0.000000
vt 0.200000 0.000000 0.000000
vt 0.000000 0.200000 0.000000
vt 0.200000 0.200000 0.000000
vt 2.596593 -1.124118 0.000000
vt 2.600000 -1.150000 0.000000
vt 2.700000 -1.150000 0.000000
vt 2.596593 -1.175882 0.000000
vt 2.693185 -1.201764 0.000000
vt 2.586603 -1.200000 0.000000
vt 2.673205 -1.250000 0.000000
vt 2.570711 -1.220711 0.000000
vt 2.550000 -1.236603 0.000000
vt 2.641421 -1.291421 0.000000
vt 2.525882 -1.246593 0.000000
vt 2.600000 -1.323205 0.000000
vt 2.500000 -1.250000 0.000000
vt 2.551764 -1.343185 0.000000
vt 2.500000 -1.350000 0.000000
vt 2.474118 -1.246593 0.000000
vt 2.450000 -1.236603 0.000000
vt 2.000000 -1.350000 0.000000
vt 2.429289 -1.220711 0.000000
vt 2.413397 -1.200000 0.000000
vt 2.403407 -1.175882 0.000000
vt 2.400000 -1.150000 0.000000
vt 2.200000 -0.950000 0.000000
vt 2.403407 -1.124118 0.000000
vt 2.413397 -1.100000 0.000000
vt 2.429289 -1.079289 0.000000
vt 2.450000 -1.063397 0.000000
vt 2.500000 -0.950000 0.000000
vt 2.474118 -1.053407 0.000000
vt 2.500000 -1.050000 0.000000
vt 2.525882 -1.053407 0.000000
vt 2.600000 -0.976795 0.000000
vt 2.551764 -0.956815 0.000000
vt 2.641421 -1.008579 0.000000
vt 2.550000 -1.063397 0.000000
vt 2.673205 -1.050000 0.000000
vt 2.570711 -1.079289 0.000000
vt 2.586603 -1.100000 0.000000
vt 2.693185 -1.098236 0.000000
vt -2.500000 1.150000 0.000000
vt -2.700000 -1.350000 0.000000
vt -2.500000 -1.200000 0.000000
vt -2.300000 -1.350000 0.000000
vt -2.300000 -1.200000 0.000000
vt -2.700000 1.350000 0.000000
vt 2.000000 1.150000 0.000000
vt 2.200000 1.350000 0.000000
vn 0.000000 100.000000 0.000000
vn 0.000000 100.000000 0.000000
vn 0.000000 100.000000 0.000000
vn 0.000000 100.000000 0.000000
vn -100.000000 0.000000 0.000000
vn -100.000000 0.000000 0.000000
vn -100.000000 0.000000 0.000000
vn -100.000000 0.000000 0.000000
vn 0.000000 0.000000 -100.000000
vn 0.000000 0.000000 -100.000000
vn 0.000000 0.000000 -100.000000
vn 0.000000 0.000000 -100.000000
vn -100.000000 0.000000 0.000000
vn -100.000000 0.000000 0.000000
vn -100.000000 0.000000 0.000000
vn -100.000000 0.000000 0.000000
vn -100.000000 0.000000 0.000000
vn -100.000000 0.000000 0.000000
vn -100.000000 0.000000 0.000000
vn -100.000000 0.000000 0.000000
vn -93.788690 34.694115 0.000000
vn -85.460446 51.927952 0.000000
vn -86.602540 50.000000 0.000000
vn -74.958146 66.191211 0.000000
vn -70.710678 70.710678 0.000000
vn -62.893889 77.745474 0.000000
vn -50.000000 86.602540 0.000000
vn -35.448936 93.506005 0.000000
vn -25.881905 96.592583 0.000000
vn -4.199803 99.911769 0.000000
vn 0.000000 100.000000 0.000000
vn 12.761737 99.182348 0.000000
vn 25.881905 96.592583 0.000000
vn 30.442161 95.253739 0.000000
vn 50.000000 86.602540 0.000000
vn 48.269472 87.578868 0.000000
vn 65.397996 75.651187 0.000000
vn 70.710678 70.710678 0.000000
vn 80.446418 59.400117 0.000000
vn 86.602540 50.000000 0.000000
vn 86.762711 49.721545 0.000000
vn 91.993145 39.207922 0.000000
vn 96.592583 25.881905 0.000000
vn 95.996705 28.011293 0.000000
vn 98.667223 16.272032 0.000000
vn 100.000000 -0.000000 0.000000
vn 99.907742 4.294547 0.000000
vn 99.700163 -7.738052 0.000000
vn 96.592583 -25.881905 0.000000
vn 98.057179 -19.616056 0.000000
vn 95.064120 -31.029228 0.000000
vn 86.602540 -50.000000 0.000000
vn 85.453251 -51.939791 0.000000
vn 70.710678 -70.710678 0.000000
vn 72.146468 -69.245124 0.000000
vn 56.415883 -82.566628 0.000000
vn 50.000000 -86.602540 0.000000
vn 39.430691 -91.897881 0.000000
vn 25.881905 -96.592583 0.000000
vn 21.924615 -97.566958 0.000000
vn 0.000000 -100.000000 0.000000
vn -13.243177 -99.119212 0.000000
vn -25.881905 -96.592583 0.000000
vn -47.421230 -88.041053 0.000000
vn -50.000000 -86.602540 0.000000
vn -63.047764 -77.620742 0.000000
vn -70.710678 -70.710678 0.000000
vn -76.510740 -64.390268 0.000000
vn -86.602540 -50.000000 0.000000
vn -87.507554 -48.398636 0.000000
vn -92.015466 -39.155510 0.000000
vn -96.592583 -25.881905 0.000000
vn -95.673086 -29.097432 0.000000
vn -98.277855 -18.478724 0.000000
vn -100.000000 -0.000000 0.000000
vn -99.722579 -7.443608 0.000000
vn -99.932728 3.667397 0.000000
vn -98.941517 14.511247 0.000000
vn -96.592583 25.881905 0.000000
vn -96.841679 24.933696 0.000000
vn 0.000000 100.000000 0.000000
vn 0.000000 100.000000 0.000000
vn 0.000000 100.000000 0.000000
vn -10.773190 98.861505 -10.504342
vn -21.860575 95.269690 -21.114012
vn -20.916337 95.842601 -19.408830
vn -30.287066 91.425337 -26.909133
vn -22.180958 95.755865 -18.407051
vn -29.388188 92.749548 -23.105317
vn -24.101953 95.456086 -17.528019
vn -30.400057 92.957116 -20.852126
vn -23.918359 96.083316 -13.996732
vn -29.444438 94.195697 -16.130582
vn -21.717887 97.282327 -8.030082
vn -31.474126 94.382532 -10.065638
vn -21.626967 97.633367 -0.000000
vn -12.472849 99.219091 -0.000000
vn -17.174843 98.266732 -6.976681
vn -12.887517 98.992924 -5.857721
vn -18.565753 97.557512 -11.740725
vn -13.415361 98.659299 -9.293589
vn -17.857110 97.405667 -13.901786
vn -11.699673 98.822682 -9.858765
vn -14.834989 98.021628 -13.102803
vn -7.401633 99.478004 -7.024427
vn -0.000000 100.000000 -0.000000
vn 0.000000 100.000000 0.000000
vn -0.413052 99.999147 -0.000000
vn -2.294872 99.958236 -1.756308
vn -5.334002 99.803541 -3.286597
vn -3.999659 99.858151 -3.514594
vn -8.526033 99.418372 -6.579821
vn -5.702936 99.697973 -5.271689
vn -4.969902 99.876424 -0.000000
vn -8.910741 99.494072 -4.639873
vn -40.995416 88.926057 -20.286258
vn -36.740437 89.862350 -23.977036
vn -36.443045 89.015781 -27.351329
vn -38.883398 85.914625 -33.267981
vn -39.433277 84.511075 -36.095635
vn -49.537170 81.529617 -29.983168
vn -43.345739 84.514991 -31.278797
vn -46.753760 79.457238 -38.738008
vn -56.642676 72.817970 -38.589512
vn -53.939249 72.083884 -43.525523
vn -53.007818 70.885819 -46.533557
vn -62.157959 63.552625 -45.797948
vn -66.191294 54.397524 -51.571523
vn -68.994244 45.799094 -56.055662
vn -63.387715 55.336690 -54.035621
vn -70.851742 37.985889 -59.473548
vn 0.000000 100.000000 0.000000
vn 0.000000 100.000000 0.000000
vn 0.000000 100.000000 0.000000
vn -69.976688 -15.028949 -69.838341
vn -70.388193 -12.934175 -69.844180
vn -69.707124 -18.796160 -69.192639
vn -71.019279 -21.170862 -67.142063
vn -69.305908 -22.449861 -68.503247
vn -68.920027 -28.423862 -66.649185
vn -68.763320 -25.929047 -67.818068
vn -67.372296 -31.905894 -66.655739
vn -66.404323 -35.570959 -65.766046
vn -66.021325 -35.526945 -66.174170
vn -65.002269 -39.065367 -65.181301
vn -65.613570 -35.912354 -66.371397
vn -63.512997 -42.487251 -64.505292
vn -65.535776 -34.996261 -66.935221
vn -65.865207 -32.548534 -67.840751
vn -61.944519 -45.823131 -63.742586
vn -66.603458 -28.437520 -68.958588
vn -66.615403 -27.595741 -69.288262
vn -67.571182 -23.027993 -70.027472
vn -66.293146 -28.601196 -69.189525
vn -68.083644 -19.976577 -70.466686
vn -69.225549 -12.112550 -71.141475
vn -68.589698 -16.786818 -70.807176
vn -69.305567 -11.697105 -71.133088
vn -69.077311 -13.511070 -71.033627
vn -69.384571 -11.280236 -71.123397
vn -69.539150 -10.187099 -71.137399
vn -69.965011 -6.890066 -71.115569
vn -70.849391 0.932417 -70.565532
vn -70.352061 -3.655768 -70.973396
vn -70.846090 0.898680 -70.569284
vn -70.697723 -0.528309 -70.721658
vn -70.845409 0.891725 -70.570056
vn -70.997889 2.417976 -70.380772
vn -71.871579 14.239092 -68.056774
vn -71.870008 14.765223 -67.946229
vn -70.852678 0.966094 -70.561779
vn -71.834198 16.472132 -67.590805
vn -70.570734 -1.686333 -70.830275
vn -67.958366 -19.008318 -70.854388
vn -65.964771 -29.599426 -69.083450
vn -63.337582 -37.823387 -67.511052
vn -60.305669 -49.060918 -62.898749
vn -55.611101 -57.890430 -59.633074
vn -54.218127 -63.366788 -55.181925
vn -43.722191 -77.173838 -46.179744
vn -45.299366 -77.607672 -43.875012
vn -39.328899 -84.344176 -36.596417
vn -41.937694 -82.319151 -38.272538
vn -35.199486 -88.619688 -30.125521
vn -38.321567 -86.605562 -32.108164
vn -30.721052 -92.321218 -23.087003
vn -38.177250 -88.174743 -27.707621
vn -30.240222 -93.575207 -18.144133
vn -45.693989 -82.868649 -32.324084
vn -48.138526 -82.755350 -28.883115
vn -52.997740 -76.418629 -36.761837
vn -64.230432 -66.251448 -38.538258
vn -65.861792 -60.739197 -44.418176
vn -75.744291 -46.876554 -45.446573
vn -75.171929 -43.309225 -49.734215
vn -82.249155 -28.279043 -49.349491
vn -80.739015 -26.572590 -52.679302
vn -85.072880 -12.535672 -51.043727
vn -83.404700 -12.006512 -53.847002
vn -85.749293 0.000000 -51.449574
vn -81.777440 -11.409369 -56.411671
vn -80.213916 -10.754691 -58.737249
vn -77.911984 -23.052838 -58.294848
vn -76.633370 -21.260928 -60.624249
vn -73.151410 -33.330169 -59.480845
vn -71.935424 -27.147556 -63.939855
vn -68.611018 -36.791820 -62.760579
vn -70.062179 -13.170748 -70.127187
vn -70.124527 -11.353262 -70.382200
vn -70.174632 -9.599718 -70.592963
vn -70.224910 -7.903166 -70.753105
vn -70.376483 -5.303848 -70.845041
vn -71.180967 -8.624024 -69.705783
vn -72.683268 -13.939268 -67.252059
vn -74.410106 -17.634011 -64.437394
vn -70.285706 -6.274890 -70.855807
vn -70.363766 -4.720136 -70.898947
vn -70.462649 -3.219010 -70.884787
vn -70.580448 -1.777682 -70.818361
vn -70.798370 0.419990 -70.621628
vn -70.617647 -3.552466 -70.714411
vn -70.784204 0.281001 -70.636517
vn -70.838509 -1.784026 -70.560066
vn -70.769795 0.141008 -70.651371
vn -72.745830 0.000000 -68.615189
vn -72.408379 0.000000 -68.971202
vn -71.338687 2.096859 -70.045663
vn -72.806526 4.486511 -68.403808
vn -73.060163 9.109022 -67.670069
vn -71.508552 4.202654 -69.777250
vn -73.153583 13.842018 -66.760406
vn -71.646448 6.314563 -69.475987
vn -73.073083 18.655272 -65.668146
vn -71.751860 8.429702 -69.141960
vn -72.007441 11.781229 -68.382242
vn -71.513813 6.623905 -69.583751
vn -71.183004 3.779162 -70.133429
vn -70.860244 0.991297 -70.553832
vn -72.807795 23.514472 -64.390174
vn -72.153893 14.915818 -67.611642
vn -72.106904 15.129688 -67.614251
vn -72.350440 28.382201 -62.927454
vn -71.988633 14.079876 -67.966123
vn -71.863823 12.657970 -68.376654
vn -71.786887 11.575282 -68.648785
vn -71.870889 13.654625 -68.177170
vn -71.469945 7.624187 -69.526388
vn -71.871072 13.712475 -68.165366
vn 0.000004 -100.000000 0.000002
vn -25.396910 -93.198090 -25.867218
vn -13.672726 -98.720600 -8.203635
vn -23.548697 -95.389689 -18.608228
vn -27.088031 -93.982284 -20.822317
vn -32.113049 -90.422326 -28.152354
vn -71.697931 33.219206 -61.285325
vn -76.081335 -8.520329 -64.335328
vn -73.915319 -6.848199 -67.004685
vn -71.835937 -4.304362 -69.433930
vn -73.828539 -36.546682 -56.689389
vn -68.109517 -45.713703 -57.195726
vn -67.652782 -50.475194 -53.622345
vn -61.547641 -57.682179 -53.708976
vn -59.439089 -63.745871 -49.025082
vn -57.783384 -63.273589 -51.551271
vn -54.716569 -69.780989 -46.224568
vn -53.773601 -68.494535 -49.161961
vn -49.714447 -75.265755 -43.168738
vn -49.587967 -73.285338 -46.586401
vn -44.547275 -80.130451 -39.933084
vn -47.452009 -75.506601 -45.244448
vn -74.515335 -39.868729 -53.459792
vn -66.945350 -55.478126 -49.401394
vn -56.667858 -70.020249 -43.427165
vn -50.773684 -76.374288 -39.862277
vn -44.597557 -81.923709 -36.049463
vn -79.286108 -24.826134 -55.654076
vn -64.465111 -46.248855 -60.871117
vn -56.966482 -59.393692 -56.808532
vn -59.607881 -55.197849 -58.310359
vn -62.115546 -50.805564 -59.669536
vn -55.603939 -61.409482 -56.009619
vn -61.133312 -47.454982 -63.330426
vn -78.733337 -10.050929 -60.827957
vn -100.000000 0.000000 0.000000
vn -100.000000 0.000000 0.000000
vn -100.000000 0.000000 0.000000
vn -100.000000 0.000000 0.000000
vn -100.000000 0.000000 0.000000
vn -100.000000 0.000000 0.000000
vn -100.000000 0.000000 0.000000
vn -100.000000 0.000000 0.000000
vn -100.000000 0.000000 0.000000
vn -100.000000 0.000000 0.000000
vn -100.000000 0.000000 0.000000
vn -100.000000 0.000000 0.000000
vn -100.000000 0.000000 0.000000
vn -100.000000 0.000000 0.000000
vn -21.406303 97.681985 -0.000000
vn -0.000000 100.000000 -0.000000
vn -25.881905 96.592583 -0.000000
vn -41.820203 90.835404 -0.000000
vn -50.000001 86.602540 -0.000000
vn -60.295306 79.777667 -0.000000
vn -70.710679 70.710677 -0.000000
vn -75.975101 65.021413 -0.000000
vn -86.602541 49.999999 -0.000000
vn -88.132667 47.250747 -0.000000
vn -96.592583 25.881903 -0.000000
vn -97.268465 23.213052 -0.000000
vn -100.000000 -0.000002 0.000000
vn -99.972156 -2.359661 0.000000
vn -96.592582 -25.881907 0.000000
vn -96.064953 -27.776336 0.000000
vn -86.602539 -50.000002 0.000000
vn -85.805228 -51.356235 0.000000
vn -70.710676 -70.710680 0.000000
vn -69.871430 -71.540082 0.000000
vn -49.999997 -86.602542 0.000000
vn -49.317219 -86.993172 0.000000
vn -25.881901 -96.592584 0.000000
vn -25.501790 -96.693633 0.000000
vn 0.000004 -100.000000 0.000000
vn 0.000004 -100.000000 0.000000
vn 0.000000 100.000000 0.000000
vn 0.000000 0.000000 100.000000
vn 0.000000 0.000000 100.000000
vn 0.000000 0.000000 100.000000
vn 0.000000 0.000000 100.000000
vn 0.000000 0.000000 100.000000
vn 0.000000 0.000000 100.000000
vn 0.000000 0.000000 100.000000
vn 0.000000 0.000000 100.000000
vn 0.000000 0.000000 100.000000
vn 0.000000 0.000000 100.000000
vn 0.000000 0.000000 100.000000
vn 0.000000 0.000000 100.000000
vn 0.000000 0.000000 100.000000
vn 0.000000 0.000000 100.000000
vn 0.000000 0.000000 100.000000
vn 0.000000 0.000000 100.000000
vn 0.000000 0.000000 100.000000
vn 0.000000 0.000000 100.000000
vn 0.000000 0.000000 100.000000
vn 0.000000 0.000000 100.000000
vn 0.000000 0.000000 100.000000
vn 0.000000 0.000000 100.000000
vn 0.000000 0.000000 100.000000
vn 0.000000 0.000000 100.000000
vn 0.000000 0.000000 100.000000
vn 0.000000 0.000000 100.000000
vn 0.000000 0.000000 100.000000
vn 0.000000 0.000000 100.000000
vn 0.000000 0.000000 100.000000
vn 0.000000 0.000000 100.000000
vn 0.000000 0.000000 100.000000
vn 0.000000 0.000000 100.000000
vn 0.000000 0.000000 100.000000
vn 0.000000 0.000000 100.000000
vn 0.000000 0.000000 100.000000
vn 0.000000 0.000000 100.000000
vn 0.000000 0.000000 100.000000
vn 0.000000 0.000000 100.000000
vn 0.000000 0.000000 100.000000
vn 0.000000 0.000000 100.000000
vn 0.000000 0.000000 100.000000
vn 0.000000 0.000000 100.000000
vn 0.000000 0.000000 100.000000
vn 0.000000 0.000000 100.000000
vn 0.000000 0.000000 100.000000
vn 0.000000 0.000000 100.000000
vn 0.000000 0.000000 100.000000
vn 0.000000 0.000000 100.000000
vn 0.000000 0.000000 100.000000
vn 0.000000 0.000000 100.000000
vn 0.000000 0.000000 100.000000
vn 0.000000 0.000000 100.000000
vn 0.000000 0.000000 100.000000
vn 0.000000 0.000000 100.000000
vn 0.000000 0.000000 100.000000
vn 0.000000 0.000000 100.000000
vn 0.000000 0.000000 100.000000
vn 0.000000 0.000000 100.000000
vn 0.000000 0.000000 100.000000
vn 0.000000 0.000000 100.000000
vn 0.000000 0.000000 100.000000
vn 0.000000 0.000000 100.000000
vn 0.000000 0.000000 100.000000
vn 0.000000 0.000000 100.000000
vn 0.000000 0.000000 100.000000
vn 0.000000 0.000000 100.000000
vn 0.000000 0.000000 100.000000
vn 0.000000 0.000000 100.000000
vn 0.000000 0.000000 100.000000
vn 0.000000 0.000000 100.000000
vn 0.000000 0.000000 100.000000
vn 0.000000 0.000000 100.000000
vn 0.000000 0.000000 100.000000
vn 0.000000 0.000000 100.000000
vn 0.000000 0.000000 100.000000
vn 0.000000 0.000000 100.000000
vn 0.000000 0.000000 100.000000
vn 0.000000 0.000000 100.000000
vn 0.000000 0.000000 100.000000
vn 0.000000 0.000000 100.000000
vn 0.000000 0.000000 100.000000
vn 0.000000 0.000000 100.000000
vn 0.000000 0.000000 100.000000
vn 0.000000 0.000000 100.000000
vn 0.000000 0.000000 100.000000
vn 0.000000 0.000000 100.000000
vn 0.000000 0.000000 100.000000
vn 0.000000 0.000000 100.000000
vn 0.000000 0.000000 100.000000
vn 0.000000 0.000000 100.000000
vn 96.592583 25.881905 0.000000
vn 96.592583 25.881905 0.000000
vn 100.000000 0.000000 0.000000
vn 100.000000 0.000000 0.000000
vn 96.592583 -25.881905 0.000000
vn 96.592583 -25.881905 0.000000
vn 86.602540 -50.000000 0.000000
vn 86.602540 -50.000000 0.000000
vn 70.710678 -70.710678 0.000000
vn 70.710678 -70.710678 0.000000
vn 50.000000 -86.602540 0.000000
vn 50.000000 -86.602540 0.000000
vn 25.881905 -96.592583 0.000000
vn 25.881905 -96.592583 0.000000
vn -0.000000 -100.000000 0.000000
vn -0.000000 -100.000000 0.000000
vn -25.881905 -96.592583 0.000000
vn -25.881905 -96.592583 0.000000
vn -50.000000 -86.602540 0.000000
vn -50.000000 -86.602540 0.000000
vn -70.710678 -70.710678 0.000000
vn -70.710678 -70.710678 0.000000
vn -86.602540 -50.000000 0.000000
vn -86.602540 -50.000000 0.000000
vn -96.592583 -25.881905 0.000000
vn -96.592583 -25.881905 0.000000
vn -100.000000 0.000000 0.000000
vn -100.000000 0.000000 0.000000
vn -96.592583 25.881905 0.000000
vn -96.592583 25.881905 0.000000
vn -86.602540 50.000000 0.000000
vn -86.602540 50.000000 0.000000
vn -70.710678 70.710678 0.000000
vn -70.710678 70.710678 0.000000
vn -50.000000 86.602540 0.000000
vn -50.000000 86.602540 0.000000
vn -25.881905 96.592583 0.000000
vn -25.881905 96.592583 0.000000
vn -0.000000 100.000000 0.000000
vn -0.000000 100.000000 0.000000
vn 25.881905 96.592583 0.000000
vn 25.881905 96.592583 0.000000
vn 50.000000 86.602540 0.000000
vn 50.000000 86.602540 0.000000
vn 70.710678 70.710678 0.000000
vn 70.710678 70.710678 0.000000
vn 86.602540 50.000000 0.000000
vn 86.602540 50.000000 0.000000
vn 0.000000 -100.000000 0.000000
vn 0.000000 -100.000000 0.000000
vn 0.000000 -100.000000 0.000000
vn 0.000000 -100.000000 0.000000
vn 100.000000 0.000000 0.000000
vn 100.000000 0.000000 0.000000
vn 100.000000 0.000000 0.000000
vn 100.000000 0.000000 0.000000
vn 0.000000 -100.000000 0.000000
vn 0.000000 -100.000000 0.000000
vn 0.000000 -100.000000 0.000000
vn 0.000000 -100.000000 0.000000
vn 0.000000 -100.000000 0.000000
vn 0.000000 -100.000000 0.000000
vn 0.000000 -100.000000 0.000000
vn 0.000000 -100.000000 0.000000
vn 0.000000 -100.000000 0.000000
vn 0.000000 -100.000000 0.000000
vn 0.000000 -100.000000 0.000000
vn 0.000000 -100.000000 0.000000
vn 0.000000 -100.000000 0.000000
vn 0.000000 -100.000000 0.000000
vn 0.000000 -100.000000 0.000000
vn 0.000000 100.000000 0.000000
vn 0.000000 100.000000 0.000000
vn -25.881904 96.592583 -0.000000
vn -25.881904 96.592583 -0.000000
vn -49.999999 86.602541 -0.000000
vn -49.999999 86.602541 -0.000000
vn -70.710677 70.710679 -0.000000
vn -70.710677 70.710679 -0.000000
vn -86.602540 50.000001 -0.000000
vn -86.602540 50.000001 -0.000000
vn -96.592582 25.881906 -0.000000
vn -96.592582 25.881906 -0.000000
vn -100.000000 0.000002 -0.000000
vn -100.000000 0.000002 -0.000000
vn -96.592583 -25.881902 0.000000
vn -96.592583 -25.881902 0.000000
vn -86.602542 -49.999998 0.000000
vn -86.602542 -49.999998 0.000000
vn -70.710680 -70.710676 0.000000
vn -70.710680 -70.710676 0.000000
vn -50.000003 -86.602539 0.000000
vn -50.000003 -86.602539 0.000000
vn -25.881908 -96.592582 0.000000
vn -25.881908 -96.592582 0.000000
vn -0.000004 -100.000000 0.000000
vn -0.000004 -100.000000 0.000000
vn 0.000000 100.000000 0.000000
vn 0.000000 100.000000 0.000000
vn 0.000000 100.000000 0.000000
vn 0.000000 100.000000 0.000000
vn 0.000000 100.000000 0.000000
vn 0.000000 100.000000 0.000000
vn 100.000000 0.000000 0.000000
vn 100.000000 0.000000 0.000000
vn 100.000000 0.000000 0.000000
vn 100.000000 0.000000 0.000000
vn 0.000000 -100.000000 0.000000
vn 0.000000 -100.000000 0.000000
vn 0.000000 -100.000000 0.000000
vn 0.000000 -100.000000 0.000000
vn 0.000000 -100.000000 0.000000
vn 0.000000 -100.000000 0.000000
vn 0.000000 -100.000000 0.000000
vn 0.000000 -100.000000 0.000000
vn -100.000000 0.000000 0.000000
vn -100.000000 0.000000 0.000000
vn -100.000000 0.000000 0.000000
vn -100.000000 0.000000 0.000000
vn 0.000000 100.000000 0.000000
vn 0.000000 100.000000 0.000000
vn 0.000000 100.000000 0.000000
vn 0.000000 100.000000 0.000000
vn -0.000000 0.000000 -100.000000
vn -0.000000 0.000000 -100.000000
vn -0.000000 0.000000 -100.000000
vn -0.000000 0.000000 -100.000000
vn -0.000000 0.000000 -100.000000
vn -0.000000 0.000000 -100.000000
vn -0.000000 0.000000 -100.000000
vn -0.000000 0.000000 -100.000000
vn -0.000000 0.000000 -100.000000
vn -0.000000 0.000000 -100.000000
vn -0.000000 0.000000 -100.000000
vn -0.000000 0.000000 -100.000000
vn -0.000000 0.000000 -100.000000
vn -0.000000 0.000000 -100.000000
vn -0.000000 0.000000 -100.000000
vn -0.000000 0.000000 -100.000000
vn -0.000000 0.000000 -100.000000
vn -0.000000 0.000000 -100.000000
vn -0.000000 0.000000 -100.000000
vn -0.000000 0.000000 -100.000000
vn -0.000000 0.000000 -100.000000
vn -0.000000 0.000000 -100.000000
vn -0.000000 0.000000 -100.000000
vn -0.000000 0.000000 -100.000000
vn -0.000000 0.000000 -100.000000
vn -0.000000 0.000000 -100.000000
vn -0.000000 0.000000 -100.000000
vn -0.000000 0.000000 -100.000000
vn -0.000000 0.000000 -100.000000
vn -0.000000 0.000000 -100.000000
vn -0.000000 0.000000 -100.000000
vn -0.000000 0.000000 -100.000000
vn -0.000000 0.000000 -100.000000
vn -0.000000 0.000000 -100.000000
vn -0.000000 0.000000 -100.000000
vn -0.000000 0.000000 -100.000000
vn -0.000000 0.000000 -100.000000
vn -0.000000 0.000000 -100.000000
vn -0.000000 0.000000 -100.000000
vn -0.000000 0.000000 -100.000000
vn -0.000000 0.000000 -100.000000
vn -0.000000 0.000000 -100.000000
vn -0.000000 0.000000 -100.000000
vn -0.000000 0.000000 -100.000000
vn -0.000000 0.000000 -100.000000
vn -0.000000 0.000000 -100.000000
vn -0.000000 0.000000 -100.000000
usemtl Steel_-_Satin
f 1/1/1 2/2/2 4/3/3
f 4/3/3 2/2/2 3/4/4
f 5/5/5 1/6/6 6/7/7
f 6/7/7 1/6/6 4/8/8
f 7/9/9 6/10/10 3/11/11
f 3/11/11 6/10/10 4/12/12
f 7/13/13 3/14/14 12/15/15
f 12/15/15 3/14/14 11/16/16
f 11/16/16 3/14/14 9/17/17
f 11/16/16 9/17/17 10/18/18
f 2/19/19 8/20/20 3/14/14
f 3/14/14 8/20/20 9/17/17
f 48/21/21 13/22/22 71/23/23
f 71/23/23 13/22/22 14/24/24
f 71/23/23 14/24/24 70/25/25
f 70/25/25 14/24/24 15/26/26
f 70/25/25 15/26/26 69/27/27
f 69/27/27 15/26/26 16/28/28
f 69/27/27 16/28/28 68/29/29
f 68/29/29 16/28/28 17/30/30
f 68/29/29 17/30/30 67/31/31
f 67/31/31 17/30/30 18/32/32
f 67/31/31 18/32/32 66/33/33
f 66/33/33 18/32/32 19/34/34
f 66/33/33 19/34/34 65/35/35
f 65/35/35 19/34/34 20/36/36
f 65/35/35 20/36/36 21/37/37
f 65/35/35 21/37/37 64/38/38
f 64/38/38 21/37/37 22/39/39
f 64/38/38 22/39/39 63/40/40
f 63/40/40 22/39/39 23/41/41
f 63/40/40 23/41/41 24/42/42
f 63/40/40 24/42/42 62/43/43
f 62/43/43 24/42/42 25/44/44
f 62/43/43 25/44/44 26/45/45
f 62/43/43 26/45/45 61/46/46
f 61/46/46 26/45/45 27/47/47
f 61/46/46 27/47/47 28/48/48
f 61/46/46 28/48/48 60/49/49
f 60/49/49 28/48/48 29/50/50
f 60/49/49 29/50/50 30/51/51
f 60/49/49 30/51/51 59/52/52
f 59/52/52 30/51/51 31/53/53
f 59/52/52 31/53/53 58/54/54
f 58/54/54 31/53/53 32/55/55
f 58/54/54 32/55/55 33/56/56
f 58/54/54 33/56/56 57/57/57
f 57/57/57 33/56/56 34/58/58
f 57/57/57 34/58/58 56/59/59
f 56/59/59 34/58/58 35/60/60
f 56/59/59 35/60/60 55/61/61
f 55/61/61 35/60/60 36/62/62
f 55/61/61 36/62/62 54/63/63
f 54/63/63 36/62/62 37/64/64
f 54/63/63 37/64/64 53/65/65
f 53/65/65 37/64/64 38/66/66
f 53/65/65 38/66/66 52/67/67
f 52/67/67 38/66/66 39/68/68
f 52/67/67 39/68/68 51/69/69
f 51/69/69 39/68/68 40/70/70
f 51/69/69 40/70/70 41/71/71
f 51/69/69 41/71/71 50/72/72
f 50/72/72 41/71/71 42/73/73
f 50/72/72 42/73/73 43/74/74
f 50/72/72 43/74/74 49/75/75
f 49/75/75 43/74/74 44/76/76
f 49/77/75 44/78/76 45/79/77
f 45/79/77 46/80/78 49/77/75
f 49/77/75 46/80/78 72/81/79
f 72/81/79 46/80/78 47/82/80
f 72/81/79 47/82/80 48/21/21
f 72/81/79 48/21/21 71/23/23
f 74/83/81 92/84/82 73/85/83
f 73/85/83 92/84/82 93/86/84
f 73/85/83 93/86/84 91/87/85
f 91/87/85 93/86/84 94/88/86
f 91/87/85 94/88/86 95/89/87
f 95/89/87 94/88/86 123/90/88
f 95/89/87 123/90/88 122/91/89
f 122/91/89 123/90/88 115/92/90
f 122/91/89 115/92/90 114/93/91
f 114/93/91 115/92/90 107/94/92
f 114/93/91 107/94/92 106/95/93
f 106/95/93 107/94/92 99/96/94
f 106/95/93 99/96/94 80/97/95
f 80/97/95 99/96/94 79/98/96
f 79/98/96 99/96/94 78/99/97
f 78/99/97 99/96/94 100/100/98
f 78/99/97 100/100/98 101/101/99
f 101/101/99 100/100/98 108/102/100
f 101/101/99 108/102/100 109/103/101
f 109/103/101 108/102/100 116/104/102
f 109/103/101 116/104/102 117/105/103
f 117/105/103 116/104/102 124/106/104
f 117/105/103 124/106/104 125/107/105
f 125/107/105 124/106/104 93/86/84
f 125/107/105 93/86/84 92/84/82
f 74/108/81 75/109/106 105/110/107
f 105/110/107 75/109/106 76/111/108
f 105/110/107 76/111/108 104/112/109
f 104/112/109 76/111/108 103/113/110
f 104/112/109 103/113/110 111/114/111
f 111/114/111 103/113/110 110/115/112
f 111/114/111 110/115/112 118/116/113
f 118/116/113 110/115/112 117/105/103
f 118/116/113 117/105/103 125/107/105
f 76/111/108 77/117/114 103/113/110
f 103/113/110 77/117/114 102/118/115
f 103/113/110 102/118/115 110/115/112
f 110/115/112 102/118/115 109/103/101
f 110/115/112 109/103/101 117/105/103
f 102/118/115 77/117/114 101/101/99
f 101/101/99 77/117/114 78/99/97
f 80/97/95 81/119/116 106/95/93
f 106/95/93 81/119/116 113/120/117
f 106/95/93 113/120/117 114/93/91
f 114/93/91 113/120/117 121/121/118
f 114/93/91 121/121/118 122/91/89
f 122/91/89 121/121/118 96/122/119
f 122/91/89 96/122/119 95/89/87
f 95/89/87 96/122/119 90/123/120
f 95/89/87 90/123/120 91/87/85
f 81/119/116 82/124/121 113/120/117
f 113/120/117 82/124/121 120/125/122
f 113/120/117 120/125/122 121/121/118
f 121/121/118 120/125/122 97/126/123
f 121/121/118 97/126/123 96/122/119
f 96/122/119 97/126/123 90/123/120
f 82/124/121 83/127/124 120/125/122
f 120/125/122 83/127/124 98/128/125
f 120/125/122 98/128/125 97/126/123
f 97/126/123 98/128/125 89/129/126
f 97/126/123 89/129/126 90/123/120
f 83/127/124 84/130/127 98/128/125
f 98/128/125 84/130/127 85/131/128
f 98/128/125 85/131/128 89/129/126
f 89/129/126 85/131/128 86/132/129
f 89/129/126 86/132/129 88/133/130
f 88/133/130 86/132/129 87/134/131
f 92/84/82 74/135/81 126/136/132
f 126/136/132 74/137/81 119/138/133
f 119/138/133 74/139/81 112/140/134
f 112/140/134 74/141/81 105/110/107
f 125/107/105 92/84/82 126/136/132
f 123/90/88 94/88/86 124/106/104
f 124/106/104 94/88/86 93/86/84
f 108/102/100 100/100/98 107/94/92
f 107/94/92 100/100/98 99/96/94
f 109/103/101 102/118/115 101/101/99
f 112/140/134 105/110/107 104/112/109
f 112/140/134 104/112/109 111/114/111
f 116/104/102 108/102/100 115/92/90
f 115/92/90 108/102/100 107/94/92
f 119/138/133 112/140/134 111/114/111
f 119/138/133 111/114/111 118/116/113
f 124/106/104 116/104/102 123/90/88
f 123/90/88 116/104/102 115/92/90
f 126/136/132 119/138/133 118/116/113
f 126/136/132 118/116/113 125/107/105
f 48/142/135 150/143/136 13/144/137
f 13/144/137 150/143/136 152/145/138
f 13/144/137 152/145/138 14/146/139
f 14/146/139 152/145/138 163/147/140
f 14/146/139 163/147/140 15/148/141
f 15/148/141 163/147/140 16/149/142
f 16/149/142 163/147/140 189/150/143
f 16/149/142 189/150/143 17/151/144
f 17/151/144 189/150/143 183/152/145
f 17/151/144 183/152/145 18/153/146
f 18/153/146 183/152/145 177/154/147
f 18/153/146 177/154/147 19/155/148
f 19/155/148 177/154/147 20/156/149
f 20/156/149 177/154/147 174/157/150
f 20/156/149 174/157/150 21/158/151
f 21/158/151 174/157/150 175/159/152
f 21/158/151 175/159/152 22/160/153
f 22/160/153 175/159/152 205/161/154
f 22/160/153 205/161/154 23/162/155
f 23/162/155 205/161/154 197/163/156
f 23/162/155 197/163/156 24/164/157
f 24/164/157 197/163/156 176/165/158
f 24/164/157 176/165/158 25/166/159
f 25/166/159 176/165/158 231/167/160
f 25/166/159 231/167/160 26/168/161
f 26/168/161 231/167/160 176/165/158
f 26/168/161 176/165/158 27/169/162
f 27/169/162 176/165/158 166/170/163
f 27/169/162 166/170/163 28/171/164
f 28/171/164 166/170/163 167/172/165
f 28/171/164 167/172/165 29/173/166
f 29/173/166 167/172/165 168/174/167
f 29/173/166 168/174/167 30/175/168
f 30/175/168 168/174/167 167/172/165
f 30/175/168 167/172/165 146/176/169
f 146/176/169 167/172/165 166/170/163
f 146/176/169 166/170/163 195/177/170
f 195/177/170 166/170/163 196/178/171
f 195/177/170 196/178/171 134/179/172
f 134/179/172 196/178/171 133/180/173
f 133/180/173 196/178/171 197/163/156
f 133/180/173 197/163/156 132/181/174
f 132/181/174 197/163/156 198/182/175
f 132/181/174 198/182/175 131/183/176
f 131/183/176 198/182/175 199/184/177
f 131/183/176 199/184/177 130/185/178
f 130/185/178 199/184/177 200/186/179
f 130/185/178 200/186/179 129/187/180
f 129/187/180 200/186/179 201/188/181
f 129/187/180 201/188/181 202/189/182
f 202/189/182 201/188/181 209/190/183
f 202/189/182 209/190/183 210/191/184
f 210/191/184 209/190/183 170/192/185
f 210/191/184 170/192/185 145/193/186
f 145/193/186 170/192/185 182/194/187
f 145/193/186 182/194/187 142/195/188
f 142/195/188 182/194/187 188/196/189
f 142/195/188 188/196/189 141/197/190
f 141/197/190 188/196/189 194/198/191
f 141/197/190 194/198/191 140/199/192
f 140/199/192 194/198/191 158/200/193
f 140/199/192 158/200/193 139/201/194
f 139/201/194 158/200/193 157/202/195
f 139/201/194 157/202/195 138/203/196
f 138/203/196 157/202/195 220/204/197
f 138/203/196 220/204/197 137/205/198
f 137/205/198 220/204/197 230/206/199
f 137/205/198 230/206/199 136/207/200
f 136/207/200 230/206/199 229/208/201
f 136/207/200 229/208/201 228/209/202
f 228/209/202 229/208/201 218/210/203
f 228/209/202 218/210/203 217/211/204
f 217/211/204 218/210/203 154/212/205
f 217/211/204 154/212/205 153/213/206
f 153/213/206 154/212/205 162/214/207
f 153/213/206 162/214/207 163/147/140
f 163/147/140 162/214/207 189/150/143
f 48/142/135 47/215/208 150/143/136
f 150/143/136 47/215/208 46/216/209
f 150/143/136 46/216/209 45/217/210
f 44/218/211 149/219/212 45/217/210
f 45/217/210 149/219/212 151/220/213
f 45/217/210 151/220/213 150/143/136
f 150/143/136 151/220/213 215/221/214
f 150/143/136 215/221/214 152/145/138
f 152/145/138 215/221/214 216/222/215
f 152/145/138 216/222/215 153/213/206
f 153/213/206 216/222/215 217/211/204
f 44/218/211 43/223/216 149/219/212
f 149/219/212 43/223/216 42/224/217
f 149/219/212 42/224/217 41/225/218
f 41/225/218 40/226/219 149/219/212
f 149/219/212 40/226/219 148/227/220
f 149/219/212 148/227/220 214/228/221
f 214/228/221 148/227/220 213/229/222
f 214/228/221 213/229/222 223/230/223
f 223/230/223 213/229/222 222/231/224
f 223/230/223 222/231/224 135/232/225
f 135/232/225 222/231/224 79/233/226
f 79/233/226 222/231/224 221/234/227
f 79/233/226 221/234/227 80/235/228
f 80/235/228 221/234/227 81/236/229
f 81/236/229 221/234/227 212/237/230
f 81/236/229 212/237/230 82/238/231
f 82/238/231 212/237/230 147/239/232
f 82/238/231 147/239/232 83/240/233
f 83/240/233 147/239/232 164/241/234
f 83/240/233 164/241/234 36/242/235
f 36/242/235 164/241/234 37/243/236
f 37/243/236 164/241/234 38/244/237
f 38/244/237 164/241/234 147/239/232
f 38/244/237 147/239/232 39/245/238
f 39/245/238 147/239/232 148/227/220
f 39/245/238 148/227/220 40/226/219
f 83/240/233 36/242/235 84/246/239
f 84/246/239 36/242/235 35/247/240
f 84/246/239 35/247/240 34/248/241
f 84/246/239 34/248/241 85/249/242
f 85/249/242 34/248/241 33/250/243
f 85/249/242 33/250/243 165/251/244
f 165/251/244 33/250/243 32/252/245
f 165/251/244 32/252/245 169/253/246
f 169/253/246 32/252/245 31/254/247
f 169/253/246 31/254/247 144/255/248
f 144/255/248 31/254/247 30/175/168
f 144/255/248 30/175/168 146/176/169
f 127/256/249 128/257/250 143/258/251
f 143/258/251 128/257/250 204/259/252
f 143/258/251 204/259/252 211/260/253
f 211/260/253 204/259/252 203/261/254
f 211/260/253 203/261/254 210/191/184
f 210/191/184 203/261/254 202/189/182
f 129/187/180 202/189/182 128/257/250
f 128/257/250 202/189/182 203/261/254
f 128/257/250 203/261/254 204/259/252
f 134/179/172 87/262/131 195/177/170
f 195/177/170 87/262/131 86/263/255
f 195/177/170 86/263/255 146/176/169
f 146/176/169 86/263/255 85/249/242
f 146/176/169 85/249/242 144/255/248
f 144/255/248 85/249/242 169/253/246
f 136/207/200 226/264/256 135/232/225
f 135/232/225 226/264/256 225/265/257
f 135/232/225 225/265/257 224/266/258
f 224/266/258 225/265/257 151/220/213
f 224/266/258 151/220/213 214/228/221
f 214/228/221 151/220/213 149/219/212
f 142/195/188 143/258/251 145/193/186
f 145/193/186 143/258/251 211/260/253
f 145/193/186 211/260/253 210/191/184
f 165/251/244 169/253/246 85/249/242
f 213/229/222 148/227/220 147/239/232
f 213/229/222 147/239/232 212/237/230
f 152/145/138 153/213/206 163/147/140
f 154/212/205 155/267/259 161/268/260
f 161/268/260 155/267/259 160/269/261
f 161/268/260 160/269/261 191/270/262
f 191/270/262 160/269/261 192/271/263
f 191/270/262 192/271/263 185/272/264
f 185/272/264 192/271/263 186/273/265
f 185/272/264 186/273/265 179/274/266
f 179/274/266 186/273/265 180/275/267
f 179/274/266 180/275/267 172/276/268
f 172/276/268 180/275/267 171/277/269
f 172/276/268 171/277/269 208/278/270
f 208/278/270 171/277/269 209/190/183
f 208/278/270 209/190/183 201/188/181
f 155/267/259 156/279/271 160/269/261
f 160/269/261 156/279/271 159/280/272
f 160/269/261 159/280/272 192/271/263
f 192/271/263 159/280/272 193/281/273
f 192/271/263 193/281/273 186/273/265
f 186/273/265 193/281/273 187/282/274
f 186/273/265 187/282/274 180/275/267
f 180/275/267 187/282/274 181/283/275
f 180/275/267 181/283/275 171/277/269
f 171/277/269 181/283/275 170/192/185
f 171/277/269 170/192/185 209/190/183
f 154/212/205 218/210/203 155/267/259
f 155/267/259 218/210/203 219/284/276
f 155/267/259 219/284/276 156/279/271
f 156/279/271 219/284/276 220/204/197
f 156/279/271 220/204/197 157/202/195
f 156/279/271 157/202/195 159/280/272
f 159/280/272 157/202/195 158/200/193
f 159/280/272 158/200/193 193/281/273
f 193/281/273 158/200/193 194/198/191
f 193/281/273 194/198/191 187/282/274
f 187/282/274 194/198/191 188/196/189
f 187/282/274 188/196/189 181/283/275
f 181/283/275 188/196/189 182/194/187
f 181/283/275 182/194/187 170/192/185
f 154/212/205 161/268/260 162/214/207
f 162/214/207 161/268/260 190/285/277
f 162/214/207 190/285/277 189/150/143
f 189/150/143 190/285/277 183/152/145
f 190/285/277 161/268/260 191/270/262
f 172/276/268 173/286/278 179/274/266
f 179/274/266 173/286/278 178/287/279
f 179/274/266 178/287/279 185/272/264
f 185/272/264 178/287/279 184/288/280
f 185/272/264 184/288/280 191/270/262
f 191/270/262 184/288/280 190/285/277
f 173/286/278 174/157/150 178/287/279
f 178/287/279 174/157/150 177/154/147
f 178/287/279 177/154/147 184/288/280
f 184/288/280 177/154/147 183/152/145
f 184/288/280 183/152/145 190/285/277
f 173/286/278 172/276/268 207/289/281
f 207/289/281 172/276/268 208/278/270
f 207/289/281 208/278/270 200/186/179
f 200/186/179 208/278/270 201/188/181
f 205/161/154 175/159/152 174/157/150
f 174/157/150 173/286/278 206/290/282
f 206/290/282 173/286/278 207/289/281
f 206/290/282 207/289/281 199/184/177
f 199/184/177 207/289/281 200/186/179
f 196/178/171 166/170/163 176/165/158
f 196/178/171 176/165/158 197/163/156
f 206/290/282 199/184/177 198/182/175
f 206/290/282 198/182/175 205/161/154
f 205/161/154 198/182/175 197/163/156
f 174/157/150 206/290/282 205/161/154
f 222/231/224 213/229/222 212/237/230
f 222/231/224 212/237/230 221/234/227
f 224/266/258 214/228/221 223/230/223
f 151/220/213 225/265/257 215/221/214
f 215/221/214 225/265/257 226/264/256
f 215/221/214 226/264/256 216/222/215
f 216/222/215 226/264/256 227/291/283
f 216/222/215 227/291/283 217/211/204
f 217/211/204 227/291/283 228/209/202
f 230/206/199 220/204/197 219/284/276
f 230/206/199 219/284/276 229/208/201
f 229/208/201 219/284/276 218/210/203
f 135/232/225 224/266/258 223/230/223
f 136/207/200 228/209/202 227/291/283
f 227/291/283 226/264/256 136/207/200
f 136/292/284 135/293/285 237/294/286
f 237/294/286 135/293/285 236/295/287
f 236/295/287 135/293/285 79/296/288
f 236/295/287 79/296/288 234/297/289
f 234/297/289 79/296/288 233/298/290
f 233/298/290 79/296/288 78/299/291
f 233/298/290 78/299/291 77/300/292
f 77/300/292 76/301/293 233/298/290
f 233/298/290 76/301/293 75/302/294
f 233/298/290 75/302/294 74/303/295
f 74/303/295 232/304/296 233/298/290
f 234/297/289 235/305/297 236/295/287
f 73/306/83 91/307/298 250/308/299
f 250/308/299 91/307/298 249/309/300
f 249/309/300 91/307/298 90/310/301
f 249/309/300 90/310/301 248/311/302
f 248/311/302 90/310/301 89/312/303
f 248/311/302 89/312/303 247/313/304
f 247/313/304 89/312/303 88/314/305
f 247/313/304 88/314/305 246/315/306
f 246/315/306 88/314/305 87/316/307
f 246/315/306 87/316/307 245/317/308
f 245/317/308 87/316/307 134/318/309
f 245/317/308 134/318/309 244/319/310
f 244/319/310 134/318/309 133/320/311
f 244/319/310 133/320/311 243/321/312
f 243/321/312 133/320/311 132/322/313
f 243/321/312 132/322/313 242/323/314
f 242/323/314 132/322/313 131/324/315
f 242/323/314 131/324/315 241/325/316
f 241/325/316 131/324/315 130/326/317
f 241/325/316 130/326/317 240/327/318
f 240/327/318 130/326/317 129/328/319
f 240/327/318 129/328/319 239/329/320
f 239/329/320 129/328/319 128/330/321
f 239/329/320 128/330/321 238/331/322
f 238/331/322 128/330/321 127/332/323
f 74/333/81 73/334/83 232/335/324
f 232/335/324 73/334/83 250/336/299
f 72/337/325 253/338/326 49/339/327
f 49/339/327 253/338/326 232/340/328
f 49/339/327 232/340/328 50/341/329
f 50/341/329 232/340/328 51/342/330
f 51/342/330 232/340/328 52/343/331
f 52/343/331 232/340/328 53/344/332
f 53/344/332 232/340/328 250/345/333
f 53/344/332 250/345/333 54/346/334
f 54/346/334 250/345/333 55/347/335
f 55/347/335 250/345/333 249/348/336
f 55/347/335 249/348/336 248/349/337
f 72/337/325 71/350/338 253/338/326
f 253/338/326 71/350/338 70/351/339
f 253/338/326 70/351/339 69/352/340
f 253/338/326 69/352/340 238/353/341
f 238/353/341 69/352/340 68/354/342
f 238/353/341 68/354/342 67/355/343
f 66/356/344 240/357/345 67/355/343
f 67/355/343 240/357/345 239/358/346
f 67/355/343 239/358/346 238/353/341
f 240/357/345 66/356/344 241/359/347
f 241/359/347 66/356/344 65/360/348
f 241/359/347 65/360/348 242/361/349
f 242/361/349 65/360/348 64/362/350
f 242/361/349 64/362/350 63/363/351
f 242/361/349 63/363/351 243/364/352
f 243/364/352 63/363/351 62/365/353
f 243/364/352 62/365/353 244/366/354
f 244/366/354 62/365/353 61/367/355
f 244/366/354 61/367/355 60/368/356
f 244/366/354 60/368/356 245/369/357
f 245/369/357 60/368/356 59/370/358
f 245/369/357 59/370/358 246/371/359
f 246/371/359 59/370/358 58/372/360
f 246/371/359 58/372/360 57/373/361
f 246/371/359 57/373/361 247/374/362
f 247/374/362 57/373/361 56/375/363
f 247/374/362 56/375/363 248/349/337
f 248/349/337 56/375/363 55/347/335
f 2/376/364 251/377/365 8/378/366
f 8/378/366 251/377/365 252/379/367
f 8/378/366 252/379/367 233/380/368
f 1/381/369 5/382/370 2/376/364
f 2/376/364 5/382/370 251/377/365
f 8/378/366 233/380/368 254/383/371
f 254/383/371 233/380/368 232/340/328
f 254/383/371 232/340/328 253/338/326
f 11/384/372 255/385/373 12/386/374
f 12/386/374 255/385/373 256/387/375
f 236/388/376 282/389/377 237/390/378
f 237/390/378 282/389/377 283/391/379
f 237/390/378 283/391/379 284/392/380
f 257/393/381 278/394/382 236/388/376
f 236/388/376 278/394/382 279/395/383
f 236/388/376 279/395/383 280/396/384
f 258/397/385 276/398/386 257/393/381
f 257/393/381 276/398/386 277/399/387
f 257/393/381 277/399/387 278/394/382
f 276/398/386 258/397/385 275/400/388
f 275/400/388 258/397/385 259/401/389
f 275/400/388 259/401/389 274/402/390
f 274/402/390 259/401/389 260/403/391
f 274/402/390 260/403/391 273/404/392
f 273/404/392 260/403/391 261/405/393
f 273/404/392 261/405/393 272/406/394
f 272/406/394 261/405/393 262/407/395
f 272/406/394 262/407/395 271/408/396
f 271/408/396 262/407/395 263/409/397
f 271/408/396 263/409/397 270/410/398
f 270/410/398 263/409/397 293/411/399
f 293/411/399 263/409/397 264/412/400
f 293/411/399 264/412/400 292/413/401
f 292/413/401 264/412/400 265/414/402
f 292/413/401 265/414/402 291/415/403
f 291/415/403 265/414/402 266/416/404
f 291/415/403 266/416/404 290/417/405
f 290/417/405 266/416/404 267/418/406
f 290/417/405 267/418/406 289/419/407
f 289/419/407 267/418/406 268/420/408
f 289/419/407 268/420/408 288/421/409
f 288/421/409 268/420/408 269/422/410
f 288/421/409 269/422/410 287/423/411
f 287/423/411 269/422/410 286/424/412
f 286/424/412 269/422/410 237/390/378
f 286/424/412 237/390/378 285/425/413
f 285/425/413 237/390/378 284/392/380
f 280/396/384 281/426/414 236/388/376
f 236/388/376 281/426/414 282/389/377
f 293/427/415 317/428/416 270/429/417
f 270/429/417 317/428/416 294/430/418
f 270/431/417 294/432/418 271/433/419
f 271/433/419 294/432/418 295/434/420
f 271/433/419 295/434/420 272/435/421
f 272/435/421 295/434/420 296/436/422
f 272/435/421 296/436/422 273/437/423
f 273/437/423 296/436/422 297/438/424
f 273/437/423 297/438/424 274/439/425
f 274/439/425 297/438/424 298/440/426
f 274/439/425 298/440/426 275/441/427
f 275/441/427 298/440/426 299/442/428
f 275/441/427 299/442/428 276/443/429
f 276/443/429 299/442/428 300/444/430
f 276/443/429 300/444/430 277/445/431
f 277/445/431 300/444/430 301/446/432
f 277/445/431 301/446/432 278/447/433
f 278/447/433 301/446/432 302/448/434
f 278/447/433 302/448/434 279/449/435
f 279/449/435 302/448/434 303/450/436
f 279/449/435 303/450/436 280/451/437
f 280/451/437 303/450/436 304/452/438
f 280/451/437 304/452/438 281/453/439
f 281/453/439 304/452/438 305/454/440
f 281/453/439 305/454/440 282/455/441
f 282/455/441 305/454/440 306/456/442
f 282/455/441 306/456/442 283/457/443
f 283/457/443 306/456/442 307/458/444
f 283/457/443 307/458/444 284/459/445
f 284/459/445 307/458/444 308/460/446
f 284/459/445 308/460/446 285/461/447
f 285/461/447 308/460/446 309/462/448
f 285/461/447 309/462/448 286/463/449
f 286/463/449 309/462/448 310/464/450
f 286/463/449 310/464/450 287/465/451
f 287/465/451 310/464/450 311/466/452
f 287/465/451 311/466/452 288/467/453
f 288/467/453 311/466/452 312/468/454
f 288/467/453 312/468/454 289/469/455
f 289/469/455 312/468/454 313/470/456
f 289/469/455 313/470/456 290/471/457
f 290/471/457 313/470/456 314/472/458
f 290/471/457 314/472/458 291/473/459
f 291/473/459 314/472/458 315/474/460
f 291/473/459 315/474/460 292/475/461
f 292/475/461 315/474/460 316/476/462
f 292/475/461 316/476/462 293/427/415
f 293/427/415 316/476/462 317/428/416
f 318/477/463 9/478/464 254/479/465
f 254/479/465 9/478/464 8/480/466
f 319/481/467 318/482/468 253/483/469
f 253/483/469 318/482/468 254/484/470
f 269/485/471 320/486/472 237/487/473
f 237/487/473 320/486/472 319/488/474
f 237/487/473 319/488/474 136/489/475
f 136/489/475 319/488/474 253/490/476
f 136/489/475 253/490/476 137/491/477
f 137/491/477 253/490/476 138/492/478
f 138/492/478 253/490/476 139/493/479
f 139/493/479 253/490/476 140/494/480
f 140/494/480 253/490/476 238/495/481
f 140/494/480 238/495/481 141/496/482
f 141/496/482 238/495/481 142/497/483
f 142/497/483 238/495/481 143/498/484
f 143/498/484 238/495/481 127/499/485
f 257/500/486 321/501/487 258/502/488
f 258/502/488 321/501/487 322/503/489
f 258/502/488 322/503/489 259/504/490
f 259/504/490 322/503/489 323/505/491
f 259/504/490 323/505/491 260/506/492
f 260/506/492 323/505/491 324/507/493
f 260/506/492 324/507/493 261/508/494
f 261/508/494 324/507/493 325/509/495
f 261/508/494 325/509/495 262/510/496
f 262/510/496 325/509/495 326/511/497
f 262/510/496 326/511/497 263/512/498
f 263/512/498 326/511/497 327/513/499
f 263/512/498 327/513/499 264/514/500
f 264/514/500 327/513/499 328/515/501
f 264/514/500 328/515/501 265/516/502
f 265/516/502 328/515/501 329/517/503
f 265/516/502 329/517/503 266/518/504
f 266/518/504 329/517/503 330/519/505
f 266/518/504 330/519/505 267/520/506
f 267/520/506 330/519/505 331/521/507
f 267/520/506 331/521/507 268/522/508
f 268/522/508 331/521/507 332/523/509
f 268/522/508 332/523/509 269/524/510
f 269/524/510 332/523/509 320/525/511
f 235/526/512 321/527/487 236/528/513
f 236/528/513 321/527/487 257/529/486
f 333/530/514 234/531/515 252/532/516
f 252/532/516 234/531/515 233/533/517
f 334/534/518 333/535/519 251/536/520
f 251/536/520 333/535/519 252/537/521
f 256/538/522 335/539/523 12/540/524
f 12/540/524 335/539/523 334/541/525
f 12/540/524 334/541/525 7/542/526
f 7/542/526 334/541/525 251/543/527
f 7/542/526 251/543/527 5/544/528
f 5/544/528 6/545/529 7/542/526
f 336/546/530 335/547/531 255/548/532
f 255/548/532 335/547/531 256/549/533
f 10/550/534 336/551/535 11/552/536
f 11/552/536 336/551/535 255/553/537
f 295/554/538 294/555/539 327/556/540
f 327/556/540 294/555/539 317/557/541
f 327/556/540 317/557/541 328/558/542
f 328/558/542 317/557/541 316/559/543
f 328/558/542 316/559/543 329/560/544
f 329/560/544 316/559/543 315/561/545
f 329/560/544 315/561/545 314/562/546
f 329/560/544 314/562/546 330/563/547
f 330/563/547 314/562/546 313/564/548
f 330/563/547 313/564/548 331/565/549
f 331/565/549 313/564/548 312/566/550
f 331/565/549 312/566/550 332/567/551
f 332/567/551 312/566/550 320/568/552
f 320/568/552 312/566/550 311/569/553
f 320/568/552 311/569/553 310/570/554
f 320/568/552 310/570/554 319/571/555
f 319/571/555 310/570/554 309/572/556
f 319/571/555 309/572/556 308/573/557
f 308/573/557 307/574/558 319/571/555
f 319/571/555 307/574/558 306/575/559
f 319/571/555 306/575/559 235/576/560
f 235/576/560 306/575/559 305/577/561
f 235/576/560 305/577/561 304/578/562
f 304/578/562 303/579/563 235/576/560
f 235/576/560 303/579/563 302/580/564
f 235/576/560 302/580/564 321/581/565
f 321/581/565 302/580/564 301/582/566
f 321/581/565 301/582/566 300/583/567
f 299/584/568 323/585/569 300/583/567
f 300/583/567 323/585/569 322/586/570
f 300/583/567 322/586/570 321/581/565
f 323/585/569 299/584/568 324/587/571
f 324/587/571 299/584/568 298/588/572
f 324/587/571 298/588/572 325/589/573
f 325/589/573 298/588/572 297/590/574
f 325/589/573 297/590/574 296/591/575
f 325/589/573 296/591/575 326/592/576
f 326/592/576 296/591/575 295/554/538
f 326/592/576 295/554/538 327/556/540
f 9/593/577 334/594/578 10/595/579
f 10/595/579 334/594/578 335/596/580
f 10/595/579 335/596/580 336/597/581
f 334/594/578 9/593/577 333/598/582
f 333/598/582 9/593/577 318/599/583
f 333/598/582 318/599/583 234/600/584
f 234/600/584 318/599/583 235/576/560
f 235/576/560 318/599/583 319/571/555
# 336 vertices
# 600 texture params
# 584 normals
# 676 facets

# 1 groups
