# WaveFront *.obj file (generated by Autodesk ATF)

mtllib body.mtl

g Body3

v -0.061013 -0.040191 0.005000
v -0.060958 -0.040605 0.005000
v -0.060798 -0.040991 0.005000
v -0.060544 -0.041322 0.005000
v -0.060213 -0.041577 0.005000
v -0.059827 -0.041736 0.005000
v -0.059413 -0.041791 0.005000
v -0.058999 -0.041736 0.005000
v -0.058613 -0.041577 0.005000
v -0.058281 -0.041322 0.005000
v -0.058027 -0.040991 0.005000
v -0.057867 -0.040605 0.005000
v -0.057813 -0.040191 0.005000
v -0.057867 -0.039777 0.005000
v -0.058027 -0.039391 0.005000
v -0.058281 -0.039060 0.005000
v -0.058613 -0.038805 0.005000
v -0.058999 -0.038646 0.005000
v -0.059413 -0.038591 0.005000
v -0.059827 -0.038646 0.005000
v -0.060213 -0.038805 0.005000
v -0.060544 -0.039060 0.005000
v -0.060798 -0.039391 0.005000
v -0.060958 -0.039777 0.005000
v -0.061013 -0.040191 0.000000
v -0.060958 -0.039777 0.000000
v -0.060798 -0.039391 0.000000
v -0.060544 -0.039060 0.000000
v -0.060213 -0.038805 0.000000
v -0.059827 -0.038646 0.000000
v -0.059413 -0.038591 0.000000
v -0.058999 -0.038646 0.000000
v -0.058613 -0.038805 0.000000
v -0.058281 -0.039060 0.000000
v -0.058027 -0.039391 0.000000
v -0.057867 -0.039777 0.000000
v -0.057813 -0.040191 0.000000
v -0.057867 -0.040605 0.000000
v -0.058027 -0.040991 0.000000
v -0.058281 -0.041322 0.000000
v -0.058613 -0.041577 0.000000
v -0.058999 -0.041736 0.000000
v -0.059413 -0.041791 0.000000
v -0.059827 -0.041736 0.000000
v -0.060213 -0.041577 0.000000
v -0.060544 -0.041322 0.000000
v -0.060798 -0.040991 0.000000
v -0.060958 -0.040605 0.000000
v -0.030000 -0.000000 0.005000
v -0.029892 -0.002544 0.005000
v -0.029568 -0.005070 0.005000
v -0.029032 -0.007559 0.005000
v -0.028286 -0.009994 0.005000
v -0.027337 -0.012357 0.005000
v -0.026190 -0.014631 0.005000
v -0.024855 -0.016799 0.005000
v -0.023341 -0.018847 0.005000
v -0.021659 -0.020758 0.005000
v -0.019820 -0.022520 0.005000
v -0.017839 -0.024120 0.005000
v -0.015729 -0.025546 0.005000
v -0.013506 -0.026788 0.005000
v -0.011186 -0.027837 0.005000
v -0.008785 -0.028685 0.005000
v -0.006320 -0.029327 0.005000
v -0.003811 -0.029757 0.005000
v -0.001273 -0.029973 0.005000
v 0.001273 -0.029973 0.005000
v 0.003811 -0.029757 0.005000
v 0.006320 -0.029327 0.005000
v 0.008785 -0.028685 0.005000
v 0.011186 -0.027837 0.005000
v 0.013506 -0.026788 0.005000
v 0.015729 -0.025546 0.005000
v 0.017839 -0.024120 0.005000
v 0.019820 -0.022520 0.005000
v 0.021659 -0.020758 0.005000
v 0.023341 -0.018847 0.005000
v 0.024855 -0.016799 0.005000
v 0.026190 -0.014631 0.005000
v 0.027337 -0.012357 0.005000
v 0.028286 -0.009994 0.005000
v 0.029032 -0.007559 0.005000
v 0.029568 -0.005070 0.005000
v 0.029892 -0.002544 0.005000
v 0.030000 0.000000 0.005000
v 0.029892 0.002544 0.005000
v 0.029568 0.005070 0.005000
v 0.029032 0.007559 0.005000
v 0.028286 0.009994 0.005000
v 0.027337 0.012357 0.005000
v 0.026190 0.014631 0.005000
v 0.024855 0.016799 0.005000
v 0.023341 0.018847 0.005000
v 0.021659 0.020758 0.005000
v 0.019820 0.022520 0.005000
v 0.017839 0.024120 0.005000
v 0.015729 0.025546 0.005000
v 0.013506 0.026788 0.005000
v 0.011186 0.027837 0.005000
v 0.008785 0.028685 0.005000
v 0.006320 0.029327 0.005000
v 0.003811 0.029757 0.005000
v 0.001273 0.029973 0.005000
v -0.001273 0.029973 0.005000
v -0.003811 0.029757 0.005000
v -0.006320 0.029327 0.005000
v -0.008785 0.028685 0.005000
v -0.011186 0.027837 0.005000
v -0.013506 0.026788 0.005000
v -0.015729 0.025546 0.005000
v -0.017839 0.024120 0.005000
v -0.019820 0.022520 0.005000
v -0.021659 0.020758 0.005000
v -0.023341 0.018847 0.005000
v -0.024855 0.016799 0.005000
v -0.026190 0.014631 0.005000
v -0.027337 0.012357 0.005000
v -0.028286 0.009994 0.005000
v -0.029032 0.007559 0.005000
v -0.029568 0.005070 0.005000
v -0.029892 0.002544 0.005000
v -0.030000 -0.000000 0.000000
v -0.029892 0.002544 0.000000
v -0.029568 0.005070 0.000000
v -0.029032 0.007559 0.000000
v -0.028286 0.009994 0.000000
v -0.027337 0.012357 0.000000
v -0.026190 0.014631 0.000000
v -0.024855 0.016799 0.000000
v -0.023341 0.018847 0.000000
v -0.021659 0.020758 0.000000
v -0.019820 0.022520 0.000000
v -0.017839 0.024120 0.000000
v -0.015729 0.025546 0.000000
v -0.013506 0.026788 0.000000
v -0.011186 0.027837 0.000000
v -0.008785 0.028685 0.000000
v -0.006320 0.029327 0.000000
v -0.003811 0.029757 0.000000
v -0.001273 0.029973 0.000000
v 0.001273 0.029973 0.000000
v 0.003811 0.029757 0.000000
v 0.006320 0.029327 0.000000
v 0.008785 0.028685 0.000000
v 0.011186 0.027837 0.000000
v 0.013506 0.026788 0.000000
v 0.015729 0.025546 0.000000
v 0.017839 0.024120 0.000000
v 0.019820 0.022520 0.000000
v 0.021659 0.020758 0.000000
v 0.023341 0.018847 0.000000
v 0.024855 0.016799 0.000000
v 0.026190 0.014631 0.000000
v 0.027337 0.012357 0.000000
v 0.028286 0.009994 0.000000
v 0.029032 0.007559 0.000000
v 0.029568 0.005070 0.000000
v 0.029892 0.002544 0.000000
v 0.030000 0.000000 0.000000
v 0.029892 -0.002544 0.000000
v 0.029568 -0.005070 0.000000
v 0.029032 -0.007559 0.000000
v 0.028286 -0.009994 0.000000
v 0.027337 -0.012357 0.000000
v 0.026190 -0.014631 0.000000
v 0.024855 -0.016799 0.000000
v 0.023341 -0.018847 0.000000
v 0.021659 -0.020758 0.000000
v 0.019820 -0.022520 0.000000
v 0.017839 -0.024120 0.000000
v 0.015729 -0.025546 0.000000
v 0.013506 -0.026788 0.000000
v 0.011186 -0.027837 0.000000
v 0.008785 -0.028685 0.000000
v 0.006320 -0.029327 0.000000
v 0.003811 -0.029757 0.000000
v 0.001273 -0.029973 0.000000
v -0.001273 -0.029973 0.000000
v -0.003811 -0.029757 0.000000
v -0.006320 -0.029327 0.000000
v -0.008785 -0.028685 0.000000
v -0.011186 -0.027837 0.000000
v -0.013506 -0.026788 0.000000
v -0.015729 -0.025546 0.000000
v -0.017839 -0.024120 0.000000
v -0.019820 -0.022520 0.000000
v -0.021659 -0.020758 0.000000
v -0.023341 -0.018847 0.000000
v -0.024855 -0.016799 0.000000
v -0.026190 -0.014631 0.000000
v -0.027337 -0.012357 0.000000
v -0.028286 -0.009994 0.000000
v -0.029032 -0.007559 0.000000
v -0.029568 -0.005070 0.000000
v -0.029892 -0.002544 0.000000
v 0.068000 0.046000 0.000000
v -0.068000 0.046000 0.000000
v -0.068000 0.046000 0.005000
v 0.068000 0.046000 0.005000
v 0.068000 -0.046000 0.000000
v 0.068000 -0.046000 0.005000
v -0.047783 -0.046000 0.000000
v -0.047783 -0.046000 0.005000
v -0.068000 -0.030431 0.000000
v -0.069158 -0.031587 0.000000
v -0.070162 -0.032880 0.000000
v -0.070996 -0.034289 0.000000
v -0.071645 -0.035791 0.000000
v -0.072101 -0.037363 0.000000
v -0.072356 -0.038980 0.000000
v -0.072406 -0.040616 0.000000
v -0.072250 -0.042245 0.000000
v -0.071890 -0.043841 0.000000
v -0.071332 -0.045380 0.000000
v -0.070586 -0.046837 0.000000
v -0.069662 -0.048188 0.000000
v -0.068576 -0.049413 0.000000
v -0.067345 -0.050491 0.000000
v -0.065988 -0.051406 0.000000
v -0.064526 -0.052143 0.000000
v -0.062984 -0.052691 0.000000
v -0.061385 -0.053041 0.000000
v -0.059755 -0.053186 0.000000
v -0.058119 -0.053126 0.000000
v -0.056504 -0.052861 0.000000
v -0.054935 -0.052395 0.000000
v -0.053437 -0.051736 0.000000
v -0.052034 -0.050894 0.000000
v -0.050747 -0.049882 0.000000
v -0.049598 -0.048716 0.000000
v -0.048605 -0.047415 0.000000
v -0.048605 -0.047415 0.005000
v -0.049598 -0.048716 0.005000
v -0.050747 -0.049882 0.005000
v -0.052034 -0.050894 0.005000
v -0.053437 -0.051736 0.005000
v -0.054935 -0.052395 0.005000
v -0.056504 -0.052861 0.005000
v -0.058119 -0.053126 0.005000
v -0.059755 -0.053186 0.005000
v -0.061385 -0.053041 0.005000
v -0.062984 -0.052691 0.005000
v -0.064526 -0.052143 0.005000
v -0.065988 -0.051406 0.005000
v -0.067345 -0.050491 0.005000
v -0.068576 -0.049413 0.005000
v -0.069662 -0.048188 0.005000
v -0.070586 -0.046837 0.005000
v -0.071332 -0.045380 0.005000
v -0.071890 -0.043841 0.005000
v -0.072250 -0.042245 0.005000
v -0.072406 -0.040616 0.005000
v -0.072356 -0.038980 0.005000
v -0.072101 -0.037363 0.005000
v -0.071645 -0.035791 0.005000
v -0.070996 -0.034289 0.005000
v -0.070162 -0.032880 0.005000
v -0.069158 -0.031587 0.005000
v -0.068000 -0.030431 0.005000
vt 0.500000 -0.460767 0.000000
vt -0.000000 -0.460767 0.000000
vt 0.500000 -0.502655 0.000000
vt 0.000000 -0.502655 0.000000
vt 0.500000 0.502655 0.000000
vt 0.000000 0.502655 0.000000
vt 0.500000 0.460767 0.000000
vt -0.000000 0.460767 0.000000
vt 0.500000 0.418879 0.000000
vt 0.000000 0.418879 0.000000
vt 0.500000 0.376991 0.000000
vt -0.000000 0.376991 0.000000
vt 0.500000 0.335103 0.000000
vt -0.000000 0.335103 0.000000
vt 0.500000 0.293215 0.000000
vt 0.000000 0.293215 0.000000
vt 0.500000 0.251327 0.000000
vt 0.000000 0.251327 0.000000
vt 0.500000 0.209440 0.000000
vt 0.000000 0.209440 0.000000
vt 0.500000 0.167552 0.000000
vt -0.000000 0.167552 0.000000
vt 0.500000 0.125664 0.000000
vt -0.000000 0.125664 0.000000
vt 0.500000 0.083776 0.000000
vt 0.000000 0.083776 0.000000
vt 0.500000 0.041888 0.000000
vt -0.000000 0.041888 0.000000
vt 0.500000 0.000000 0.000000
vt 0.000000 0.000000 0.000000
vt 0.500000 -0.041888 0.000000
vt -0.000000 -0.041888 0.000000
vt 0.500000 -0.083776 0.000000
vt 0.000000 -0.083776 0.000000
vt 0.500000 -0.125664 0.000000
vt -0.000000 -0.125664 0.000000
vt 0.500000 -0.167552 0.000000
vt 0.000000 -0.167552 0.000000
vt 0.500000 -0.209440 0.000000
vt -0.000000 -0.209440 0.000000
vt 0.500000 -0.251327 0.000000
vt 0.000000 -0.251327 0.000000
vt 0.500000 -0.293215 0.000000
vt -0.000000 -0.293215 0.000000
vt 0.500000 -0.335103 0.000000
vt 0.000000 -0.335103 0.000000
vt 0.500000 -0.376991 0.000000
vt -0.000000 -0.376991 0.000000
vt 0.500000 -0.418879 0.000000
vt 0.000000 -0.418879 0.000000
vt 0.500000 -9.170054 0.000000
vt -0.000000 -9.170054 0.000000
vt 0.500000 -9.424778 0.000000
vt 0.000000 -9.424778 0.000000
vt 0.500000 9.424778 0.000000
vt 0.000000 9.424778 0.000000
vt 0.500000 9.170054 0.000000
vt -0.000000 9.170054 0.000000
vt 0.500000 8.915330 0.000000
vt 0.000000 8.915330 0.000000
vt 0.500000 8.660607 0.000000
vt -0.000000 8.660607 0.000000
vt 0.500000 8.405883 0.000000
vt 0.000000 8.405883 0.000000
vt 0.500000 8.151159 0.000000
vt 0.000000 8.151159 0.000000
vt 0.500000 7.896436 0.000000
vt -0.000000 7.896436 0.000000
vt 0.500000 7.641712 0.000000
vt 0.000000 7.641712 0.000000
vt 0.500000 7.386988 0.000000
vt -0.000000 7.386988 0.000000
vt 0.500000 7.132264 0.000000
vt 0.000000 7.132264 0.000000
vt 0.500000 6.877541 0.000000
vt 0.000000 6.877541 0.000000
vt 0.500000 6.622817 0.000000
vt 0.000000 6.622817 0.000000
vt 0.500000 6.368093 0.000000
vt -0.000000 6.368093 0.000000
vt 0.500000 6.113369 0.000000
vt -0.000000 6.113369 0.000000
vt 0.500000 5.858646 0.000000
vt 0.000000 5.858646 0.000000
vt 0.500000 5.603922 0.000000
vt -0.000000 5.603922 0.000000
vt 0.500000 5.349198 0.000000
vt 0.000000 5.349198 0.000000
vt 0.500000 5.094475 0.000000
vt 0.000000 5.094475 0.000000
vt 0.500000 4.839751 0.000000
vt 0.000000 4.839751 0.000000
vt 0.500000 4.585027 0.000000
vt 0.000000 4.585027 0.000000
vt 0.500000 4.330303 0.000000
vt 0.000000 4.330303 0.000000
vt 0.500000 4.075580 0.000000
vt 0.000000 4.075580 0.000000
vt 0.500000 3.820856 0.000000
vt -0.000000 3.820856 0.000000
vt 0.500000 3.566132 0.000000
vt 0.000000 3.566132 0.000000
vt 0.500000 3.311408 0.000000
vt 0.000000 3.311408 0.000000
vt 0.500000 3.056685 0.000000
vt 0.000000 3.056685 0.000000
vt 0.500000 2.801961 0.000000
vt 0.000000 2.801961 0.000000
vt 0.500000 2.547237 0.000000
vt 0.000000 2.547237 0.000000
vt 0.500000 2.292514 0.000000
vt 0.000000 2.292514 0.000000
vt 0.500000 2.037790 0.000000
vt 0.000000 2.037790 0.000000
vt 0.500000 1.783066 0.000000
vt 0.000000 1.783066 0.000000
vt 0.500000 1.528342 0.000000
vt 0.000000 1.528342 0.000000
vt 0.500000 1.273619 0.000000
vt 0.000000 1.273619 0.000000
vt 0.500000 1.018895 0.000000
vt 0.000000 1.018895 0.000000
vt 0.500000 0.764171 0.000000
vt 0.000000 0.764171 0.000000
vt 0.500000 0.509447 0.000000
vt 0.000000 0.509447 0.000000
vt 0.500000 0.254724 0.000000
vt -0.000000 0.254724 0.000000
vt 0.500000 0.000000 0.000000
vt 0.000000 0.000000 0.000000
vt 0.500000 -0.254724 0.000000
vt -0.000000 -0.254724 0.000000
vt 0.500000 -0.509447 0.000000
vt 0.000000 -0.509447 0.000000
vt 0.500000 -0.764171 0.000000
vt 0.000000 -0.764171 0.000000
vt 0.500000 -1.018895 0.000000
vt 0.000000 -1.018895 0.000000
vt 0.500000 -1.273619 0.000000
vt 0.000000 -1.273619 0.000000
vt 0.500000 -1.528342 0.000000
vt 0.000000 -1.528342 0.000000
vt 0.500000 -1.783066 0.000000
vt 0.000000 -1.783066 0.000000
vt 0.500000 -2.037790 0.000000
vt 0.000000 -2.037790 0.000000
vt 0.500000 -2.292514 0.000000
vt 0.000000 -2.292514 0.000000
vt 0.500000 -2.547237 0.000000
vt 0.000000 -2.547237 0.000000
vt 0.500000 -2.801961 0.000000
vt -0.000000 -2.801961 0.000000
vt 0.500000 -3.056685 0.000000
vt 0.000000 -3.056685 0.000000
vt 0.500000 -3.311408 0.000000
vt 0.000000 -3.311408 0.000000
vt 0.500000 -3.566132 0.000000
vt 0.000000 -3.566132 0.000000
vt 0.500000 -3.820856 0.000000
vt 0.000000 -3.820856 0.000000
vt 0.500000 -4.075580 0.000000
vt 0.000000 -4.075580 0.000000
vt 0.500000 -4.330303 0.000000
vt -0.000000 -4.330303 0.000000
vt 0.500000 -4.585027 0.000000
vt 0.000000 -4.585027 0.000000
vt 0.500000 -4.839751 0.000000
vt 0.000000 -4.839751 0.000000
vt 0.500000 -5.094475 0.000000
vt -0.000000 -5.094475 0.000000
vt 0.500000 -5.349198 0.000000
vt 0.000000 -5.349198 0.000000
vt 0.500000 -5.603922 0.000000
vt 0.000000 -5.603922 0.000000
vt 0.500000 -5.858646 0.000000
vt 0.000000 -5.858646 0.000000
vt 0.500000 -6.113369 0.000000
vt -0.000000 -6.113369 0.000000
vt 0.500000 -6.368093 0.000000
vt 0.000000 -6.368093 0.000000
vt 0.500000 -6.622817 0.000000
vt 0.000000 -6.622817 0.000000
vt 0.500000 -6.877541 0.000000
vt 0.000000 -6.877541 0.000000
vt 0.500000 -7.132264 0.000000
vt 0.000000 -7.132264 0.000000
vt 0.500000 -7.386988 0.000000
vt -0.000000 -7.386988 0.000000
vt 0.500000 -7.641712 0.000000
vt -0.000000 -7.641712 0.000000
vt 0.500000 -7.896436 0.000000
vt -0.000000 -7.896436 0.000000
vt 0.500000 -8.151159 0.000000
vt 0.000000 -8.151159 0.000000
vt 0.500000 -8.405883 0.000000
vt 0.000000 -8.405883 0.000000
vt 0.500000 -8.660607 0.000000
vt 0.000000 -8.660607 0.000000
vt 0.500000 -8.915330 0.000000
vt 0.000000 -8.915330 0.000000
vt -0.000000 0.000000 0.000000
vt 13.600000 0.000000 0.000000
vt -0.000000 0.500000 0.000000
vt 13.600000 0.500000 0.000000
vt 0.000000 0.000000 0.000000
vt 9.200000 0.000000 0.000000
vt 0.000000 0.500000 0.000000
vt 9.200000 0.500000 0.000000
vt -0.000000 0.000000 0.000000
vt 11.578283 0.000000 0.000000
vt -0.000000 0.500000 0.000000
vt 11.578283 0.500000 0.000000
vt -0.500000 0.000000 0.000000
vt -0.000000 0.000000 0.000000
vt -0.500000 0.163781 0.000000
vt -0.000000 0.163781 0.000000
vt -0.500000 0.327562 0.000000
vt -0.000000 0.327562 0.000000
vt -0.500000 0.491343 0.000000
vt -0.000000 0.491343 0.000000
vt -0.500000 0.655124 0.000000
vt -0.000000 0.655124 0.000000
vt -0.500000 0.818905 0.000000
vt -0.000000 0.818905 0.000000
vt -0.500000 0.982686 0.000000
vt -0.000000 0.982686 0.000000
vt -0.500000 1.146467 0.000000
vt -0.000000 1.146467 0.000000
vt -0.500000 1.310248 0.000000
vt -0.000000 1.310248 0.000000
vt -0.500000 1.474030 0.000000
vt -0.000000 1.474030 0.000000
vt -0.500000 1.637811 0.000000
vt -0.000000 1.637811 0.000000
vt -0.500000 1.801592 0.000000
vt -0.000000 1.801592 0.000000
vt -0.500000 1.965373 0.000000
vt -0.000000 1.965373 0.000000
vt -0.500000 2.129154 0.000000
vt -0.000000 2.129154 0.000000
vt -0.500000 2.292935 0.000000
vt -0.000000 2.292935 0.000000
vt -0.500000 2.456716 0.000000
vt -0.000000 2.456716 0.000000
vt -0.500000 2.620497 0.000000
vt -0.000000 2.620497 0.000000
vt -0.500000 2.784278 0.000000
vt -0.000000 2.784278 0.000000
vt -0.500000 2.948059 0.000000
vt -0.000000 2.948059 0.000000
vt -0.500000 3.111840 0.000000
vt -0.000000 3.111840 0.000000
vt -0.500000 3.275621 0.000000
vt -0.000000 3.275621 0.000000
vt -0.500000 3.439402 0.000000
vt -0.000000 3.439402 0.000000
vt -0.500000 3.603183 0.000000
vt -0.000000 3.603183 0.000000
vt -0.500000 3.766964 0.000000
vt -0.000000 3.766964 0.000000
vt -0.500000 3.930745 0.000000
vt -0.000000 3.930745 0.000000
vt -0.500000 4.094526 0.000000
vt -0.000000 4.094526 0.000000
vt -0.500000 4.258307 0.000000
vt -0.000000 4.258307 0.000000
vt -0.500000 4.422089 0.000000
vt -0.000000 4.422089 0.000000
vt -0.500000 4.585870 0.000000
vt -0.000000 4.585870 0.000000
vt -0.000000 0.000000 0.000000
vt 7.643090 0.000000 0.000000
vt -0.000000 0.500000 0.000000
vt 7.643090 0.500000 0.000000
vt -2.768554 0.105132 0.000000
vt -2.779362 0.359550 0.000000
vt -6.579362 -2.683540 0.000000
vt -2.768554 0.613967 0.000000
vt -2.736209 0.866552 0.000000
vt -6.579362 4.959550 0.000000
vt -2.682560 1.115484 0.000000
vt -2.607994 1.358969 0.000000
vt -2.513047 1.595253 0.000000
vt -2.398404 1.822634 0.000000
vt -2.264890 2.039474 0.000000
vt -2.113469 2.244210 0.000000
vt -1.945230 2.435366 0.000000
vt -1.761386 2.611566 0.000000
vt -1.563261 2.771541 0.000000
vt -1.352283 2.914137 0.000000
vt -1.129973 3.038327 0.000000
vt -0.897931 3.143217 0.000000
vt -0.657830 3.228050 0.000000
vt -0.411399 3.292215 0.000000
vt -0.160415 3.335251 0.000000
vt 0.093315 3.356846 0.000000
vt 0.347962 3.356846 0.000000
vt 7.020638 4.959550 0.000000
vt 0.601692 3.335251 0.000000
vt 0.852676 3.292215 0.000000
vt 1.099107 3.228050 0.000000
vt 1.339208 3.143217 0.000000
vt 1.571250 3.038327 0.000000
vt 1.793560 2.914137 0.000000
vt 2.004538 2.771541 0.000000
vt 2.202663 2.611566 0.000000
vt 2.386507 2.435366 0.000000
vt 2.554746 2.244210 0.000000
vt 2.706167 2.039474 0.000000
vt 2.839681 1.822634 0.000000
vt 2.954324 1.595253 0.000000
vt 3.049271 1.358969 0.000000
vt 3.123837 1.115484 0.000000
vt 3.177486 0.866552 0.000000
vt 3.209831 0.613967 0.000000
vt 3.220638 0.359550 0.000000
vt 7.020638 -4.240450 0.000000
vt 3.209831 0.105132 0.000000
vt 3.177486 -0.147453 0.000000
vt 3.123837 -0.396385 0.000000
vt 3.049271 -0.639870 0.000000
vt 2.954324 -0.876154 0.000000
vt 2.839681 -1.103535 0.000000
vt 2.706167 -1.320375 0.000000
vt 2.554746 -1.525110 0.000000
vt 2.386507 -1.716267 0.000000
vt 2.202663 -1.892467 0.000000
vt 2.004538 -2.052442 0.000000
vt 1.793560 -2.195038 0.000000
vt 1.571250 -2.319228 0.000000
vt 1.339208 -2.424118 0.000000
vt 1.099107 -2.508951 0.000000
vt 0.852676 -2.573116 0.000000
vt 0.601692 -2.616152 0.000000
vt 0.347962 -2.637747 0.000000
vt -4.557645 -4.240450 0.000000
vt 0.093315 -2.637747 0.000000
vt -0.160415 -2.616152 0.000000
vt -0.411399 -2.573116 0.000000
vt -0.657830 -2.508951 0.000000
vt -0.897931 -2.424118 0.000000
vt -1.129973 -2.319228 0.000000
vt -1.352283 -2.195038 0.000000
vt -1.563261 -2.052442 0.000000
vt -1.761386 -1.892467 0.000000
vt -5.607501 -3.546412 0.000000
vt -5.582074 -3.579550 0.000000
vt -1.945230 -1.716267 0.000000
vt -2.113469 -1.525110 0.000000
vt -5.640638 -3.520985 0.000000
vt -2.264890 -1.320375 0.000000
vt -2.398404 -1.103535 0.000000
vt -2.513047 -0.876154 0.000000
vt -2.607994 -0.639870 0.000000
vt -2.682560 -0.396385 0.000000
vt -2.736209 -0.147453 0.000000
vt -5.875187 -3.618139 0.000000
vt -7.014981 -3.538404 0.000000
vt -5.880638 -3.659550 0.000000
vt -7.019945 -3.702001 0.000000
vt -5.875187 -3.700961 0.000000
vt -7.004313 -3.864926 0.000000
vt -5.859203 -3.739550 0.000000
vt -6.968333 -4.024595 0.000000
vt -5.833776 -3.772687 0.000000
vt -6.912575 -4.178478 0.000000
vt -5.800638 -3.798114 0.000000
vt -6.837924 -4.324134 0.000000
vt -6.745562 -4.459257 0.000000
vt -6.989501 -3.376727 0.000000
vt -5.859203 -3.579550 0.000000
vt -6.943907 -3.219533 0.000000
vt -5.833776 -3.546412 0.000000
vt -6.878922 -3.069314 0.000000
vt -5.800638 -3.520985 0.000000
vt -6.795578 -2.928450 0.000000
vt -6.695194 -2.799176 0.000000
vt -5.762050 -3.505001 0.000000
vt -5.720638 -3.499550 0.000000
vt -5.679227 -3.505001 0.000000
vt -5.566090 -3.618139 0.000000
vt -5.560638 -3.659550 0.000000
vt -5.566090 -3.700961 0.000000
vt -5.582074 -3.739550 0.000000
vt -5.607501 -3.772687 0.000000
vt -5.640638 -3.798114 0.000000
vt -5.679227 -3.814098 0.000000
vt -4.739195 -4.512057 0.000000
vt -4.639854 -4.381979 0.000000
vt -5.720638 -3.819550 0.000000
vt -5.123058 -4.814062 0.000000
vt -4.982727 -4.729824 0.000000
vt -4.854093 -4.628621 0.000000
vt -5.762050 -3.814098 0.000000
vt -6.378114 -4.781033 0.000000
vt -6.231986 -4.854758 0.000000
vt -6.077753 -4.909537 0.000000
vt -6.636954 -4.581703 0.000000
vt -6.513820 -4.689531 0.000000
vt -5.917858 -4.944503 0.000000
vt -5.754838 -4.959100 0.000000
vt -5.591275 -4.953097 0.000000
vt -5.429763 -4.926590 0.000000
vt -5.272862 -4.879999 0.000000
vt 2.768554 0.613967 0.000000
vt 2.779362 0.359550 0.000000
vt 6.579362 -2.683540 0.000000
vt 2.768554 0.105132 0.000000
vt 2.736209 -0.147453 0.000000
vt 2.682560 -0.396385 0.000000
vt 2.607994 -0.639870 0.000000
vt 2.513047 -0.876154 0.000000
vt 2.398404 -1.103535 0.000000
vt 2.264890 -1.320375 0.000000
vt 5.640638 -3.520985 0.000000
vt 2.113469 -1.525110 0.000000
vt 5.607501 -3.546412 0.000000
vt 1.945230 -1.716267 0.000000
vt 1.761386 -1.892467 0.000000
vt 4.557645 -4.240450 0.000000
vt 1.563261 -2.052442 0.000000
vt 1.352283 -2.195038 0.000000
vt 1.129973 -2.319228 0.000000
vt 0.897931 -2.424118 0.000000
vt 0.657830 -2.508951 0.000000
vt 0.411399 -2.573116 0.000000
vt 0.160415 -2.616152 0.000000
vt -0.093315 -2.637747 0.000000
vt -0.347962 -2.637747 0.000000
vt -7.020638 -4.240450 0.000000
vt -0.601692 -2.616152 0.000000
vt -0.852676 -2.573116 0.000000
vt -1.099107 -2.508951 0.000000
vt -1.339208 -2.424118 0.000000
vt -1.571250 -2.319228 0.000000
vt -1.793560 -2.195038 0.000000
vt -2.004538 -2.052442 0.000000
vt -2.202663 -1.892467 0.000000
vt -2.386507 -1.716267 0.000000
vt -2.554746 -1.525110 0.000000
vt -2.706167 -1.320375 0.000000
vt -2.839681 -1.103535 0.000000
vt -2.954324 -0.876154 0.000000
vt -3.049271 -0.639870 0.000000
vt -3.123837 -0.396385 0.000000
vt -3.177486 -0.147453 0.000000
vt -3.209831 0.105132 0.000000
vt -3.220638 0.359550 0.000000
vt -7.020638 4.959550 0.000000
vt -3.209831 0.613967 0.000000
vt -3.177486 0.866552 0.000000
vt -3.123837 1.115484 0.000000
vt -3.049271 1.358969 0.000000
vt -2.954324 1.595253 0.000000
vt -2.839681 1.822634 0.000000
vt -2.706167 2.039474 0.000000
vt -2.554746 2.244210 0.000000
vt -2.386507 2.435366 0.000000
vt -2.202663 2.611566 0.000000
vt -2.004538 2.771541 0.000000
vt -1.793560 2.914137 0.000000
vt -1.571250 3.038327 0.000000
vt -1.339208 3.143217 0.000000
vt -1.099107 3.228050 0.000000
vt -0.852676 3.292215 0.000000
vt -0.601692 3.335251 0.000000
vt -0.347962 3.356846 0.000000
vt -0.093315 3.356846 0.000000
vt 6.579362 4.959550 0.000000
vt 0.160415 3.335251 0.000000
vt 0.411399 3.292215 0.000000
vt 0.657830 3.228050 0.000000
vt 0.897931 3.143217 0.000000
vt 1.129973 3.038327 0.000000
vt 1.352283 2.914137 0.000000
vt 1.563261 2.771541 0.000000
vt 1.761386 2.611566 0.000000
vt 1.945230 2.435366 0.000000
vt 2.113469 2.244210 0.000000
vt 2.264890 2.039474 0.000000
vt 2.398404 1.822634 0.000000
vt 2.513047 1.595253 0.000000
vt 2.607994 1.358969 0.000000
vt 2.682560 1.115484 0.000000
vt 2.736209 0.866552 0.000000
vt 5.875187 -3.700961 0.000000
vt 7.019945 -3.702001 0.000000
vt 5.880638 -3.659550 0.000000
vt 7.014981 -3.538404 0.000000
vt 5.875187 -3.618139 0.000000
vt 6.989501 -3.376727 0.000000
vt 5.859203 -3.579550 0.000000
vt 6.943907 -3.219533 0.000000
vt 5.833776 -3.546412 0.000000
vt 6.878922 -3.069314 0.000000
vt 5.800638 -3.520985 0.000000
vt 6.795578 -2.928450 0.000000
vt 6.695194 -2.799176 0.000000
vt 7.004313 -3.864926 0.000000
vt 5.859203 -3.739550 0.000000
vt 6.968333 -4.024595 0.000000
vt 5.833776 -3.772687 0.000000
vt 6.912575 -4.178478 0.000000
vt 5.800638 -3.798114 0.000000
vt 6.837924 -4.324134 0.000000
vt 6.745562 -4.459257 0.000000
vt 5.762050 -3.814098 0.000000
vt 6.636954 -4.581703 0.000000
vt 6.513820 -4.689531 0.000000
vt 6.378114 -4.781033 0.000000
vt 5.720638 -3.819550 0.000000
vt 6.231986 -4.854758 0.000000
vt 6.077753 -4.909537 0.000000
vt 5.917858 -4.944503 0.000000
vt 5.754838 -4.959100 0.000000
vt 5.591275 -4.953097 0.000000
vt 5.429763 -4.926590 0.000000
vt 5.272862 -4.879999 0.000000
vt 5.123058 -4.814062 0.000000
vt 5.679227 -3.814098 0.000000
vt 4.982727 -4.729824 0.000000
vt 4.854093 -4.628621 0.000000
vt 4.739195 -4.512057 0.000000
vt 5.640638 -3.798114 0.000000
vt 4.639854 -4.381979 0.000000
vt 5.607501 -3.772687 0.000000
vt 5.582074 -3.739550 0.000000
vt 5.566090 -3.700961 0.000000
vt 5.560638 -3.659550 0.000000
vt 5.566090 -3.618139 0.000000
vt 5.582074 -3.579550 0.000000
vt 5.679227 -3.505001 0.000000
vt 5.720638 -3.499550 0.000000
vt 5.762050 -3.505001 0.000000
vn 96.592583 25.881905 0.000000
vn 96.592583 25.881905 0.000000
vn 100.000000 0.000000 0.000000
vn 100.000000 0.000000 0.000000
vn 96.592583 -25.881905 0.000000
vn 96.592583 -25.881905 0.000000
vn 86.602540 -50.000000 0.000000
vn 86.602540 -50.000000 0.000000
vn 70.710678 -70.710678 0.000000
vn 70.710678 -70.710678 0.000000
vn 50.000000 -86.602540 0.000000
vn 50.000000 -86.602540 0.000000
vn 25.881905 -96.592583 0.000000
vn 25.881905 -96.592583 0.000000
vn -0.000000 -100.000000 0.000000
vn -0.000000 -100.000000 0.000000
vn -25.881905 -96.592583 0.000000
vn -25.881905 -96.592583 0.000000
vn -50.000000 -86.602540 0.000000
vn -50.000000 -86.602540 0.000000
vn -70.710678 -70.710678 0.000000
vn -70.710678 -70.710678 0.000000
vn -86.602540 -50.000000 0.000000
vn -86.602540 -50.000000 0.000000
vn -96.592583 -25.881905 0.000000
vn -96.592583 -25.881905 0.000000
vn -100.000000 0.000000 0.000000
vn -100.000000 0.000000 0.000000
vn -96.592583 25.881905 0.000000
vn -96.592583 25.881905 0.000000
vn -86.602540 50.000000 0.000000
vn -86.602540 50.000000 0.000000
vn -70.710678 70.710678 0.000000
vn -70.710678 70.710678 0.000000
vn -50.000000 86.602540 0.000000
vn -50.000000 86.602540 0.000000
vn -25.881905 96.592583 0.000000
vn -25.881905 96.592583 0.000000
vn -0.000000 100.000000 0.000000
vn -0.000000 100.000000 0.000000
vn 25.881905 96.592583 0.000000
vn 25.881905 96.592583 0.000000
vn 50.000000 86.602540 0.000000
vn 50.000000 86.602540 0.000000
vn 70.710678 70.710678 0.000000
vn 70.710678 70.710678 0.000000
vn 86.602540 50.000000 0.000000
vn 86.602540 50.000000 0.000000
vn 99.639749 8.480592 0.000000
vn 99.639749 8.480592 0.000000
vn 100.000000 0.000000 0.000000
vn 100.000000 0.000000 0.000000
vn 99.639749 -8.480592 0.000000
vn 99.639749 -8.480592 0.000000
vn 98.561591 -16.900082 0.000000
vn 98.561591 -16.900082 0.000000
vn 96.773295 -25.197806 0.000000
vn 96.773295 -25.197806 0.000000
vn 94.287745 -33.313979 0.000000
vn 94.287745 -33.313979 0.000000
vn 91.122849 -41.190125 0.000000
vn 91.122849 -41.190125 0.000000
vn 87.301411 -48.769494 0.000000
vn 87.301411 -48.769494 0.000000
vn 82.850965 -55.997479 0.000000
vn 82.850965 -55.997479 0.000000
vn 77.803575 -62.822000 0.000000
vn 77.803575 -62.822000 0.000000
vn 72.195609 -69.193887 0.000000
vn 72.195609 -69.193887 0.000000
vn 66.067472 -75.067231 0.000000
vn 66.067472 -75.067231 0.000000
vn 59.463318 -80.399713 0.000000
vn 59.463318 -80.399713 0.000000
vn 52.430728 -85.152914 0.000000
vn 52.430728 -85.152914 0.000000
vn 45.020374 -89.292586 0.000000
vn 45.020374 -89.292586 0.000000
vn 37.285648 -92.788903 0.000000
vn 37.285648 -92.788903 0.000000
vn 29.282277 -95.616673 0.000000
vn 29.282277 -95.616673 0.000000
vn 21.067927 -97.755524 0.000000
vn 21.067927 -97.755524 0.000000
vn 12.701782 -99.190044 0.000000
vn 12.701782 -99.190044 0.000000
vn 4.244120 -99.909897 0.000000
vn 4.244120 -99.909897 0.000000
vn -4.244120 -99.909897 0.000000
vn -4.244120 -99.909897 0.000000
vn -12.701782 -99.190044 0.000000
vn -12.701782 -99.190044 0.000000
vn -21.067927 -97.755524 0.000000
vn -21.067927 -97.755524 0.000000
vn -29.282277 -95.616673 0.000000
vn -29.282277 -95.616673 0.000000
vn -37.285648 -92.788903 0.000000
vn -37.285648 -92.788903 0.000000
vn -45.020374 -89.292586 0.000000
vn -45.020374 -89.292586 0.000000
vn -52.430728 -85.152914 0.000000
vn -52.430728 -85.152914 0.000000
vn -59.463318 -80.399713 0.000000
vn -59.463318 -80.399713 0.000000
vn -66.067472 -75.067231 0.000000
vn -66.067472 -75.067231 0.000000
vn -72.195609 -69.193887 0.000000
vn -72.195609 -69.193887 0.000000
vn -77.803575 -62.822000 0.000000
vn -77.803575 -62.822000 0.000000
vn -82.850965 -55.997479 0.000000
vn -82.850965 -55.997479 0.000000
vn -87.301411 -48.769494 0.000000
vn -87.301411 -48.769494 0.000000
vn -91.122849 -41.190125 0.000000
vn -91.122849 -41.190125 0.000000
vn -94.287745 -33.313979 0.000000
vn -94.287745 -33.313979 0.000000
vn -96.773295 -25.197806 0.000000
vn -96.773295 -25.197806 0.000000
vn -98.561591 -16.900082 0.000000
vn -98.561591 -16.900082 0.000000
vn -99.639749 -8.480592 0.000000
vn -99.639749 -8.480592 0.000000
vn -100.000000 0.000000 0.000000
vn -100.000000 0.000000 0.000000
vn -99.639749 8.480592 0.000000
vn -99.639749 8.480592 0.000000
vn -98.561591 16.900082 0.000000
vn -98.561591 16.900082 0.000000
vn -96.773295 25.197806 0.000000
vn -96.773295 25.197806 0.000000
vn -94.287745 33.313979 0.000000
vn -94.287745 33.313979 0.000000
vn -91.122849 41.190125 0.000000
vn -91.122849 41.190125 0.000000
vn -87.301411 48.769494 0.000000
vn -87.301411 48.769494 0.000000
vn -82.850965 55.997479 0.000000
vn -82.850965 55.997479 0.000000
vn -77.803575 62.822000 0.000000
vn -77.803575 62.822000 0.000000
vn -72.195609 69.193887 0.000000
vn -72.195609 69.193887 0.000000
vn -66.067472 75.067231 0.000000
vn -66.067472 75.067231 0.000000
vn -59.463318 80.399713 0.000000
vn -59.463318 80.399713 0.000000
vn -52.430728 85.152914 0.000000
vn -52.430728 85.152914 0.000000
vn -45.020374 89.292586 0.000000
vn -45.020374 89.292586 0.000000
vn -37.285648 92.788903 0.000000
vn -37.285648 92.788903 0.000000
vn -29.282277 95.616673 0.000000
vn -29.282277 95.616673 0.000000
vn -21.067927 97.755524 0.000000
vn -21.067927 97.755524 0.000000
vn -12.701782 99.190044 0.000000
vn -12.701782 99.190044 0.000000
vn -4.244120 99.909897 0.000000
vn -4.244120 99.909897 0.000000
vn 4.244120 99.909897 0.000000
vn 4.244120 99.909897 0.000000
vn 12.701782 99.190044 0.000000
vn 12.701782 99.190044 0.000000
vn 21.067927 97.755524 0.000000
vn 21.067927 97.755524 0.000000
vn 29.282277 95.616673 0.000000
vn 29.282277 95.616673 0.000000
vn 37.285648 92.788903 0.000000
vn 37.285648 92.788903 0.000000
vn 45.020374 89.292586 0.000000
vn 45.020374 89.292586 0.000000
vn 52.430728 85.152914 0.000000
vn 52.430728 85.152914 0.000000
vn 59.463318 80.399713 0.000000
vn 59.463318 80.399713 0.000000
vn 66.067472 75.067231 0.000000
vn 66.067472 75.067231 0.000000
vn 72.195609 69.193887 0.000000
vn 72.195609 69.193887 0.000000
vn 77.803575 62.822000 0.000000
vn 77.803575 62.822000 0.000000
vn 82.850965 55.997479 0.000000
vn 82.850965 55.997479 0.000000
vn 87.301411 48.769494 0.000000
vn 87.301411 48.769494 0.000000
vn 91.122849 41.190125 0.000000
vn 91.122849 41.190125 0.000000
vn 94.287745 33.313979 0.000000
vn 94.287745 33.313979 0.000000
vn 96.773295 25.197806 0.000000
vn 96.773295 25.197806 0.000000
vn 98.561591 16.900082 0.000000
vn 98.561591 16.900082 0.000000
vn 0.000000 100.000000 0.000000
vn 0.000000 100.000000 0.000000
vn 0.000000 100.000000 0.000000
vn 0.000000 100.000000 0.000000
vn 100.000000 0.000000 0.000000
vn 100.000000 0.000000 0.000000
vn 100.000000 0.000000 0.000000
vn 100.000000 0.000000 0.000000
vn 0.000000 -100.000000 0.000000
vn 0.000000 -100.000000 0.000000
vn 0.000000 -100.000000 0.000000
vn 0.000000 -100.000000 0.000000
vn -66.055621 75.077659 -0.000000
vn -66.055621 75.077659 -0.000000
vn -74.965775 66.182570 -0.000000
vn -74.965775 66.182570 -0.000000
vn -82.687620 56.238398 -0.000000
vn -82.687620 56.238398 -0.000000
vn -89.098756 45.402772 -0.000000
vn -89.098756 45.402772 -0.000000
vn -94.097556 33.847451 -0.000000
vn -94.097556 33.847451 -0.000000
vn -97.604784 21.755602 -0.000000
vn -97.604784 21.755602 -0.000000
vn -99.564844 9.318898 -0.000000
vn -99.564844 9.318898 -0.000000
vn -99.946668 -3.265524 0.000000
vn -99.946668 -3.265524 0.000000
vn -98.744202 -15.798182 0.000000
vn -98.744202 -15.798182 0.000000
vn -95.976508 -28.080418 0.000000
vn -95.976508 -28.080418 0.000000
vn -91.687458 -39.917542 0.000000
vn -91.687458 -39.917542 0.000000
vn -85.945037 -51.121918 0.000000
vn -85.945037 -51.121918 0.000000
vn -78.840273 -61.515944 0.000000
vn -78.840273 -61.515944 0.000000
vn -70.485784 -70.934859 0.000000
vn -70.485784 -70.934859 0.000000
vn -61.014000 -79.229362 0.000000
vn -61.014000 -79.229362 0.000000
vn -50.575063 -86.267972 0.000000
vn -50.575063 -86.267972 0.000000
vn -39.334443 -91.939119 0.000000
vn -39.334443 -91.939119 0.000000
vn -27.470319 -96.152907 0.000000
vn -27.470319 -96.152907 0.000000
vn -15.170753 -98.842543 0.000000
vn -15.170753 -98.842543 0.000000
vn -2.630711 -99.965391 0.000000
vn -2.630711 -99.965391 0.000000
vn 9.951032 -99.503653 0.000000
vn 9.951032 -99.503653 0.000000
vn 22.375037 -97.464649 0.000000
vn 22.375037 -97.464649 0.000000
vn 34.444368 -93.880698 0.000000
vn 34.444368 -93.880698 0.000000
vn 45.967710 -88.808613 0.000000
vn 45.967710 -88.808613 0.000000
vn 56.762401 -82.328791 0.000000
vn 56.762401 -82.328791 0.000000
vn 66.657332 -74.543947 0.000000
vn 66.657332 -74.543947 0.000000
vn 75.495655 -65.577482 0.000000
vn 75.495655 -65.577482 0.000000
vn 83.137270 -55.571525 0.000000
vn 83.137270 -55.571525 0.000000
vn 89.461047 -44.684685 0.000000
vn 89.461047 -44.684685 0.000000
vn -100.000000 0.000000 0.000000
vn -100.000000 0.000000 0.000000
vn -100.000000 0.000000 0.000000
vn -100.000000 0.000000 0.000000
vn 0.000000 0.000000 100.000000
vn 0.000000 0.000000 100.000000
vn 0.000000 0.000000 100.000000
vn 0.000000 0.000000 100.000000
vn 0.000000 0.000000 100.000000
vn 0.000000 0.000000 100.000000
vn 0.000000 0.000000 100.000000
vn 0.000000 0.000000 100.000000
vn 0.000000 0.000000 100.000000
vn 0.000000 0.000000 100.000000
vn 0.000000 0.000000 100.000000
vn 0.000000 0.000000 100.000000
vn 0.000000 0.000000 100.000000
vn 0.000000 0.000000 100.000000
vn 0.000000 0.000000 100.000000
vn 0.000000 0.000000 100.000000
vn 0.000000 0.000000 100.000000
vn 0.000000 0.000000 100.000000
vn 0.000000 0.000000 100.000000
vn 0.000000 0.000000 100.000000
vn 0.000000 0.000000 100.000000
vn 0.000000 0.000000 100.000000
vn 0.000000 0.000000 100.000000
vn 0.000000 0.000000 100.000000
vn 0.000000 0.000000 100.000000
vn 0.000000 0.000000 100.000000
vn 0.000000 0.000000 100.000000
vn 0.000000 0.000000 100.000000
vn 0.000000 0.000000 100.000000
vn 0.000000 0.000000 100.000000
vn 0.000000 0.000000 100.000000
vn 0.000000 0.000000 100.000000
vn 0.000000 0.000000 100.000000
vn 0.000000 0.000000 100.000000
vn 0.000000 0.000000 100.000000
vn 0.000000 0.000000 100.000000
vn 0.000000 0.000000 100.000000
vn 0.000000 0.000000 100.000000
vn 0.000000 0.000000 100.000000
vn 0.000000 0.000000 100.000000
vn 0.000000 0.000000 100.000000
vn 0.000000 0.000000 100.000000
vn 0.000000 0.000000 100.000000
vn 0.000000 0.000000 100.000000
vn 0.000000 0.000000 100.000000
vn 0.000000 0.000000 100.000000
vn 0.000000 0.000000 100.000000
vn 0.000000 0.000000 100.000000
vn 0.000000 0.000000 100.000000
vn 0.000000 0.000000 100.000000
vn 0.000000 0.000000 100.000000
vn 0.000000 0.000000 100.000000
vn 0.000000 0.000000 100.000000
vn 0.000000 0.000000 100.000000
vn 0.000000 0.000000 100.000000
vn 0.000000 0.000000 100.000000
vn 0.000000 0.000000 100.000000
vn 0.000000 0.000000 100.000000
vn 0.000000 0.000000 100.000000
vn 0.000000 0.000000 100.000000
vn 0.000000 0.000000 100.000000
vn 0.000000 0.000000 100.000000
vn 0.000000 0.000000 100.000000
vn 0.000000 0.000000 100.000000
vn 0.000000 0.000000 100.000000
vn 0.000000 0.000000 100.000000
vn 0.000000 0.000000 100.000000
vn 0.000000 0.000000 100.000000
vn 0.000000 0.000000 100.000000
vn 0.000000 0.000000 100.000000
vn 0.000000 0.000000 100.000000
vn 0.000000 0.000000 100.000000
vn 0.000000 0.000000 100.000000
vn 0.000000 0.000000 100.000000
vn 0.000000 0.000000 100.000000
vn 0.000000 0.000000 100.000000
vn 0.000000 0.000000 100.000000
vn 0.000000 0.000000 100.000000
vn 0.000000 0.000000 100.000000
vn 0.000000 0.000000 100.000000
vn 0.000000 0.000000 100.000000
vn 0.000000 0.000000 100.000000
vn 0.000000 0.000000 100.000000
vn 0.000000 0.000000 100.000000
vn 0.000000 0.000000 100.000000
vn 0.000000 0.000000 100.000000
vn 0.000000 0.000000 100.000000
vn 0.000000 0.000000 100.000000
vn 0.000000 0.000000 100.000000
vn 0.000000 0.000000 100.000000
vn 0.000000 0.000000 100.000000
vn 0.000000 0.000000 100.000000
vn 0.000000 0.000000 100.000000
vn 0.000000 0.000000 100.000000
vn 0.000000 0.000000 100.000000
vn 0.000000 0.000000 100.000000
vn 0.000000 0.000000 100.000000
vn 0.000000 0.000000 100.000000
vn 0.000000 0.000000 100.000000
vn 0.000000 0.000000 100.000000
vn 0.000000 0.000000 100.000000
vn 0.000000 0.000000 100.000000
vn 0.000000 0.000000 100.000000
vn 0.000000 0.000000 100.000000
vn 0.000000 0.000000 100.000000
vn 0.000000 0.000000 100.000000
vn 0.000000 0.000000 100.000000
vn 0.000000 0.000000 100.000000
vn 0.000000 0.000000 100.000000
vn 0.000000 0.000000 100.000000
vn 0.000000 0.000000 100.000000
vn 0.000000 0.000000 100.000000
vn 0.000000 0.000000 100.000000
vn 0.000000 0.000000 100.000000
vn 0.000000 0.000000 100.000000
vn 0.000000 0.000000 100.000000
vn 0.000000 0.000000 100.000000
vn 0.000000 0.000000 100.000000
vn 0.000000 0.000000 100.000000
vn 0.000000 0.000000 100.000000
vn 0.000000 0.000000 100.000000
vn 0.000000 0.000000 100.000000
vn 0.000000 0.000000 100.000000
vn 0.000000 0.000000 100.000000
vn 0.000000 0.000000 100.000000
vn 0.000000 0.000000 100.000000
vn 0.000000 0.000000 100.000000
vn 0.000000 0.000000 100.000000
vn 0.000000 0.000000 100.000000
vn 0.000000 0.000000 100.000000
vn -0.000000 0.000000 -100.000000
vn -0.000000 0.000000 -100.000000
vn -0.000000 0.000000 -100.000000
vn -0.000000 0.000000 -100.000000
vn -0.000000 0.000000 -100.000000
vn -0.000000 0.000000 -100.000000
vn -0.000000 0.000000 -100.000000
vn -0.000000 0.000000 -100.000000
vn -0.000000 0.000000 -100.000000
vn -0.000000 0.000000 -100.000000
vn -0.000000 0.000000 -100.000000
vn -0.000000 0.000000 -100.000000
vn -0.000000 0.000000 -100.000000
vn -0.000000 0.000000 -100.000000
vn -0.000000 0.000000 -100.000000
vn -0.000000 0.000000 -100.000000
vn -0.000000 0.000000 -100.000000
vn -0.000000 0.000000 -100.000000
vn -0.000000 0.000000 -100.000000
vn -0.000000 0.000000 -100.000000
vn -0.000000 0.000000 -100.000000
vn -0.000000 0.000000 -100.000000
vn -0.000000 0.000000 -100.000000
vn -0.000000 0.000000 -100.000000
vn -0.000000 0.000000 -100.000000
vn -0.000000 0.000000 -100.000000
vn -0.000000 0.000000 -100.000000
vn -0.000000 0.000000 -100.000000
vn -0.000000 0.000000 -100.000000
vn -0.000000 0.000000 -100.000000
vn -0.000000 0.000000 -100.000000
vn -0.000000 0.000000 -100.000000
vn -0.000000 0.000000 -100.000000
vn -0.000000 0.000000 -100.000000
vn -0.000000 0.000000 -100.000000
vn -0.000000 0.000000 -100.000000
vn -0.000000 0.000000 -100.000000
vn -0.000000 0.000000 -100.000000
vn -0.000000 0.000000 -100.000000
vn -0.000000 0.000000 -100.000000
vn -0.000000 0.000000 -100.000000
vn -0.000000 0.000000 -100.000000
vn -0.000000 0.000000 -100.000000
vn -0.000000 0.000000 -100.000000
vn -0.000000 0.000000 -100.000000
vn -0.000000 0.000000 -100.000000
vn -0.000000 0.000000 -100.000000
vn -0.000000 0.000000 -100.000000
vn -0.000000 0.000000 -100.000000
vn -0.000000 0.000000 -100.000000
vn -0.000000 0.000000 -100.000000
vn -0.000000 0.000000 -100.000000
vn -0.000000 0.000000 -100.000000
vn -0.000000 0.000000 -100.000000
vn -0.000000 0.000000 -100.000000
vn -0.000000 0.000000 -100.000000
vn -0.000000 0.000000 -100.000000
vn -0.000000 0.000000 -100.000000
vn -0.000000 0.000000 -100.000000
vn -0.000000 0.000000 -100.000000
vn -0.000000 0.000000 -100.000000
vn -0.000000 0.000000 -100.000000
vn -0.000000 0.000000 -100.000000
vn -0.000000 0.000000 -100.000000
vn -0.000000 0.000000 -100.000000
vn -0.000000 0.000000 -100.000000
vn -0.000000 0.000000 -100.000000
vn -0.000000 0.000000 -100.000000
vn -0.000000 0.000000 -100.000000
vn -0.000000 0.000000 -100.000000
vn -0.000000 0.000000 -100.000000
vn -0.000000 0.000000 -100.000000
vn -0.000000 0.000000 -100.000000
vn -0.000000 0.000000 -100.000000
vn -0.000000 0.000000 -100.000000
vn -0.000000 0.000000 -100.000000
vn -0.000000 0.000000 -100.000000
vn -0.000000 0.000000 -100.000000
vn -0.000000 0.000000 -100.000000
vn -0.000000 0.000000 -100.000000
vn -0.000000 0.000000 -100.000000
vn -0.000000 0.000000 -100.000000
vn -0.000000 0.000000 -100.000000
vn -0.000000 0.000000 -100.000000
vn -0.000000 0.000000 -100.000000
vn -0.000000 0.000000 -100.000000
vn -0.000000 0.000000 -100.000000
vn -0.000000 0.000000 -100.000000
vn -0.000000 0.000000 -100.000000
vn -0.000000 0.000000 -100.000000
vn -0.000000 0.000000 -100.000000
vn -0.000000 0.000000 -100.000000
vn -0.000000 0.000000 -100.000000
vn -0.000000 0.000000 -100.000000
vn -0.000000 0.000000 -100.000000
vn -0.000000 0.000000 -100.000000
vn -0.000000 0.000000 -100.000000
vn -0.000000 0.000000 -100.000000
vn -0.000000 0.000000 -100.000000
vn -0.000000 0.000000 -100.000000
vn -0.000000 0.000000 -100.000000
vn -0.000000 0.000000 -100.000000
vn -0.000000 0.000000 -100.000000
vn -0.000000 0.000000 -100.000000
vn -0.000000 0.000000 -100.000000
vn -0.000000 0.000000 -100.000000
vn -0.000000 0.000000 -100.000000
vn -0.000000 0.000000 -100.000000
vn -0.000000 0.000000 -100.000000
vn -0.000000 0.000000 -100.000000
vn -0.000000 0.000000 -100.000000
vn -0.000000 0.000000 -100.000000
vn -0.000000 0.000000 -100.000000
vn -0.000000 0.000000 -100.000000
vn -0.000000 0.000000 -100.000000
vn -0.000000 0.000000 -100.000000
vn -0.000000 0.000000 -100.000000
vn -0.000000 0.000000 -100.000000
vn -0.000000 0.000000 -100.000000
vn -0.000000 0.000000 -100.000000
vn -0.000000 0.000000 -100.000000
vn -0.000000 0.000000 -100.000000
vn -0.000000 0.000000 -100.000000
vn -0.000000 0.000000 -100.000000
vn -0.000000 0.000000 -100.000000
vn -0.000000 0.000000 -100.000000
vn -0.000000 0.000000 -100.000000
vn -0.000000 0.000000 -100.000000
vn -0.000000 0.000000 -100.000000
vn -0.000000 0.000000 -100.000000
usemtl ABS_(White)
f 2/1/1 48/2/2 1/3/3
f 1/3/3 48/2/2 25/4/4
f 1/5/3 25/6/4 24/7/5
f 24/7/5 25/6/4 26/8/6
f 24/7/5 26/8/6 23/9/7
f 23/9/7 26/8/6 27/10/8
f 23/9/7 27/10/8 22/11/9
f 22/11/9 27/10/8 28/12/10
f 22/11/9 28/12/10 21/13/11
f 21/13/11 28/12/10 29/14/12
f 21/13/11 29/14/12 20/15/13
f 20/15/13 29/14/12 30/16/14
f 20/15/13 30/16/14 19/17/15
f 19/17/15 30/16/14 31/18/16
f 19/17/15 31/18/16 18/19/17
f 18/19/17 31/18/16 32/20/18
f 18/19/17 32/20/18 17/21/19
f 17/21/19 32/20/18 33/22/20
f 17/21/19 33/22/20 16/23/21
f 16/23/21 33/22/20 34/24/22
f 16/23/21 34/24/22 15/25/23
f 15/25/23 34/24/22 35/26/24
f 15/25/23 35/26/24 14/27/25
f 14/27/25 35/26/24 36/28/26
f 14/27/25 36/28/26 13/29/27
f 13/29/27 36/28/26 37/30/28
f 13/29/27 37/30/28 12/31/29
f 12/31/29 37/30/28 38/32/30
f 12/31/29 38/32/30 11/33/31
f 11/33/31 38/32/30 39/34/32
f 11/33/31 39/34/32 10/35/33
f 10/35/33 39/34/32 40/36/34
f 10/35/33 40/36/34 9/37/35
f 9/37/35 40/36/34 41/38/36
f 9/37/35 41/38/36 8/39/37
f 8/39/37 41/38/36 42/40/38
f 8/39/37 42/40/38 7/41/39
f 7/41/39 42/40/38 43/42/40
f 7/41/39 43/42/40 6/43/41
f 6/43/41 43/42/40 44/44/42
f 6/43/41 44/44/42 5/45/43
f 5/45/43 44/44/42 45/46/44
f 5/45/43 45/46/44 4/47/45
f 4/47/45 45/46/44 46/48/46
f 4/47/45 46/48/46 3/49/47
f 3/49/47 46/48/46 47/50/48
f 3/49/47 47/50/48 2/1/1
f 2/1/1 47/50/48 48/2/2
f 50/51/49 196/52/50 49/53/51
f 49/53/51 196/52/50 123/54/52
f 49/55/51 123/56/52 122/57/53
f 122/57/53 123/56/52 124/58/54
f 122/57/53 124/58/54 121/59/55
f 121/59/55 124/58/54 125/60/56
f 121/59/55 125/60/56 120/61/57
f 120/61/57 125/60/56 126/62/58
f 120/61/57 126/62/58 119/63/59
f 119/63/59 126/62/58 127/64/60
f 119/63/59 127/64/60 118/65/61
f 118/65/61 127/64/60 128/66/62
f 118/65/61 128/66/62 117/67/63
f 117/67/63 128/66/62 129/68/64
f 117/67/63 129/68/64 116/69/65
f 116/69/65 129/68/64 130/70/66
f 116/69/65 130/70/66 115/71/67
f 115/71/67 130/70/66 131/72/68
f 115/71/67 131/72/68 114/73/69
f 114/73/69 131/72/68 132/74/70
f 114/73/69 132/74/70 113/75/71
f 113/75/71 132/74/70 133/76/72
f 113/75/71 133/76/72 112/77/73
f 112/77/73 133/76/72 134/78/74
f 112/77/73 134/78/74 111/79/75
f 111/79/75 134/78/74 135/80/76
f 111/79/75 135/80/76 110/81/77
f 110/81/77 135/80/76 136/82/78
f 110/81/77 136/82/78 109/83/79
f 109/83/79 136/82/78 137/84/80
f 109/83/79 137/84/80 108/85/81
f 108/85/81 137/84/80 138/86/82
f 108/85/81 138/86/82 107/87/83
f 107/87/83 138/86/82 139/88/84
f 107/87/83 139/88/84 106/89/85
f 106/89/85 139/88/84 140/90/86
f 106/89/85 140/90/86 105/91/87
f 105/91/87 140/90/86 141/92/88
f 105/91/87 141/92/88 104/93/89
f 104/93/89 141/92/88 142/94/90
f 104/93/89 142/94/90 103/95/91
f 103/95/91 142/94/90 143/96/92
f 103/95/91 143/96/92 102/97/93
f 102/97/93 143/96/92 144/98/94
f 102/97/93 144/98/94 101/99/95
f 101/99/95 144/98/94 145/100/96
f 101/99/95 145/100/96 100/101/97
f 100/101/97 145/100/96 146/102/98
f 100/101/97 146/102/98 99/103/99
f 99/103/99 146/102/98 147/104/100
f 99/103/99 147/104/100 98/105/101
f 98/105/101 147/104/100 148/106/102
f 98/105/101 148/106/102 97/107/103
f 97/107/103 148/106/102 149/108/104
f 97/107/103 149/108/104 96/109/105
f 96/109/105 149/108/104 150/110/106
f 96/109/105 150/110/106 95/111/107
f 95/111/107 150/110/106 151/112/108
f 95/111/107 151/112/108 94/113/109
f 94/113/109 151/112/108 152/114/110
f 94/113/109 152/114/110 93/115/111
f 93/115/111 152/114/110 153/116/112
f 93/115/111 153/116/112 92/117/113
f 92/117/113 153/116/112 154/118/114
f 92/117/113 154/118/114 91/119/115
f 91/119/115 154/118/114 155/120/116
f 91/119/115 155/120/116 90/121/117
f 90/121/117 155/120/116 156/122/118
f 90/121/117 156/122/118 89/123/119
f 89/123/119 156/122/118 157/124/120
f 89/123/119 157/124/120 88/125/121
f 88/125/121 157/124/120 158/126/122
f 88/125/121 158/126/122 87/127/123
f 87/127/123 158/126/122 159/128/124
f 87/127/123 159/128/124 86/129/125
f 86/129/125 159/128/124 160/130/126
f 86/129/125 160/130/126 85/131/127
f 85/131/127 160/130/126 161/132/128
f 85/131/127 161/132/128 84/133/129
f 84/133/129 161/132/128 162/134/130
f 84/133/129 162/134/130 83/135/131
f 83/135/131 162/134/130 163/136/132
f 83/135/131 163/136/132 82/137/133
f 82/137/133 163/136/132 164/138/134
f 82/137/133 164/138/134 81/139/135
f 81/139/135 164/138/134 165/140/136
f 81/139/135 165/140/136 80/141/137
f 80/141/137 165/140/136 166/142/138
f 80/141/137 166/142/138 79/143/139
f 79/143/139 166/142/138 167/144/140
f 79/143/139 167/144/140 78/145/141
f 78/145/141 167/144/140 168/146/142
f 78/145/141 168/146/142 77/147/143
f 77/147/143 168/146/142 169/148/144
f 77/147/143 169/148/144 76/149/145
f 76/149/145 169/148/144 170/150/146
f 76/149/145 170/150/146 75/151/147
f 75/151/147 170/150/146 171/152/148
f 75/151/147 171/152/148 74/153/149
f 74/153/149 171/152/148 172/154/150
f 74/153/149 172/154/150 73/155/151
f 73/155/151 172/154/150 173/156/152
f 73/155/151 173/156/152 72/157/153
f 72/157/153 173/156/152 174/158/154
f 72/157/153 174/158/154 71/159/155
f 71/159/155 174/158/154 175/160/156
f 71/159/155 175/160/156 70/161/157
f 70/161/157 175/160/156 176/162/158
f 70/161/157 176/162/158 69/163/159
f 69/163/159 176/162/158 177/164/160
f 69/163/159 177/164/160 68/165/161
f 68/165/161 177/164/160 178/166/162
f 68/165/161 178/166/162 67/167/163
f 67/167/163 178/166/162 179/168/164
f 67/167/163 179/168/164 66/169/165
f 66/169/165 179/168/164 180/170/166
f 66/169/165 180/170/166 65/171/167
f 65/171/167 180/170/166 181/172/168
f 65/171/167 181/172/168 64/173/169
f 64/173/169 181/172/168 182/174/170
f 64/173/169 182/174/170 63/175/171
f 63/175/171 182/174/170 183/176/172
f 63/175/171 183/176/172 62/177/173
f 62/177/173 183/176/172 184/178/174
f 62/177/173 184/178/174 61/179/175
f 61/179/175 184/178/174 185/180/176
f 61/179/175 185/180/176 60/181/177
f 60/181/177 185/180/176 186/182/178
f 60/181/177 186/182/178 59/183/179
f 59/183/179 186/182/178 187/184/180
f 59/183/179 187/184/180 58/185/181
f 58/185/181 187/184/180 188/186/182
f 58/185/181 188/186/182 57/187/183
f 57/187/183 188/186/182 189/188/184
f 57/187/183 189/188/184 56/189/185
f 56/189/185 189/188/184 190/190/186
f 56/189/185 190/190/186 55/191/187
f 55/191/187 190/190/186 191/192/188
f 55/191/187 191/192/188 54/193/189
f 54/193/189 191/192/188 192/194/190
f 54/193/189 192/194/190 53/195/191
f 53/195/191 192/194/190 193/196/192
f 53/195/191 193/196/192 52/197/193
f 52/197/193 193/196/192 194/198/194
f 52/197/193 194/198/194 51/199/195
f 51/199/195 194/198/194 195/200/196
f 51/199/195 195/200/196 50/51/49
f 50/51/49 195/200/196 196/52/50
f 197/201/197 198/202/198 200/203/199
f 200/203/199 198/202/198 199/204/200
f 201/205/201 197/206/202 202/207/203
f 202/207/203 197/206/202 200/208/204
f 203/209/205 201/210/206 204/211/207
f 204/211/207 201/210/206 202/212/208
f 260/213/209 205/214/210 259/215/211
f 259/215/211 205/214/210 206/216/212
f 259/215/211 206/216/212 258/217/213
f 258/217/213 206/216/212 207/218/214
f 258/217/213 207/218/214 257/219/215
f 257/219/215 207/218/214 208/220/216
f 257/219/215 208/220/216 256/221/217
f 256/221/217 208/220/216 209/222/218
f 256/221/217 209/222/218 255/223/219
f 255/223/219 209/222/218 210/224/220
f 255/223/219 210/224/220 254/225/221
f 254/225/221 210/224/220 211/226/222
f 254/225/221 211/226/222 253/227/223
f 253/227/223 211/226/222 212/228/224
f 253/227/223 212/228/224 252/229/225
f 252/229/225 212/228/224 213/230/226
f 252/229/225 213/230/226 251/231/227
f 251/231/227 213/230/226 214/232/228
f 251/231/227 214/232/228 250/233/229
f 250/233/229 214/232/228 215/234/230
f 250/233/229 215/234/230 249/235/231
f 249/235/231 215/234/230 216/236/232
f 249/235/231 216/236/232 248/237/233
f 248/237/233 216/236/232 217/238/234
f 248/237/233 217/238/234 247/239/235
f 247/239/235 217/238/234 218/240/236
f 247/239/235 218/240/236 246/241/237
f 246/241/237 218/240/236 219/242/238
f 246/241/237 219/242/238 245/243/239
f 245/243/239 219/242/238 220/244/240
f 245/243/239 220/244/240 244/245/241
f 244/245/241 220/244/240 221/246/242
f 244/245/241 221/246/242 243/247/243
f 243/247/243 221/246/242 222/248/244
f 243/247/243 222/248/244 242/249/245
f 242/249/245 222/248/244 223/250/246
f 242/249/245 223/250/246 241/251/247
f 241/251/247 223/250/246 224/252/248
f 241/251/247 224/252/248 240/253/249
f 240/253/249 224/252/248 225/254/250
f 240/253/249 225/254/250 239/255/251
f 239/255/251 225/254/250 226/256/252
f 239/255/251 226/256/252 238/257/253
f 238/257/253 226/256/252 227/258/254
f 238/257/253 227/258/254 237/259/255
f 237/259/255 227/258/254 228/260/256
f 237/259/255 228/260/256 236/261/257
f 236/261/257 228/260/256 229/262/258
f 236/261/257 229/262/258 235/263/259
f 235/263/259 229/262/258 230/264/260
f 235/263/259 230/264/260 234/265/261
f 234/265/261 230/264/260 231/266/262
f 234/265/261 231/266/262 233/267/263
f 233/267/263 231/266/262 232/268/264
f 233/267/263 232/268/264 204/269/265
f 204/269/265 232/268/264 203/270/266
f 198/271/267 205/272/268 199/273/269
f 199/273/269 205/272/268 260/274/270
f 50/275/271 49/276/272 260/277/273
f 260/277/273 49/276/272 122/278/274
f 260/277/273 122/278/274 121/279/275
f 260/277/273 121/279/275 199/280/276
f 199/280/276 121/279/275 120/281/277
f 199/280/276 120/281/277 119/282/278
f 119/282/278 118/283/279 199/280/276
f 199/280/276 118/283/279 117/284/280
f 199/280/276 117/284/280 116/285/281
f 116/285/281 115/286/282 199/280/276
f 199/280/276 115/286/282 114/287/283
f 199/280/276 114/287/283 113/288/284
f 113/288/284 112/289/285 199/280/276
f 199/280/276 112/289/285 111/290/286
f 199/280/276 111/290/286 110/291/287
f 110/291/287 109/292/288 199/280/276
f 199/280/276 109/292/288 108/293/289
f 199/280/276 108/293/289 107/294/290
f 107/294/290 106/295/291 199/280/276
f 199/280/276 106/295/291 105/296/292
f 199/280/276 105/296/292 104/297/293
f 199/280/276 104/297/293 200/298/294
f 200/298/294 104/297/293 103/299/295
f 200/298/294 103/299/295 102/300/296
f 102/300/296 101/301/297 200/298/294
f 200/298/294 101/301/297 100/302/298
f 200/298/294 100/302/298 99/303/299
f 99/303/299 98/304/300 200/298/294
f 200/298/294 98/304/300 97/305/301
f 200/298/294 97/305/301 96/306/302
f 96/306/302 95/307/303 200/298/294
f 200/298/294 95/307/303 94/308/304
f 200/298/294 94/308/304 93/309/305
f 93/309/305 92/310/306 200/298/294
f 200/298/294 92/310/306 91/311/307
f 200/298/294 91/311/307 90/312/308
f 90/312/308 89/313/309 200/298/294
f 200/298/294 89/313/309 88/314/310
f 200/298/294 88/314/310 87/315/311
f 87/315/311 86/316/312 200/298/294
f 200/298/294 86/316/312 202/317/313
f 202/317/313 86/316/312 85/318/314
f 202/317/313 85/318/314 84/319/315
f 84/319/315 83/320/316 202/317/313
f 202/317/313 83/320/316 82/321/317
f 202/317/313 82/321/317 81/322/318
f 81/322/318 80/323/319 202/317/313
f 202/317/313 80/323/319 79/324/320
f 202/317/313 79/324/320 78/325/321
f 78/325/321 77/326/322 202/317/313
f 202/317/313 77/326/322 76/327/323
f 202/317/313 76/327/323 75/328/324
f 75/328/324 74/329/325 202/317/313
f 202/317/313 74/329/325 73/330/326
f 202/317/313 73/330/326 72/331/327
f 72/331/327 71/332/328 202/317/313
f 202/317/313 71/332/328 70/333/329
f 202/317/313 70/333/329 69/334/330
f 69/334/330 68/335/331 202/317/313
f 202/317/313 68/335/331 204/336/332
f 204/336/332 68/335/331 67/337/333
f 204/336/332 67/337/333 66/338/334
f 66/338/334 65/339/335 204/336/332
f 204/336/332 65/339/335 64/340/336
f 204/336/332 64/340/336 63/341/337
f 63/341/337 62/342/338 204/336/332
f 204/336/332 62/342/338 61/343/339
f 204/336/332 61/343/339 60/344/340
f 60/344/340 59/345/341 204/336/332
f 204/336/332 59/345/341 16/346/342
f 204/336/332 16/346/342 15/347/343
f 59/345/341 58/348/344 16/346/342
f 16/346/342 58/348/344 57/349/345
f 16/346/342 57/349/345 17/350/346
f 17/350/346 57/349/345 56/351/347
f 17/350/346 56/351/347 260/277/273
f 260/277/273 56/351/347 55/352/348
f 260/277/273 55/352/348 54/353/349
f 54/353/349 53/354/350 260/277/273
f 260/277/273 53/354/350 52/355/351
f 260/277/273 52/355/351 51/356/352
f 51/356/352 50/275/271 260/277/273
f 24/357/353 254/358/354 1/359/355
f 1/359/355 254/358/354 253/360/356
f 1/359/355 253/360/356 2/361/357
f 2/361/357 253/360/356 252/362/358
f 2/361/357 252/362/358 3/363/359
f 3/363/359 252/362/358 251/364/360
f 3/363/359 251/364/360 4/365/361
f 4/365/361 251/364/360 250/366/362
f 4/365/361 250/366/362 5/367/363
f 5/367/363 250/366/362 249/368/364
f 5/367/363 249/368/364 248/369/365
f 254/358/354 24/357/353 255/370/366
f 255/370/366 24/357/353 23/371/367
f 255/370/366 23/371/367 256/372/368
f 256/372/368 23/371/367 22/373/369
f 256/372/368 22/373/369 257/374/370
f 257/374/370 22/373/369 21/375/371
f 257/374/370 21/375/371 258/376/372
f 258/376/372 21/375/371 259/377/373
f 259/377/373 21/375/371 20/378/374
f 259/377/373 20/378/374 260/277/273
f 260/277/273 20/378/374 19/379/375
f 260/277/273 19/379/375 18/380/376
f 18/380/376 17/350/346 260/277/273
f 15/347/343 14/381/377 204/336/332
f 204/336/332 14/381/377 13/382/378
f 204/336/332 13/382/378 12/383/379
f 12/383/379 11/384/380 204/336/332
f 204/336/332 11/384/380 10/385/381
f 204/336/332 10/385/381 9/386/382
f 8/387/383 234/388/384 9/386/382
f 9/386/382 234/388/384 233/389/385
f 9/386/382 233/389/385 204/336/332
f 7/390/386 237/391/387 8/387/383
f 8/387/383 237/391/387 236/392/388
f 8/387/383 236/392/388 235/393/389
f 6/394/390 245/395/391 7/390/386
f 7/390/386 245/395/391 244/396/392
f 7/390/386 244/396/392 243/397/393
f 5/367/363 248/369/365 6/394/390
f 6/394/390 248/369/365 247/398/394
f 6/394/390 247/398/394 246/399/395
f 246/399/395 245/395/391 6/394/390
f 243/397/393 242/400/396 7/390/386
f 7/390/386 242/400/396 241/401/397
f 7/390/386 241/401/397 240/402/398
f 240/402/398 239/403/399 7/390/386
f 7/390/386 239/403/399 238/404/400
f 7/390/386 238/404/400 237/391/387
f 235/393/389 234/388/384 8/387/383
f 124/405/401 123/406/402 205/407/403
f 205/407/403 123/406/402 196/408/404
f 205/407/403 196/408/404 195/409/405
f 195/409/405 194/410/406 205/407/403
f 205/407/403 194/410/406 193/411/407
f 205/407/403 193/411/407 192/412/408
f 192/412/408 191/413/409 205/407/403
f 205/407/403 191/413/409 190/414/410
f 205/407/403 190/414/410 33/415/411
f 33/415/411 190/414/410 189/416/412
f 33/415/411 189/416/412 34/417/413
f 34/417/413 189/416/412 188/418/414
f 34/417/413 188/418/414 187/419/415
f 34/417/413 187/419/415 203/420/416
f 203/420/416 187/419/415 186/421/417
f 203/420/416 186/421/417 185/422/418
f 185/422/418 184/423/419 203/420/416
f 203/420/416 184/423/419 183/424/420
f 203/420/416 183/424/420 182/425/421
f 182/425/421 181/426/422 203/420/416
f 203/420/416 181/426/422 180/427/423
f 203/420/416 180/427/423 179/428/424
f 179/428/424 178/429/425 203/420/416
f 203/420/416 178/429/425 201/430/426
f 201/430/426 178/429/425 177/431/427
f 201/430/426 177/431/427 176/432/428
f 176/432/428 175/433/429 201/430/426
f 201/430/426 175/433/429 174/434/430
f 201/430/426 174/434/430 173/435/431
f 173/435/431 172/436/432 201/430/426
f 201/430/426 172/436/432 171/437/433
f 201/430/426 171/437/433 170/438/434
f 170/438/434 169/439/435 201/430/426
f 201/430/426 169/439/435 168/440/436
f 201/430/426 168/440/436 167/441/437
f 167/441/437 166/442/438 201/430/426
f 201/430/426 166/442/438 165/443/439
f 201/430/426 165/443/439 164/444/440
f 164/444/440 163/445/441 201/430/426
f 201/430/426 163/445/441 162/446/442
f 201/430/426 162/446/442 161/447/443
f 161/447/443 160/448/444 201/430/426
f 201/430/426 160/448/444 197/449/445
f 197/449/445 160/448/444 159/450/446
f 197/449/445 159/450/446 158/451/447
f 158/451/447 157/452/448 197/449/445
f 197/449/445 157/452/448 156/453/449
f 197/449/445 156/453/449 155/454/450
f 155/454/450 154/455/451 197/449/445
f 197/449/445 154/455/451 153/456/452
f 197/449/445 153/456/452 152/457/453
f 152/457/453 151/458/454 197/449/445
f 197/449/445 151/458/454 150/459/455
f 197/449/445 150/459/455 149/460/456
f 149/460/456 148/461/457 197/449/445
f 197/449/445 148/461/457 147/462/458
f 197/449/445 147/462/458 146/463/459
f 146/463/459 145/464/460 197/449/445
f 197/449/445 145/464/460 144/465/461
f 197/449/445 144/465/461 143/466/462
f 143/466/462 142/467/463 197/449/445
f 197/449/445 142/467/463 141/468/464
f 197/449/445 141/468/464 198/469/465
f 198/469/465 141/468/464 140/470/466
f 198/469/465 140/470/466 139/471/467
f 139/471/467 138/472/468 198/469/465
f 198/469/465 138/472/468 137/473/469
f 198/469/465 137/473/469 136/474/470
f 136/474/470 135/475/471 198/469/465
f 198/469/465 135/475/471 134/476/472
f 198/469/465 134/476/472 133/477/473
f 133/477/473 132/478/474 198/469/465
f 198/469/465 132/478/474 131/479/475
f 198/469/465 131/479/475 130/480/476
f 130/480/476 129/481/477 198/469/465
f 198/469/465 129/481/477 128/482/478
f 198/469/465 128/482/478 127/483/479
f 127/483/479 126/484/480 198/469/465
f 198/469/465 126/484/480 125/485/481
f 198/469/465 125/485/481 205/407/403
f 205/407/403 125/485/481 124/405/401
f 48/486/482 212/487/483 25/488/484
f 25/488/484 212/487/483 211/489/485
f 25/488/484 211/489/485 26/490/486
f 26/490/486 211/489/485 210/491/487
f 26/490/486 210/491/487 27/492/488
f 27/492/488 210/491/487 209/493/489
f 27/492/488 209/493/489 28/494/490
f 28/494/490 209/493/489 208/495/491
f 28/494/490 208/495/491 29/496/492
f 29/496/492 208/495/491 207/497/493
f 29/496/492 207/497/493 206/498/494
f 212/487/483 48/486/482 213/499/495
f 213/499/495 48/486/482 47/500/496
f 213/499/495 47/500/496 214/501/497
f 214/501/497 47/500/496 46/502/498
f 214/501/497 46/502/498 215/503/499
f 215/503/499 46/502/498 45/504/500
f 215/503/499 45/504/500 216/505/501
f 216/505/501 45/504/500 217/506/502
f 217/506/502 45/504/500 44/507/503
f 217/506/502 44/507/503 218/508/504
f 218/508/504 44/507/503 219/509/505
f 219/509/505 44/507/503 220/510/506
f 220/510/506 44/507/503 43/511/507
f 220/510/506 43/511/507 221/512/508
f 221/512/508 43/511/507 222/513/509
f 222/513/509 43/511/507 223/514/510
f 223/514/510 43/511/507 224/515/511
f 224/515/511 43/511/507 225/516/512
f 225/516/512 43/511/507 226/517/513
f 226/517/513 43/511/507 227/518/514
f 227/518/514 43/511/507 228/519/515
f 228/519/515 43/511/507 42/520/516
f 228/519/515 42/520/516 229/521/517
f 229/521/517 42/520/516 230/522/518
f 230/522/518 42/520/516 231/523/519
f 231/523/519 42/520/516 41/524/520
f 231/523/519 41/524/520 232/525/521
f 232/525/521 41/524/520 203/420/416
f 203/420/416 41/524/520 40/526/522
f 203/420/416 40/526/522 39/527/523
f 39/527/523 38/528/524 203/420/416
f 203/420/416 38/528/524 37/529/525
f 203/420/416 37/529/525 36/530/526
f 36/530/526 35/531/527 203/420/416
f 203/420/416 35/531/527 34/417/413
f 33/415/411 32/532/528 205/407/403
f 205/407/403 32/532/528 31/533/529
f 205/407/403 31/533/529 30/534/530
f 205/407/403 30/534/530 206/498/494
f 206/498/494 30/534/530 29/496/492
# 260 vertices
# 534 texture params
# 530 normals
# 524 facets

# 1 groups
