# WaveFront *.obj file (generated by Autodesk ATF)

mtllib linkage.mtl

g Body1

v 0.001600 0.000000 -0.002000
v 0.001545 -0.000414 -0.002000
v 0.001386 -0.000800 -0.002000
v 0.001131 -0.001131 -0.002000
v 0.000800 -0.001386 -0.002000
v 0.000414 -0.001545 -0.002000
v -0.000000 -0.001600 -0.002000
v -0.000414 -0.001545 -0.002000
v -0.000800 -0.001386 -0.002000
v -0.001131 -0.001131 -0.002000
v -0.001386 -0.000800 -0.002000
v -0.001545 -0.000414 -0.002000
v -0.001600 0.000000 -0.002000
v -0.001545 0.000414 -0.002000
v -0.001386 0.000800 -0.002000
v -0.001131 0.001131 -0.002000
v -0.000800 0.001386 -0.002000
v -0.000414 0.001545 -0.002000
v -0.000000 0.001600 -0.002000
v 0.000414 0.001545 -0.002000
v 0.000800 0.001386 -0.002000
v 0.001131 0.001131 -0.002000
v 0.001386 0.000800 -0.002000
v 0.001545 0.000414 -0.002000
v 0.001600 0.000000 0.001000
v 0.001545 0.000414 0.001000
v 0.001386 0.000800 0.001000
v 0.001131 0.001131 0.001000
v 0.000800 0.001386 0.001000
v 0.000414 0.001545 0.001000
v -0.000000 0.001600 0.001000
v -0.000414 0.001545 0.001000
v -0.000800 0.001386 0.001000
v -0.001131 0.001131 0.001000
v -0.001386 0.000800 0.001000
v -0.001545 0.000414 0.001000
v -0.001600 0.000000 0.001000
v -0.001545 -0.000414 0.001000
v -0.001386 -0.000800 0.001000
v -0.001131 -0.001131 0.001000
v -0.000800 -0.001386 0.001000
v -0.000414 -0.001545 0.001000
v -0.000000 -0.001600 0.001000
v 0.000414 -0.001545 0.001000
v 0.000800 -0.001386 0.001000
v 0.001131 -0.001131 0.001000
v 0.001386 -0.000800 0.001000
v 0.001545 -0.000414 0.001000
v 0.150450 0.000000 -0.002000
v 0.150395 -0.000414 -0.002000
v 0.150236 -0.000800 -0.002000
v 0.149981 -0.001131 -0.002000
v 0.149650 -0.001386 -0.002000
v 0.149264 -0.001545 -0.002000
v 0.148850 -0.001600 -0.002000
v 0.148436 -0.001545 -0.002000
v 0.148050 -0.001386 -0.002000
v 0.147719 -0.001131 -0.002000
v 0.147464 -0.000800 -0.002000
v 0.147305 -0.000414 -0.002000
v 0.147250 0.000000 -0.002000
v 0.147305 0.000414 -0.002000
v 0.147464 0.000800 -0.002000
v 0.147719 0.001131 -0.002000
v 0.148050 0.001386 -0.002000
v 0.148436 0.001545 -0.002000
v 0.148850 0.001600 -0.002000
v 0.149264 0.001545 -0.002000
v 0.149650 0.001386 -0.002000
v 0.149981 0.001131 -0.002000
v 0.150236 0.000800 -0.002000
v 0.150395 0.000414 -0.002000
v 0.150450 0.000000 0.001000
v 0.150395 0.000414 0.001000
v 0.150236 0.000800 0.001000
v 0.149981 0.001131 0.001000
v 0.149650 0.001386 0.001000
v 0.149264 0.001545 0.001000
v 0.148850 0.001600 0.001000
v 0.148436 0.001545 0.001000
v 0.148050 0.001386 0.001000
v 0.147719 0.001131 0.001000
v 0.147464 0.000800 0.001000
v 0.147305 0.000414 0.001000
v 0.147250 0.000000 0.001000
v 0.147305 -0.000414 0.001000
v 0.147464 -0.000800 0.001000
v 0.147719 -0.001131 0.001000
v 0.148050 -0.001386 0.001000
v 0.148436 -0.001545 0.001000
v 0.148850 -0.001600 0.001000
v 0.149264 -0.001545 0.001000
v 0.149650 -0.001386 0.001000
v 0.149981 -0.001131 0.001000
v 0.150236 -0.000800 0.001000
v 0.150395 -0.000414 0.001000
v 0.141922 0.001000 0.000000
v 0.006928 0.001000 0.000000
v 0.006928 0.001000 0.001000
v 0.141922 0.001000 0.001000
v 0.006928 -0.001000 0.000000
v 0.141922 -0.001000 0.000000
v 0.141922 -0.001000 0.001000
v 0.006928 -0.001000 0.001000
v 0.142167 -0.002082 0.000000
v 0.142579 -0.003111 0.000000
v 0.143149 -0.004062 0.000000
v 0.143863 -0.004912 0.000000
v 0.144701 -0.005638 0.000000
v 0.145644 -0.006222 0.000000
v 0.146667 -0.006651 0.000000
v 0.147744 -0.006912 0.000000
v 0.148850 -0.007000 0.000000
v 0.148850 -0.007000 -0.002000
v 0.150002 -0.006905 -0.002000
v 0.151123 -0.006621 -0.002000
v 0.152182 -0.006156 -0.002000
v 0.153149 -0.005524 -0.002000
v 0.154000 -0.004741 -0.002000
v 0.154710 -0.003829 -0.002000
v 0.155260 -0.002812 -0.002000
v 0.155636 -0.001718 -0.002000
v 0.155826 -0.000578 -0.002000
v 0.155826 0.000578 -0.002000
v 0.155636 0.001718 -0.002000
v 0.155260 0.002812 -0.002000
v 0.154710 0.003829 -0.002000
v 0.154000 0.004741 -0.002000
v 0.153149 0.005524 -0.002000
v 0.152182 0.006156 -0.002000
v 0.151123 0.006621 -0.002000
v 0.150002 0.006905 -0.002000
v 0.148850 0.007000 -0.002000
v 0.148850 0.007000 0.000000
v 0.147744 0.006912 0.000000
v 0.146667 0.006651 0.000000
v 0.145644 0.006222 0.000000
v 0.144701 0.005638 0.000000
v 0.143863 0.004912 0.000000
v 0.143149 0.004062 0.000000
v 0.142579 0.003111 0.000000
v 0.142167 0.002082 0.000000
v 0.142194 0.002167 0.001000
v 0.142661 0.003270 0.001000
v 0.143309 0.004277 0.001000
v 0.144119 0.005159 0.001000
v 0.145068 0.005890 0.001000
v 0.146127 0.006449 0.001000
v 0.147267 0.006819 0.001000
v 0.148452 0.006989 0.001000
v 0.149650 0.006954 0.001000
v 0.150824 0.006716 0.001000
v 0.151940 0.006281 0.001000
v 0.152965 0.005662 0.001000
v 0.153871 0.004878 0.001000
v 0.154629 0.003950 0.001000
v 0.155218 0.002907 0.001000
v 0.155620 0.001779 0.001000
v 0.155824 0.000599 0.001000
v 0.155824 -0.000599 0.001000
v 0.155620 -0.001779 0.001000
v 0.155218 -0.002907 0.001000
v 0.154629 -0.003950 0.001000
v 0.153871 -0.004878 0.001000
v 0.152965 -0.005662 0.001000
v 0.151940 -0.006281 0.001000
v 0.150824 -0.006716 0.001000
v 0.149650 -0.006954 0.001000
v 0.148452 -0.006989 0.001000
v 0.147267 -0.006819 0.001000
v 0.146127 -0.006449 0.001000
v 0.145068 -0.005890 0.001000
v 0.144119 -0.005159 0.001000
v 0.143309 -0.004277 0.001000
v 0.142661 -0.003270 0.001000
v 0.142194 -0.002167 0.001000
v 0.006683 0.002082 0.000000
v 0.006271 0.003111 0.000000
v 0.005701 0.004062 0.000000
v 0.004987 0.004912 0.000000
v 0.004149 0.005638 0.000000
v 0.003206 0.006222 0.000000
v 0.002183 0.006651 0.000000
v 0.001106 0.006912 0.000000
v 0.000000 0.007000 0.000000
v 0.000000 0.007000 -0.002000
v -0.001152 0.006905 -0.002000
v -0.002273 0.006621 -0.002000
v -0.003332 0.006156 -0.002000
v -0.004299 0.005524 -0.002000
v -0.005150 0.004741 -0.002000
v -0.005860 0.003829 -0.002000
v -0.006410 0.002812 -0.002000
v -0.006786 0.001718 -0.002000
v -0.006976 0.000578 -0.002000
v -0.006976 -0.000578 -0.002000
v -0.006786 -0.001718 -0.002000
v -0.006410 -0.002812 -0.002000
v -0.005860 -0.003829 -0.002000
v -0.005150 -0.004741 -0.002000
v -0.004299 -0.005524 -0.002000
v -0.003332 -0.006156 -0.002000
v -0.002273 -0.006621 -0.002000
v -0.001152 -0.006905 -0.002000
v 0.000000 -0.007000 -0.002000
v 0.000000 -0.007000 0.000000
v 0.001106 -0.006912 0.000000
v 0.002183 -0.006651 0.000000
v 0.003206 -0.006222 0.000000
v 0.004149 -0.005638 0.000000
v 0.004987 -0.004912 0.000000
v 0.005701 -0.004062 0.000000
v 0.006271 -0.003111 0.000000
v 0.006683 -0.002082 0.000000
v 0.006656 -0.002167 0.001000
v 0.006189 -0.003270 0.001000
v 0.005541 -0.004277 0.001000
v 0.004731 -0.005159 0.001000
v 0.003782 -0.005890 0.001000
v 0.002723 -0.006449 0.001000
v 0.001583 -0.006819 0.001000
v 0.000398 -0.006989 0.001000
v -0.000800 -0.006954 0.001000
v -0.001974 -0.006716 0.001000
v -0.003090 -0.006281 0.001000
v -0.004115 -0.005662 0.001000
v -0.005021 -0.004878 0.001000
v -0.005779 -0.003950 0.001000
v -0.006368 -0.002907 0.001000
v -0.006770 -0.001779 0.001000
v -0.006974 -0.000599 0.001000
v -0.006974 0.000599 0.001000
v -0.006770 0.001779 0.001000
v -0.006368 0.002907 0.001000
v -0.005779 0.003950 0.001000
v -0.005021 0.004878 0.001000
v -0.004115 0.005662 0.001000
v -0.003090 0.006281 0.001000
v -0.001974 0.006716 0.001000
v -0.000800 0.006954 0.001000
v 0.000398 0.006989 0.001000
v 0.001583 0.006819 0.001000
v 0.002723 0.006449 0.001000
v 0.003782 0.005890 0.001000
v 0.004731 0.005159 0.001000
v 0.005541 0.004277 0.001000
v 0.006189 0.003270 0.001000
v 0.006656 0.002167 0.001000
vt 0.300000 -0.460767 0.000000
vt 0.000000 -0.460767 0.000000
vt 0.300000 -0.502655 0.000000
vt 0.000000 -0.502655 0.000000
vt 0.300000 0.502655 0.000000
vt 0.000000 0.502655 0.000000
vt 0.300000 0.460767 0.000000
vt 0.000000 0.460767 0.000000
vt 0.300000 0.418879 0.000000
vt 0.000000 0.418879 0.000000
vt 0.300000 0.376991 0.000000
vt 0.000000 0.376991 0.000000
vt 0.300000 0.335103 0.000000
vt 0.000000 0.335103 0.000000
vt 0.300000 0.293215 0.000000
vt 0.000000 0.293215 0.000000
vt 0.300000 0.251327 0.000000
vt 0.000000 0.251327 0.000000
vt 0.300000 0.209440 0.000000
vt 0.000000 0.209440 0.000000
vt 0.300000 0.167552 0.000000
vt 0.000000 0.167552 0.000000
vt 0.300000 0.125664 0.000000
vt 0.000000 0.125664 0.000000
vt 0.300000 0.083776 0.000000
vt 0.000000 0.083776 0.000000
vt 0.300000 0.041888 0.000000
vt 0.000000 0.041888 0.000000
vt 0.300000 0.000000 0.000000
vt 0.000000 0.000000 0.000000
vt 0.300000 -0.041888 0.000000
vt -0.000000 -0.041888 0.000000
vt 0.300000 -0.083776 0.000000
vt -0.000000 -0.083776 0.000000
vt 0.300000 -0.125664 0.000000
vt -0.000000 -0.125664 0.000000
vt 0.300000 -0.167552 0.000000
vt -0.000000 -0.167552 0.000000
vt 0.300000 -0.209440 0.000000
vt -0.000000 -0.209440 0.000000
vt 0.300000 -0.251327 0.000000
vt -0.000000 -0.251327 0.000000
vt 0.300000 -0.293215 0.000000
vt 0.000000 -0.293215 0.000000
vt 0.300000 -0.335103 0.000000
vt 0.000000 -0.335103 0.000000
vt 0.300000 -0.376991 0.000000
vt 0.000000 -0.376991 0.000000
vt 0.300000 -0.418879 0.000000
vt 0.000000 -0.418879 0.000000
vt 0.300000 -0.460767 0.000000
vt 0.000000 -0.460767 0.000000
vt 0.300000 -0.502655 0.000000
vt 0.000000 -0.502655 0.000000
vt 0.300000 0.502655 0.000000
vt 0.000000 0.502655 0.000000
vt 0.300000 0.460767 0.000000
vt 0.000000 0.460767 0.000000
vt 0.300000 0.418879 0.000000
vt 0.000000 0.418879 0.000000
vt 0.300000 0.376991 0.000000
vt 0.000000 0.376991 0.000000
vt 0.300000 0.335103 0.000000
vt 0.000000 0.335103 0.000000
vt 0.300000 0.293215 0.000000
vt 0.000000 0.293215 0.000000
vt 0.300000 0.251327 0.000000
vt 0.000000 0.251327 0.000000
vt 0.300000 0.209440 0.000000
vt 0.000000 0.209440 0.000000
vt 0.300000 0.167552 0.000000
vt 0.000000 0.167552 0.000000
vt 0.300000 0.125664 0.000000
vt 0.000000 0.125664 0.000000
vt 0.300000 0.083776 0.000000
vt 0.000000 0.083776 0.000000
vt 0.300000 0.041888 0.000000
vt 0.000000 0.041888 0.000000
vt 0.300000 0.000000 0.000000
vt 0.000000 0.000000 0.000000
vt 0.300000 -0.041888 0.000000
vt 0.000000 -0.041888 0.000000
vt 0.300000 -0.083776 0.000000
vt 0.000000 -0.083776 0.000000
vt 0.300000 -0.125664 0.000000
vt 0.000000 -0.125664 0.000000
vt 0.300000 -0.167552 0.000000
vt 0.000000 -0.167552 0.000000
vt 0.300000 -0.209440 0.000000
vt -0.000000 -0.209440 0.000000
vt 0.300000 -0.251327 0.000000
vt 0.000000 -0.251327 0.000000
vt 0.300000 -0.293215 0.000000
vt 0.000000 -0.293215 0.000000
vt 0.300000 -0.335103 0.000000
vt 0.000000 -0.335103 0.000000
vt 0.300000 -0.376991 0.000000
vt 0.000000 -0.376991 0.000000
vt 0.300000 -0.418879 0.000000
vt 0.000000 -0.418879 0.000000
vt -0.000000 0.000000 0.000000
vt 13.499359 0.000000 0.000000
vt -0.000000 0.100000 0.000000
vt 13.499359 0.100000 0.000000
vt 0.000000 0.000000 0.000000
vt 13.499359 0.000000 0.000000
vt 0.000000 0.100000 0.000000
vt 13.499359 0.100000 0.000000
vt -0.000000 2.098772 0.000000
vt 0.000000 1.987748 0.000000
vt 0.100000 2.098772 0.000000
vt 0.100000 1.978842 0.000000
vt 0.000000 1.876724 0.000000
vt 0.100000 1.858912 0.000000
vt -0.000000 1.765700 0.000000
vt 0.100000 1.738982 0.000000
vt -0.000000 1.654676 0.000000
vt 0.100000 1.619052 0.000000
vt -0.000000 1.543653 0.000000
vt 0.100000 1.499123 0.000000
vt 0.000000 1.432629 0.000000
vt 0.100000 1.379193 0.000000
vt 0.000000 1.321605 0.000000
vt 0.100000 1.259263 0.000000
vt 0.000000 1.210581 0.000000
vt 0.100000 1.139333 0.000000
vt -0.000000 1.099557 0.000000
vt 0.100000 1.019403 0.000000
vt -0.200000 1.099557 0.000000
vt -0.200000 0.983815 0.000000
vt 0.100000 0.899474 0.000000
vt -0.200000 0.868072 0.000000
vt 0.100000 0.779544 0.000000
vt -0.200000 0.752329 0.000000
vt 0.100000 0.659614 0.000000
vt -0.200000 0.636586 0.000000
vt 0.100000 0.539684 0.000000
vt -0.200000 0.520843 0.000000
vt 0.100000 0.419754 0.000000
vt -0.200000 0.405100 0.000000
vt 0.100000 0.299825 0.000000
vt -0.200000 0.289357 0.000000
vt 0.100000 0.179895 0.000000
vt -0.200000 0.173614 0.000000
vt 0.100000 0.059965 0.000000
vt -0.200000 0.057871 0.000000
vt 0.100000 -0.059965 0.000000
vt -0.200000 -0.057871 0.000000
vt -0.200000 -0.173614 0.000000
vt 0.100000 -0.179895 0.000000
vt -0.200000 -0.289357 0.000000
vt 0.100000 -0.299825 0.000000
vt -0.200000 -0.405100 0.000000
vt 0.100000 -0.419754 0.000000
vt -0.200000 -0.520843 0.000000
vt 0.100000 -0.539684 0.000000
vt -0.200000 -0.636586 0.000000
vt 0.100000 -0.659614 0.000000
vt -0.200000 -0.752329 0.000000
vt 0.100000 -0.779544 0.000000
vt -0.200000 -0.868072 0.000000
vt 0.100000 -0.899474 0.000000
vt -0.200000 -0.983815 0.000000
vt 0.100000 -1.019403 0.000000
vt -0.200000 -1.099557 0.000000
vt -0.000000 -1.099557 0.000000
vt 0.100000 -1.139333 0.000000
vt -0.000000 -1.210581 0.000000
vt 0.100000 -1.259263 0.000000
vt -0.000000 -1.321605 0.000000
vt 0.100000 -1.379193 0.000000
vt -0.000000 -1.432629 0.000000
vt 0.100000 -1.499123 0.000000
vt -0.000000 -1.543653 0.000000
vt 0.100000 -1.619052 0.000000
vt -0.000000 -1.654676 0.000000
vt 0.100000 -1.738982 0.000000
vt -0.000000 -1.765700 0.000000
vt 0.100000 -1.858912 0.000000
vt -0.000000 -1.876724 0.000000
vt 0.100000 -1.978842 0.000000
vt -0.000000 -1.987748 0.000000
vt 0.100000 -2.098772 0.000000
vt -0.000000 -2.098772 0.000000
vt -0.000000 -0.100343 0.000000
vt -0.000000 -0.211367 0.000000
vt 0.100000 -0.100343 0.000000
vt 0.100000 -0.220273 0.000000
vt -0.000000 -0.322391 0.000000
vt 0.100000 -0.340203 0.000000
vt -0.000000 -0.433415 0.000000
vt 0.100000 -0.460133 0.000000
vt -0.000000 -0.544438 0.000000
vt 0.100000 -0.580063 0.000000
vt -0.000000 -0.655462 0.000000
vt 0.100000 -0.699992 0.000000
vt -0.000000 -0.766486 0.000000
vt 0.100000 -0.819922 0.000000
vt -0.000000 -0.877510 0.000000
vt 0.100000 -0.939852 0.000000
vt -0.000000 -0.988534 0.000000
vt 0.100000 -1.059782 0.000000
vt -0.000000 -1.099557 0.000000
vt 0.100000 -1.179712 0.000000
vt -0.200000 -1.215300 0.000000
vt 0.100000 -1.299641 0.000000
vt -0.200000 -1.331043 0.000000
vt 0.100000 -1.419571 0.000000
vt -0.200000 -1.446786 0.000000
vt 0.100000 -1.539501 0.000000
vt -0.200000 -1.562529 0.000000
vt 0.100000 -1.659431 0.000000
vt -0.200000 -1.678272 0.000000
vt 0.100000 -1.779361 0.000000
vt -0.200000 -1.794015 0.000000
vt 0.100000 -1.899290 0.000000
vt -0.200000 -1.909758 0.000000
vt 0.100000 -2.019220 0.000000
vt -0.200000 -2.025501 0.000000
vt 0.100000 -2.139150 0.000000
vt -0.200000 -2.141243 0.000000
vt -0.200000 -2.256986 0.000000
vt -0.200000 -1.099557 0.000000
vt 0.100000 -2.259080 0.000000
vt 0.100000 2.139150 0.000000
vt -0.200000 2.141243 0.000000
vt -0.200000 2.025501 0.000000
vt 0.100000 2.019220 0.000000
vt -0.200000 1.909758 0.000000
vt 0.100000 1.899290 0.000000
vt -0.200000 1.794015 0.000000
vt 0.100000 1.779361 0.000000
vt -0.200000 1.678272 0.000000
vt 0.100000 1.659431 0.000000
vt -0.200000 1.562529 0.000000
vt 0.100000 1.539501 0.000000
vt -0.200000 1.446786 0.000000
vt 0.100000 1.419571 0.000000
vt -0.200000 1.331043 0.000000
vt 0.100000 1.299641 0.000000
vt -0.200000 1.215300 0.000000
vt 0.100000 1.179712 0.000000
vt -0.200000 1.099557 0.000000
vt -0.000000 1.099557 0.000000
vt 0.100000 1.059782 0.000000
vt -0.000000 0.988534 0.000000
vt 0.100000 0.939852 0.000000
vt -0.000000 0.877510 0.000000
vt 0.100000 0.819922 0.000000
vt -0.000000 0.766486 0.000000
vt 0.100000 0.699992 0.000000
vt -0.000000 0.655462 0.000000
vt 0.100000 0.580063 0.000000
vt -0.000000 0.544438 0.000000
vt 0.100000 0.460133 0.000000
vt -0.000000 0.433415 0.000000
vt 0.100000 0.340203 0.000000
vt -0.000000 0.322391 0.000000
vt 0.100000 0.220273 0.000000
vt -0.000000 0.211367 0.000000
vt 0.100000 0.100343 0.000000
vt -0.000000 0.100343 0.000000
vt -6.749680 0.100000 0.000000
vt 6.749680 0.100000 0.000000
vt -6.774170 0.208170 0.000000
vt 6.774170 0.208170 0.000000
vt -6.815437 0.311114 0.000000
vt 6.815437 0.311114 0.000000
vt -6.872445 0.406248 0.000000
vt 6.872445 0.406248 0.000000
vt -6.943764 0.491184 0.000000
vt 6.943764 0.491184 0.000000
vt -7.027602 0.563790 0.000000
vt 7.027602 0.563790 0.000000
vt -7.121855 0.622243 0.000000
vt 7.121855 0.622243 0.000000
vt -7.224158 0.665076 0.000000
vt 7.224158 0.665076 0.000000
vt -7.331941 0.691214 0.000000
vt 7.331941 0.691214 0.000000
vt -7.442500 0.700000 0.000000
vt 7.442500 0.700000 0.000000
vt 6.749680 -0.100000 0.000000
vt -6.749680 -0.100000 0.000000
vt 6.774170 -0.208170 0.000000
vt -6.774170 -0.208170 0.000000
vt 6.815437 -0.311114 0.000000
vt -6.815437 -0.311114 0.000000
vt 6.872445 -0.406248 0.000000
vt -6.872445 -0.406248 0.000000
vt 6.943764 -0.491184 0.000000
vt -6.943764 -0.491184 0.000000
vt 7.027602 -0.563790 0.000000
vt -7.027602 -0.563790 0.000000
vt 7.121855 -0.622243 0.000000
vt -7.121855 -0.622243 0.000000
vt 7.224158 -0.665076 0.000000
vt -7.224158 -0.665076 0.000000
vt 7.331941 -0.691214 0.000000
vt -7.331941 -0.691214 0.000000
vt 7.442500 -0.700000 0.000000
vt -7.442500 -0.700000 0.000000
vt -14.730452 -0.041411 0.000000
vt -14.192180 -0.100000 0.000000
vt -14.725000 0.000000 0.000000
vt -14.192180 0.100000 0.000000
vt -14.730452 0.041411 0.000000
vt -14.746436 0.080000 0.000000
vt -14.771863 0.113137 0.000000
vt -14.805000 0.138564 0.000000
vt -14.219372 0.216656 0.000000
vt -14.843589 0.154548 0.000000
vt -14.885000 0.160000 0.000000
vt -15.521765 0.290741 0.000000
vt -15.562011 0.177921 0.000000
vt -14.746436 -0.080000 0.000000
vt -14.771863 -0.113137 0.000000
vt -14.805000 -0.138564 0.000000
vt -14.219372 -0.216656 0.000000
vt -14.843589 -0.154548 0.000000
vt -14.885000 -0.160000 0.000000
vt -14.926411 -0.154548 0.000000
vt -15.562011 -0.177921 0.000000
vt -15.521765 -0.290741 0.000000
vt -14.266056 -0.326968 0.000000
vt -15.462874 -0.395047 0.000000
vt -14.330863 -0.427705 0.000000
vt -15.387061 -0.487786 0.000000
vt -14.411896 -0.515919 0.000000
vt -15.296547 -0.566241 0.000000
vt -14.506782 -0.589026 0.000000
vt -15.193983 -0.628116 0.000000
vt -14.612743 -0.644885 0.000000
vt -15.082370 -0.671599 0.000000
vt -14.726676 -0.681860 0.000000
vt -14.964979 -0.695416 0.000000
vt -14.845246 -0.698870 0.000000
vt -14.965000 -0.138564 0.000000
vt -14.998137 -0.113137 0.000000
vt -15.582433 -0.059892 0.000000
vt -15.023564 -0.080000 0.000000
vt -15.039548 -0.041411 0.000000
vt -15.045000 0.000000 0.000000
vt -15.582433 0.059892 0.000000
vt -15.039548 0.041411 0.000000
vt -15.023564 0.080000 0.000000
vt -14.998137 0.113137 0.000000
vt -14.965000 0.138564 0.000000
vt -14.926411 0.154548 0.000000
vt 0.154548 -0.041411 0.000000
vt 0.697433 -0.059892 0.000000
vt 0.160000 0.000000 0.000000
vt 0.697433 0.059892 0.000000
vt 0.154548 0.041411 0.000000
vt 0.138564 0.080000 0.000000
vt 0.113137 0.113137 0.000000
vt 0.677011 0.177921 0.000000
vt 0.080000 0.138564 0.000000
vt 0.041411 0.154548 0.000000
vt 0.000000 0.160000 0.000000
vt 0.636765 0.290741 0.000000
vt -0.665628 0.216656 0.000000
vt -0.618944 0.326968 0.000000
vt 0.577874 0.395047 0.000000
vt -0.554137 0.427705 0.000000
vt 0.502061 0.487786 0.000000
vt -0.473104 0.515919 0.000000
vt 0.411547 0.566241 0.000000
vt -0.378218 0.589026 0.000000
vt 0.308983 0.628116 0.000000
vt -0.272257 0.644885 0.000000
vt 0.197370 0.671599 0.000000
vt -0.158324 0.681860 0.000000
vt 0.079979 0.695416 0.000000
vt -0.039754 0.698870 0.000000
vt 0.138564 -0.080000 0.000000
vt 0.113137 -0.113137 0.000000
vt 0.677011 -0.177921 0.000000
vt 0.080000 -0.138564 0.000000
vt 0.041411 -0.154548 0.000000
vt 0.000000 -0.160000 0.000000
vt 0.636765 -0.290741 0.000000
vt -0.665628 -0.216656 0.000000
vt -0.618944 -0.326968 0.000000
vt -0.041411 -0.154548 0.000000
vt -0.080000 -0.138564 0.000000
vt -0.692820 -0.100000 0.000000
vt -0.113137 -0.113137 0.000000
vt -0.138564 -0.080000 0.000000
vt -0.154548 -0.041411 0.000000
vt -0.160000 0.000000 0.000000
vt -0.692820 0.100000 0.000000
vt -0.154548 0.041411 0.000000
vt -0.138564 0.080000 0.000000
vt -0.113137 0.113137 0.000000
vt -0.080000 0.138564 0.000000
vt -0.041411 0.154548 0.000000
vt 0.577874 -0.395047 0.000000
vt -0.554137 -0.427705 0.000000
vt 0.502061 -0.487786 0.000000
vt -0.473104 -0.515919 0.000000
vt 0.411547 -0.566241 0.000000
vt -0.378218 -0.589026 0.000000
vt 0.308983 -0.628116 0.000000
vt -0.272257 -0.644885 0.000000
vt 0.197370 -0.671599 0.000000
vt -0.158324 -0.681860 0.000000
vt 0.079979 -0.695416 0.000000
vt -0.039754 -0.698870 0.000000
vt -14.266056 0.326968 0.000000
vt -15.462874 0.395047 0.000000
vt -14.330863 0.427705 0.000000
vt -15.387061 0.487786 0.000000
vt -14.411896 0.515919 0.000000
vt -15.296547 0.566241 0.000000
vt -14.506782 0.589026 0.000000
vt -15.193983 0.628116 0.000000
vt -14.612743 0.644885 0.000000
vt -15.082370 0.671599 0.000000
vt -14.726676 0.681860 0.000000
vt -14.964979 0.695416 0.000000
vt -14.845246 0.698870 0.000000
vt 0.000000 0.000000 0.000000
vt 14.885000 0.000000 0.000000
vt -0.000000 0.200000 0.000000
vt 14.885000 0.200000 0.000000
vt 0.000000 0.000000 0.000000
vt 14.885000 0.000000 0.000000
vt -0.000000 0.200000 0.000000
vt 14.885000 0.200000 0.000000
vt 7.287952 0.041411 0.000000
vt -7.287952 0.041411 0.000000
vt 7.282500 0.000000 0.000000
vt -7.282500 0.000000 0.000000
vt 7.287952 -0.041411 0.000000
vt -7.287952 -0.041411 0.000000
vt 7.303936 -0.080000 0.000000
vt -7.303936 -0.080000 0.000000
vt 7.329363 -0.113137 0.000000
vt -7.329363 -0.113137 0.000000
vt 7.362500 -0.138564 0.000000
vt -7.362500 -0.138564 0.000000
vt 7.401089 -0.154548 0.000000
vt -7.401089 -0.154548 0.000000
vt 7.957507 -0.474097 0.000000
vt -7.957507 -0.474097 0.000000
vt 7.872449 -0.552398 0.000000
vt -7.872449 -0.552398 0.000000
vt 7.442500 -0.700000 0.000000
vt -7.442500 -0.700000 0.000000
vt -7.775663 -0.615632 0.000000
vt -7.669790 -0.662072 0.000000
vt -7.303936 0.080000 0.000000
vt 7.303936 0.080000 0.000000
vt -7.329363 0.113137 0.000000
vt 7.329363 0.113137 0.000000
vt -7.362500 0.138564 0.000000
vt 7.362500 0.138564 0.000000
vt -7.401089 0.154548 0.000000
vt 7.401089 0.154548 0.000000
vt -7.957507 0.474097 0.000000
vt 7.957507 0.474097 0.000000
vt -7.872449 0.552398 0.000000
vt 7.872449 0.552398 0.000000
vt -7.442500 0.700000 0.000000
vt 7.442500 0.700000 0.000000
vt 7.775663 0.615632 0.000000
vt 7.669790 0.662072 0.000000
vt 8.028517 0.382864 0.000000
vt 7.442500 0.160000 0.000000
vt 8.083541 0.281187 0.000000
vt 8.121080 0.171840 0.000000
vt 7.483911 0.154548 0.000000
vt 7.522500 0.138564 0.000000
vt 7.555637 0.113137 0.000000
vt 8.140109 0.057806 0.000000
vt 7.581064 0.080000 0.000000
vt 7.597048 0.041411 0.000000
vt 7.602500 0.000000 0.000000
vt 8.140109 -0.057806 0.000000
vt 7.597048 -0.041411 0.000000
vt 7.581064 -0.080000 0.000000
vt 7.555637 -0.113137 0.000000
vt 8.121080 -0.171840 0.000000
vt 7.522500 -0.138564 0.000000
vt 7.483911 -0.154548 0.000000
vt 7.442500 -0.160000 0.000000
vt 8.083541 -0.281187 0.000000
vt 8.028517 -0.382864 0.000000
vt -7.597048 0.041411 0.000000
vt -8.140109 0.057806 0.000000
vt -7.602500 0.000000 0.000000
vt -8.140109 -0.057806 0.000000
vt -7.597048 -0.041411 0.000000
vt -7.581064 -0.080000 0.000000
vt -7.555637 -0.113137 0.000000
vt -8.121080 -0.171840 0.000000
vt -7.522500 -0.138564 0.000000
vt -7.483911 -0.154548 0.000000
vt -7.442500 -0.160000 0.000000
vt -8.083541 -0.281187 0.000000
vt -8.028517 -0.382864 0.000000
vt -7.581064 0.080000 0.000000
vt -7.555637 0.113137 0.000000
vt -8.121080 0.171840 0.000000
vt -7.522500 0.138564 0.000000
vt -7.483911 0.154548 0.000000
vt -7.442500 0.160000 0.000000
vt -8.083541 0.281187 0.000000
vt -8.028517 0.382864 0.000000
vt -7.557716 0.690453 0.000000
vt -7.669790 0.662072 0.000000
vt -7.775663 0.615632 0.000000
vt -7.557716 -0.690453 0.000000
vt 7.557716 -0.690453 0.000000
vt 7.669790 -0.662072 0.000000
vt 7.775663 -0.615632 0.000000
vt 7.557716 0.690453 0.000000
vn -96.592583 25.881905 0.000000
vn -96.592583 25.881905 0.000000
vn -100.000000 0.000000 0.000000
vn -100.000000 0.000000 0.000000
vn -96.592583 -25.881905 0.000000
vn -96.592583 -25.881905 0.000000
vn -86.602540 -50.000000 0.000000
vn -86.602540 -50.000000 0.000000
vn -70.710678 -70.710678 0.000000
vn -70.710678 -70.710678 0.000000
vn -50.000000 -86.602540 0.000000
vn -50.000000 -86.602540 0.000000
vn -25.881905 -96.592583 0.000000
vn -25.881905 -96.592583 0.000000
vn 0.000000 -100.000000 0.000000
vn 0.000000 -100.000000 0.000000
vn 25.881905 -96.592583 0.000000
vn 25.881905 -96.592583 0.000000
vn 50.000000 -86.602540 0.000000
vn 50.000000 -86.602540 0.000000
vn 70.710678 -70.710678 0.000000
vn 70.710678 -70.710678 0.000000
vn 86.602540 -50.000000 0.000000
vn 86.602540 -50.000000 0.000000
vn 96.592583 -25.881905 0.000000
vn 96.592583 -25.881905 0.000000
vn 100.000000 -0.000000 0.000000
vn 100.000000 -0.000000 0.000000
vn 96.592583 25.881905 0.000000
vn 96.592583 25.881905 0.000000
vn 86.602540 50.000000 0.000000
vn 86.602540 50.000000 0.000000
vn 70.710678 70.710678 0.000000
vn 70.710678 70.710678 0.000000
vn 50.000000 86.602540 0.000000
vn 50.000000 86.602540 0.000000
vn 25.881905 96.592583 0.000000
vn 25.881905 96.592583 0.000000
vn 0.000000 100.000000 0.000000
vn 0.000000 100.000000 0.000000
vn -25.881905 96.592583 0.000000
vn -25.881905 96.592583 0.000000
vn -50.000000 86.602540 0.000000
vn -50.000000 86.602540 0.000000
vn -70.710678 70.710678 0.000000
vn -70.710678 70.710678 0.000000
vn -86.602540 50.000000 0.000000
vn -86.602540 50.000000 0.000000
vn -96.592583 25.881905 0.000000
vn -96.592583 25.881905 0.000000
vn -100.000000 0.000000 0.000000
vn -100.000000 0.000000 0.000000
vn -96.592583 -25.881905 0.000000
vn -96.592583 -25.881905 0.000000
vn -86.602540 -50.000000 0.000000
vn -86.602540 -50.000000 0.000000
vn -70.710678 -70.710678 0.000000
vn -70.710678 -70.710678 0.000000
vn -50.000000 -86.602540 0.000000
vn -50.000000 -86.602540 0.000000
vn -25.881905 -96.592583 0.000000
vn -25.881905 -96.592583 0.000000
vn 0.000000 -100.000000 0.000000
vn 0.000000 -100.000000 0.000000
vn 25.881905 -96.592583 0.000000
vn 25.881905 -96.592583 0.000000
vn 50.000000 -86.602540 0.000000
vn 50.000000 -86.602540 0.000000
vn 70.710678 -70.710678 0.000000
vn 70.710678 -70.710678 0.000000
vn 86.602540 -50.000000 0.000000
vn 86.602540 -50.000000 0.000000
vn 96.592583 -25.881905 0.000000
vn 96.592583 -25.881905 0.000000
vn 100.000000 -0.000000 0.000000
vn 100.000000 -0.000000 0.000000
vn 96.592583 25.881905 0.000000
vn 96.592583 25.881905 0.000000
vn 86.602540 50.000000 0.000000
vn 86.602540 50.000000 0.000000
vn 70.710678 70.710678 0.000000
vn 70.710678 70.710678 0.000000
vn 50.000000 86.602540 0.000000
vn 50.000000 86.602540 0.000000
vn 25.881905 96.592583 0.000000
vn 25.881905 96.592583 0.000000
vn 0.000000 100.000000 0.000000
vn 0.000000 100.000000 0.000000
vn -25.881905 96.592583 0.000000
vn -25.881905 96.592583 0.000000
vn -50.000000 86.602540 0.000000
vn -50.000000 86.602540 0.000000
vn -70.710678 70.710678 0.000000
vn -70.710678 70.710678 0.000000
vn -86.602540 50.000000 0.000000
vn -86.602540 50.000000 0.000000
vn 0.000000 100.000000 0.000000
vn 0.000000 100.000000 0.000000
vn 0.000000 100.000000 0.000000
vn 0.000000 100.000000 0.000000
vn 0.000000 -100.000000 0.000000
vn 0.000000 -100.000000 0.000000
vn 0.000000 -100.000000 0.000000
vn 0.000000 -100.000000 0.000000
vn -98.974332 -14.285714 0.000000
vn -95.475752 -29.738540 0.000000
vn -98.974332 -14.285714 0.000000
vn -95.089675 -30.950827 0.000000
vn -89.580445 -44.444840 0.000000
vn -88.420636 -46.709647 0.000000
vn -81.436402 -58.035441 0.000000
vn -79.162494 -61.100732 0.000000
vn -71.248062 -70.169179 0.000000
vn -67.586344 -73.702687 0.000000
vn -59.271182 -80.541461 0.000000
vn -54.031154 -84.146505 0.000000
vn -45.806418 -88.891912 0.000000
vn -38.893843 -92.126375 0.000000
vn -31.191777 -95.010910 0.000000
vn -22.617656 -97.408632 0.000000
vn -15.794128 -98.744851 0.000000
vn -5.679186 -99.838604 0.000000
vn 0.000000 -100.000000 0.000000
vn 11.425580 -99.345136 0.000000
vn 0.000000 -100.000000 0.000000
vn 16.459459 -98.636130 0.000000
vn 28.195785 -95.942679 0.000000
vn 32.469947 -94.581724 0.000000
vn 44.140372 -89.730862 0.000000
vn 47.594739 -87.947375 0.000000
vn 58.792456 -80.891577 0.000000
vn 61.421271 -78.914051 0.000000
vn 71.722999 -69.683653 0.000000
vn 73.572391 -67.728157 0.000000
vn 82.553374 -56.435276 0.000000
vn 83.716648 -54.694816 0.000000
vn 90.966451 -41.534381 0.000000
vn 91.577333 -40.169542 0.000000
vn 96.715879 -25.417291 0.000000
vn 96.940027 -24.548549 0.000000
vn 99.633307 -8.555941 0.000000
vn 99.658449 -8.257935 0.000000
vn 99.633307 8.555941 0.000000
vn 99.658449 8.257935 0.000000
vn 96.940027 24.548549 0.000000
vn 96.715879 25.417291 0.000000
vn 91.577333 40.169542 0.000000
vn 90.966451 41.534381 0.000000
vn 83.716648 54.694816 0.000000
vn 82.553374 56.435276 0.000000
vn 73.572391 67.728157 0.000000
vn 71.722999 69.683653 0.000000
vn 61.421271 78.914051 0.000000
vn 58.792456 80.891577 0.000000
vn 47.594739 87.947375 0.000000
vn 44.140372 89.730862 0.000000
vn 32.469947 94.581724 0.000000
vn 28.195785 95.942679 0.000000
vn 16.459459 98.636130 0.000000
vn 11.425580 99.345136 0.000000
vn 0.000000 100.000000 0.000000
vn 0.000000 100.000000 0.000000
vn -5.679186 99.838604 -0.000000
vn -15.794128 98.744851 -0.000000
vn -22.617656 97.408632 -0.000000
vn -31.191777 95.010910 -0.000000
vn -38.893843 92.126375 -0.000000
vn -45.806418 88.891912 -0.000000
vn -54.031154 84.146505 -0.000000
vn -59.271182 80.541461 -0.000000
vn -67.586344 73.702687 -0.000000
vn -71.248062 70.169179 -0.000000
vn -79.162494 61.100732 -0.000000
vn -81.436402 58.035441 -0.000000
vn -88.420636 46.709647 -0.000000
vn -89.580445 44.444840 -0.000000
vn -95.089675 30.950827 -0.000000
vn -95.475752 29.738540 -0.000000
vn -98.974332 14.285714 -0.000000
vn -98.974332 14.285714 -0.000000
vn 98.974332 14.285714 0.000000
vn 95.475752 29.738540 0.000000
vn 98.974332 14.285714 0.000000
vn 95.089675 30.950827 0.000000
vn 89.580445 44.444840 0.000000
vn 88.420636 46.709647 0.000000
vn 81.436402 58.035441 0.000000
vn 79.162494 61.100732 0.000000
vn 71.248062 70.169179 0.000000
vn 67.586344 73.702687 0.000000
vn 59.271182 80.541461 0.000000
vn 54.031154 84.146505 0.000000
vn 45.806418 88.891912 0.000000
vn 38.893843 92.126375 0.000000
vn 31.191777 95.010910 0.000000
vn 22.617656 97.408632 0.000000
vn 15.794128 98.744851 0.000000
vn 5.679186 99.838604 0.000000
vn 0.000000 100.000000 0.000000
vn -11.425580 99.345136 -0.000000
vn -16.459459 98.636130 -0.000000
vn -28.195785 95.942679 -0.000000
vn -32.469947 94.581724 -0.000000
vn -44.140372 89.730862 -0.000000
vn -47.594739 87.947375 -0.000000
vn -58.792456 80.891577 -0.000000
vn -61.421271 78.914051 -0.000000
vn -71.722999 69.683653 -0.000000
vn -73.572391 67.728157 -0.000000
vn -82.553374 56.435276 -0.000000
vn -83.716648 54.694816 -0.000000
vn -90.966451 41.534381 -0.000000
vn -91.577333 40.169542 -0.000000
vn -96.715879 25.417291 -0.000000
vn -96.940027 24.548549 -0.000000
vn -99.633307 8.555941 -0.000000
vn -99.658449 8.257935 -0.000000
vn -99.658449 -8.257935 0.000000
vn 0.000000 100.000000 0.000000
vn -99.633307 -8.555941 0.000000
vn -96.940027 -24.548549 0.000000
vn -96.715879 -25.417291 0.000000
vn -91.577333 -40.169542 0.000000
vn -90.966451 -41.534381 0.000000
vn -83.716648 -54.694816 0.000000
vn -82.553374 -56.435276 0.000000
vn -73.572391 -67.728157 0.000000
vn -71.722999 -69.683653 0.000000
vn -61.421271 -78.914051 0.000000
vn -58.792456 -80.891577 0.000000
vn -47.594739 -87.947375 0.000000
vn -44.140372 -89.730862 0.000000
vn -32.469947 -94.581724 0.000000
vn -28.195785 -95.942679 0.000000
vn -16.459459 -98.636130 0.000000
vn -11.425580 -99.345136 0.000000
vn 0.000000 -100.000000 0.000000
vn 0.000000 -100.000000 0.000000
vn 5.679186 -99.838604 0.000000
vn 15.794128 -98.744851 0.000000
vn 22.617656 -97.408632 0.000000
vn 31.191777 -95.010910 0.000000
vn 38.893843 -92.126375 0.000000
vn 45.806418 -88.891912 0.000000
vn 54.031154 -84.146505 0.000000
vn 59.271182 -80.541461 0.000000
vn 67.586344 -73.702687 0.000000
vn 71.248062 -70.169179 0.000000
vn 79.162494 -61.100732 0.000000
vn 81.436402 -58.035441 0.000000
vn 88.420636 -46.709647 0.000000
vn 89.580445 -44.444840 0.000000
vn 95.089675 -30.950827 0.000000
vn 95.475752 -29.738540 0.000000
vn 98.974332 -14.285714 0.000000
vn 98.974332 -14.285714 0.000000
vn 0.000000 0.000000 100.000000
vn 0.000000 0.000000 100.000000
vn 0.000000 0.000000 100.000000
vn 0.000000 0.000000 100.000000
vn 0.000000 0.000000 100.000000
vn 0.000000 0.000000 100.000000
vn 0.000000 0.000000 100.000000
vn 0.000000 0.000000 100.000000
vn 0.000000 0.000000 100.000000
vn 0.000000 0.000000 100.000000
vn 0.000000 0.000000 100.000000
vn 0.000000 0.000000 100.000000
vn 0.000000 0.000000 100.000000
vn 0.000000 0.000000 100.000000
vn 0.000000 0.000000 100.000000
vn 0.000000 0.000000 100.000000
vn 0.000000 0.000000 100.000000
vn 0.000000 0.000000 100.000000
vn 0.000000 0.000000 100.000000
vn 0.000000 0.000000 100.000000
vn 0.000000 0.000000 100.000000
vn 0.000000 0.000000 100.000000
vn 0.000000 0.000000 100.000000
vn 0.000000 0.000000 100.000000
vn 0.000000 0.000000 100.000000
vn 0.000000 0.000000 100.000000
vn 0.000000 0.000000 100.000000
vn 0.000000 0.000000 100.000000
vn 0.000000 0.000000 100.000000
vn 0.000000 0.000000 100.000000
vn 0.000000 0.000000 100.000000
vn 0.000000 0.000000 100.000000
vn 0.000000 0.000000 100.000000
vn 0.000000 0.000000 100.000000
vn 0.000000 0.000000 100.000000
vn 0.000000 0.000000 100.000000
vn 0.000000 0.000000 100.000000
vn 0.000000 0.000000 100.000000
vn 0.000000 0.000000 100.000000
vn 0.000000 0.000000 100.000000
vn 0.000000 0.000000 100.000000
vn 0.000000 0.000000 100.000000
vn 0.000000 0.000000 100.000000
vn 0.000000 0.000000 100.000000
vn 0.000000 0.000000 100.000000
vn 0.000000 0.000000 100.000000
vn 0.000000 0.000000 100.000000
vn 0.000000 0.000000 100.000000
vn 0.000000 0.000000 100.000000
vn 0.000000 0.000000 100.000000
vn 0.000000 0.000000 100.000000
vn 0.000000 0.000000 100.000000
vn 0.000000 0.000000 100.000000
vn 0.000000 0.000000 100.000000
vn 0.000000 0.000000 100.000000
vn 0.000000 0.000000 100.000000
vn 0.000000 0.000000 100.000000
vn 0.000000 0.000000 100.000000
vn 0.000000 0.000000 100.000000
vn 0.000000 0.000000 100.000000
vn 0.000000 0.000000 100.000000
vn 0.000000 0.000000 100.000000
vn 0.000000 0.000000 100.000000
vn 0.000000 0.000000 100.000000
vn 0.000000 0.000000 100.000000
vn 0.000000 0.000000 100.000000
vn 0.000000 0.000000 100.000000
vn 0.000000 0.000000 100.000000
vn 0.000000 0.000000 100.000000
vn 0.000000 0.000000 100.000000
vn 0.000000 0.000000 100.000000
vn 0.000000 0.000000 100.000000
vn 0.000000 0.000000 100.000000
vn 0.000000 0.000000 100.000000
vn 0.000000 0.000000 100.000000
vn 0.000000 0.000000 100.000000
vn 0.000000 0.000000 100.000000
vn 0.000000 0.000000 100.000000
vn 0.000000 0.000000 100.000000
vn 0.000000 0.000000 100.000000
vn 0.000000 0.000000 100.000000
vn 0.000000 0.000000 100.000000
vn 0.000000 0.000000 100.000000
vn 0.000000 0.000000 100.000000
vn 0.000000 0.000000 100.000000
vn 0.000000 0.000000 100.000000
vn 0.000000 0.000000 100.000000
vn 0.000000 0.000000 100.000000
vn 0.000000 0.000000 100.000000
vn 0.000000 0.000000 100.000000
vn 0.000000 0.000000 100.000000
vn 0.000000 0.000000 100.000000
vn 0.000000 0.000000 100.000000
vn 0.000000 0.000000 100.000000
vn 0.000000 0.000000 100.000000
vn 0.000000 0.000000 100.000000
vn 0.000000 0.000000 100.000000
vn 0.000000 0.000000 100.000000
vn 0.000000 0.000000 100.000000
vn 0.000000 0.000000 100.000000
vn 0.000000 0.000000 100.000000
vn 0.000000 0.000000 100.000000
vn 0.000000 0.000000 100.000000
vn 0.000000 0.000000 100.000000
vn 0.000000 0.000000 100.000000
vn 0.000000 0.000000 100.000000
vn 0.000000 0.000000 100.000000
vn 0.000000 0.000000 100.000000
vn 0.000000 0.000000 100.000000
vn 0.000000 0.000000 100.000000
vn 0.000000 0.000000 100.000000
vn 0.000000 0.000000 100.000000
vn 0.000000 0.000000 100.000000
vn 0.000000 0.000000 100.000000
vn 0.000000 0.000000 100.000000
vn 0.000000 0.000000 100.000000
vn 0.000000 0.000000 100.000000
vn 0.000000 0.000000 100.000000
vn 0.000000 0.000000 100.000000
vn 0.000000 0.000000 100.000000
vn 0.000000 0.000000 100.000000
vn 0.000000 0.000000 100.000000
vn 0.000000 0.000000 100.000000
vn 0.000000 0.000000 100.000000
vn 0.000000 0.000000 100.000000
vn 0.000000 0.000000 100.000000
vn 0.000000 0.000000 100.000000
vn 0.000000 0.000000 100.000000
vn 0.000000 0.000000 100.000000
vn 0.000000 0.000000 100.000000
vn 0.000000 0.000000 100.000000
vn 0.000000 0.000000 100.000000
vn 0.000000 0.000000 100.000000
vn 0.000000 0.000000 100.000000
vn 0.000000 0.000000 100.000000
vn 0.000000 0.000000 100.000000
vn 0.000000 0.000000 100.000000
vn 0.000000 0.000000 100.000000
vn 0.000000 0.000000 100.000000
vn 0.000000 0.000000 100.000000
vn 0.000000 0.000000 100.000000
vn 0.000000 0.000000 100.000000
vn 0.000000 0.000000 100.000000
vn 0.000000 0.000000 100.000000
vn 0.000000 0.000000 100.000000
vn 0.000000 0.000000 100.000000
vn 0.000000 0.000000 100.000000
vn 0.000000 0.000000 100.000000
vn 0.000000 0.000000 100.000000
vn 0.000000 0.000000 100.000000
vn 0.000000 0.000000 100.000000
vn 0.000000 0.000000 100.000000
vn 0.000000 0.000000 100.000000
vn 0.000000 0.000000 100.000000
vn 0.000000 0.000000 100.000000
vn 0.000000 0.000000 100.000000
vn 0.000000 0.000000 100.000000
vn 0.000000 0.000000 100.000000
vn 0.000000 0.000000 100.000000
vn 0.000000 0.000000 100.000000
vn 0.000000 0.000000 -100.000000
vn 0.000000 0.000000 -100.000000
vn 0.000000 0.000000 -100.000000
vn 0.000000 0.000000 -100.000000
vn 0.000000 0.000000 -100.000000
vn 0.000000 0.000000 -100.000000
vn 0.000000 0.000000 -100.000000
vn 0.000000 0.000000 -100.000000
vn 0.000000 0.000000 -100.000000
vn 0.000000 0.000000 -100.000000
vn 0.000000 0.000000 -100.000000
vn 0.000000 0.000000 -100.000000
vn 0.000000 0.000000 -100.000000
vn 0.000000 0.000000 -100.000000
vn 0.000000 0.000000 -100.000000
vn 0.000000 0.000000 -100.000000
vn 0.000000 0.000000 -100.000000
vn 0.000000 0.000000 -100.000000
vn 0.000000 0.000000 -100.000000
vn 0.000000 0.000000 -100.000000
vn 0.000000 0.000000 -100.000000
vn 0.000000 0.000000 -100.000000
vn 0.000000 0.000000 -100.000000
vn 0.000000 0.000000 -100.000000
vn 0.000000 0.000000 -100.000000
vn 0.000000 0.000000 -100.000000
vn 0.000000 0.000000 -100.000000
vn 0.000000 0.000000 -100.000000
vn 0.000000 0.000000 -100.000000
vn 0.000000 0.000000 -100.000000
vn 0.000000 0.000000 -100.000000
vn 0.000000 0.000000 -100.000000
vn 0.000000 0.000000 -100.000000
vn 0.000000 0.000000 -100.000000
vn 0.000000 0.000000 -100.000000
vn 0.000000 0.000000 -100.000000
vn 0.000000 0.000000 -100.000000
vn 0.000000 0.000000 -100.000000
vn 0.000000 0.000000 -100.000000
vn 0.000000 0.000000 -100.000000
vn 0.000000 0.000000 -100.000000
vn 0.000000 0.000000 -100.000000
vn 0.000000 0.000000 -100.000000
vn 0.000000 0.000000 -100.000000
vn 0.000000 0.000000 -100.000000
vn 0.000000 0.000000 -100.000000
vn 0.000000 0.000000 -100.000000
vn 0.000000 0.000000 -100.000000
vn 0.000000 0.000000 -100.000000
vn 0.000000 0.000000 -100.000000
vn 0.000000 0.000000 -100.000000
vn 0.000000 0.000000 -100.000000
vn 0.000000 0.000000 -100.000000
vn 0.000000 0.000000 -100.000000
vn 0.000000 0.000000 -100.000000
vn 0.000000 0.000000 -100.000000
vn 0.000000 0.000000 -100.000000
vn 0.000000 0.000000 -100.000000
vn 0.000000 0.000000 -100.000000
vn 0.000000 0.000000 -100.000000
vn 0.000000 0.000000 -100.000000
vn 0.000000 0.000000 -100.000000
vn 0.000000 0.000000 -100.000000
vn 0.000000 0.000000 -100.000000
vn 0.000000 0.000000 -100.000000
vn 0.000000 0.000000 -100.000000
vn 0.000000 0.000000 -100.000000
vn 0.000000 0.000000 -100.000000
vn 0.000000 0.000000 -100.000000
vn 0.000000 0.000000 -100.000000
vn 0.000000 0.000000 -100.000000
vn 0.000000 0.000000 -100.000000
vn 0.000000 0.000000 -100.000000
vn 0.000000 0.000000 -100.000000
vn 0.000000 0.000000 -100.000000
vn 0.000000 0.000000 -100.000000
vn 0.000000 0.000000 -100.000000
vn 0.000000 0.000000 -100.000000
vn 0.000000 0.000000 -100.000000
vn 0.000000 0.000000 -100.000000
vn 0.000000 0.000000 -100.000000
vn 0.000000 0.000000 -100.000000
vn 0.000000 0.000000 -100.000000
vn 0.000000 0.000000 -100.000000
vn 0.000000 0.000000 -100.000000
vn 0.000000 0.000000 -100.000000
vn 0.000000 0.000000 -100.000000
vn 0.000000 0.000000 -100.000000
usemtl Steel_-_Satin
f 2/1/1 48/2/2 1/3/3
f 1/3/3 48/2/2 25/4/4
f 1/5/3 25/6/4 24/7/5
f 24/7/5 25/6/4 26/8/6
f 24/7/5 26/8/6 23/9/7
f 23/9/7 26/8/6 27/10/8
f 23/9/7 27/10/8 22/11/9
f 22/11/9 27/10/8 28/12/10
f 22/11/9 28/12/10 21/13/11
f 21/13/11 28/12/10 29/14/12
f 21/13/11 29/14/12 20/15/13
f 20/15/13 29/14/12 30/16/14
f 20/15/13 30/16/14 19/17/15
f 19/17/15 30/16/14 31/18/16
f 19/17/15 31/18/16 18/19/17
f 18/19/17 31/18/16 32/20/18
f 18/19/17 32/20/18 17/21/19
f 17/21/19 32/20/18 33/22/20
f 17/21/19 33/22/20 16/23/21
f 16/23/21 33/22/20 34/24/22
f 16/23/21 34/24/22 15/25/23
f 15/25/23 34/24/22 35/26/24
f 15/25/23 35/26/24 14/27/25
f 14/27/25 35/26/24 36/28/26
f 14/27/25 36/28/26 13/29/27
f 13/29/27 36/28/26 37/30/28
f 13/29/27 37/30/28 12/31/29
f 12/31/29 37/30/28 38/32/30
f 12/31/29 38/32/30 11/33/31
f 11/33/31 38/32/30 39/34/32
f 11/33/31 39/34/32 10/35/33
f 10/35/33 39/34/32 40/36/34
f 10/35/33 40/36/34 9/37/35
f 9/37/35 40/36/34 41/38/36
f 9/37/35 41/38/36 8/39/37
f 8/39/37 41/38/36 42/40/38
f 8/39/37 42/40/38 7/41/39
f 7/41/39 42/40/38 43/42/40
f 7/41/39 43/42/40 6/43/41
f 6/43/41 43/42/40 44/44/42
f 6/43/41 44/44/42 5/45/43
f 5/45/43 44/44/42 45/46/44
f 5/45/43 45/46/44 4/47/45
f 4/47/45 45/46/44 46/48/46
f 4/47/45 46/48/46 3/49/47
f 3/49/47 46/48/46 47/50/48
f 3/49/47 47/50/48 2/1/1
f 2/1/1 47/50/48 48/2/2
f 50/51/49 96/52/50 49/53/51
f 49/53/51 96/52/50 73/54/52
f 49/55/51 73/56/52 72/57/53
f 72/57/53 73/56/52 74/58/54
f 72/57/53 74/58/54 71/59/55
f 71/59/55 74/58/54 75/60/56
f 71/59/55 75/60/56 70/61/57
f 70/61/57 75/60/56 76/62/58
f 70/61/57 76/62/58 69/63/59
f 69/63/59 76/62/58 77/64/60
f 69/63/59 77/64/60 68/65/61
f 68/65/61 77/64/60 78/66/62
f 68/65/61 78/66/62 67/67/63
f 67/67/63 78/66/62 79/68/64
f 67/67/63 79/68/64 66/69/65
f 66/69/65 79/68/64 80/70/66
f 66/69/65 80/70/66 65/71/67
f 65/71/67 80/70/66 81/72/68
f 65/71/67 81/72/68 64/73/69
f 64/73/69 81/72/68 82/74/70
f 64/73/69 82/74/70 63/75/71
f 63/75/71 82/74/70 83/76/72
f 63/75/71 83/76/72 62/77/73
f 62/77/73 83/76/72 84/78/74
f 62/77/73 84/78/74 61/79/75
f 61/79/75 84/78/74 85/80/76
f 61/79/75 85/80/76 60/81/77
f 60/81/77 85/80/76 86/82/78
f 60/81/77 86/82/78 59/83/79
f 59/83/79 86/82/78 87/84/80
f 59/83/79 87/84/80 58/85/81
f 58/85/81 87/84/80 88/86/82
f 58/85/81 88/86/82 57/87/83
f 57/87/83 88/86/82 89/88/84
f 57/87/83 89/88/84 56/89/85
f 56/89/85 89/88/84 90/90/86
f 56/89/85 90/90/86 55/91/87
f 55/91/87 90/90/86 91/92/88
f 55/91/87 91/92/88 54/93/89
f 54/93/89 91/92/88 92/94/90
f 54/93/89 92/94/90 53/95/91
f 53/95/91 92/94/90 93/96/92
f 53/95/91 93/96/92 52/97/93
f 52/97/93 93/96/92 94/98/94
f 52/97/93 94/98/94 51/99/95
f 51/99/95 94/98/94 95/100/96
f 51/99/95 95/100/96 50/51/49
f 50/51/49 95/100/96 96/52/50
f 97/101/97 98/102/98 100/103/99
f 100/103/99 98/102/98 99/104/100
f 101/105/101 102/106/102 104/107/103
f 104/107/103 102/106/102 103/108/104
f 102/109/105 105/110/106 103/111/107
f 103/111/107 105/110/106 176/112/108
f 176/112/108 105/110/106 106/113/109
f 176/112/108 106/113/109 175/114/110
f 175/114/110 106/113/109 107/115/111
f 175/114/110 107/115/111 174/116/112
f 174/116/112 107/115/111 108/117/113
f 174/116/112 108/117/113 173/118/114
f 173/118/114 108/117/113 109/119/115
f 173/118/114 109/119/115 172/120/116
f 172/120/116 109/119/115 110/121/117
f 172/120/116 110/121/117 171/122/118
f 171/122/118 110/121/117 111/123/119
f 171/122/118 111/123/119 170/124/120
f 170/124/120 111/123/119 112/125/121
f 170/124/120 112/125/121 169/126/122
f 169/126/122 112/125/121 113/127/123
f 169/126/122 113/127/123 168/128/124
f 168/128/124 113/127/123 114/129/125
f 168/128/124 114/129/125 115/130/126
f 168/128/124 115/130/126 167/131/127
f 167/131/127 115/130/126 116/132/128
f 167/131/127 116/132/128 166/133/129
f 166/133/129 116/132/128 117/134/130
f 166/133/129 117/134/130 165/135/131
f 165/135/131 117/134/130 118/136/132
f 165/135/131 118/136/132 164/137/133
f 164/137/133 118/136/132 119/138/134
f 164/137/133 119/138/134 163/139/135
f 163/139/135 119/138/134 120/140/136
f 163/139/135 120/140/136 162/141/137
f 162/141/137 120/140/136 121/142/138
f 162/141/137 121/142/138 161/143/139
f 161/143/139 121/142/138 122/144/140
f 161/143/139 122/144/140 160/145/141
f 160/145/141 122/144/140 123/146/142
f 160/145/141 123/146/142 159/147/143
f 159/147/143 123/146/142 124/148/144
f 159/147/143 124/148/144 125/149/145
f 159/147/143 125/149/145 158/150/146
f 158/150/146 125/149/145 126/151/147
f 158/150/146 126/151/147 157/152/148
f 157/152/148 126/151/147 127/153/149
f 157/152/148 127/153/149 156/154/150
f 156/154/150 127/153/149 128/155/151
f 156/154/150 128/155/151 155/156/152
f 155/156/152 128/155/151 129/157/153
f 155/156/152 129/157/153 154/158/154
f 154/158/154 129/157/153 130/159/155
f 154/158/154 130/159/155 153/160/156
f 153/160/156 130/159/155 131/161/157
f 153/160/156 131/161/157 152/162/158
f 152/162/158 131/161/157 132/163/159
f 152/162/158 132/163/159 151/164/160
f 151/164/160 132/163/159 133/165/161
f 151/164/160 133/165/161 134/166/162
f 151/164/160 134/166/162 150/167/163
f 150/167/163 134/166/162 135/168/164
f 150/167/163 135/168/164 149/169/165
f 149/169/165 135/168/164 136/170/166
f 149/169/165 136/170/166 148/171/167
f 148/171/167 136/170/166 137/172/168
f 148/171/167 137/172/168 147/173/169
f 147/173/169 137/172/168 138/174/170
f 147/173/169 138/174/170 146/175/171
f 146/175/171 138/174/170 139/176/172
f 146/175/171 139/176/172 145/177/173
f 145/177/173 139/176/172 140/178/174
f 145/177/173 140/178/174 144/179/175
f 144/179/175 140/178/174 141/180/176
f 144/179/175 141/180/176 143/181/177
f 143/181/177 141/180/176 142/182/178
f 143/181/177 142/182/178 100/183/179
f 100/183/179 142/182/178 97/184/180
f 98/185/181 177/186/182 99/187/183
f 99/187/183 177/186/182 248/188/184
f 248/188/184 177/186/182 178/189/185
f 248/188/184 178/189/185 247/190/186
f 247/190/186 178/189/185 179/191/187
f 247/190/186 179/191/187 246/192/188
f 246/192/188 179/191/187 180/193/189
f 246/192/188 180/193/189 245/194/190
f 245/194/190 180/193/189 181/195/191
f 245/194/190 181/195/191 244/196/192
f 244/196/192 181/195/191 182/197/193
f 244/196/192 182/197/193 243/198/194
f 243/198/194 182/197/193 183/199/195
f 243/198/194 183/199/195 242/200/196
f 242/200/196 183/199/195 184/201/197
f 242/200/196 184/201/197 241/202/198
f 241/202/198 184/201/197 185/203/199
f 241/202/198 185/203/199 240/204/200
f 240/204/200 185/203/199 187/205/201
f 240/204/200 187/205/201 239/206/202
f 239/206/202 187/205/201 188/207/203
f 239/206/202 188/207/203 238/208/204
f 238/208/204 188/207/203 189/209/205
f 238/208/204 189/209/205 237/210/206
f 237/210/206 189/209/205 190/211/207
f 237/210/206 190/211/207 236/212/208
f 236/212/208 190/211/207 191/213/209
f 236/212/208 191/213/209 235/214/210
f 235/214/210 191/213/209 192/215/211
f 235/214/210 192/215/211 234/216/212
f 234/216/212 192/215/211 193/217/213
f 234/216/212 193/217/213 233/218/214
f 233/218/214 193/217/213 194/219/215
f 233/218/214 194/219/215 232/220/216
f 232/220/216 194/219/215 195/221/217
f 232/220/216 195/221/217 196/222/218
f 185/203/199 186/223/219 187/205/201
f 232/220/216 196/222/218 231/224/220
f 231/225/220 196/226/218 197/227/221
f 231/225/220 197/227/221 230/228/222
f 230/228/222 197/227/221 198/229/223
f 230/228/222 198/229/223 229/230/224
f 229/230/224 198/229/223 199/231/225
f 229/230/224 199/231/225 228/232/226
f 228/232/226 199/231/225 200/233/227
f 228/232/226 200/233/227 227/234/228
f 227/234/228 200/233/227 201/235/229
f 227/234/228 201/235/229 226/236/230
f 226/236/230 201/235/229 202/237/231
f 226/236/230 202/237/231 225/238/232
f 225/238/232 202/237/231 203/239/233
f 225/238/232 203/239/233 224/240/234
f 224/240/234 203/239/233 204/241/235
f 224/240/234 204/241/235 223/242/236
f 223/242/236 204/241/235 205/243/237
f 223/242/236 205/243/237 206/244/238
f 223/242/236 206/244/238 222/245/239
f 222/245/239 206/244/238 207/246/240
f 222/245/239 207/246/240 221/247/241
f 221/247/241 207/246/240 208/248/242
f 221/247/241 208/248/242 220/249/243
f 220/249/243 208/248/242 209/250/244
f 220/249/243 209/250/244 219/251/245
f 219/251/245 209/250/244 210/252/246
f 219/251/245 210/252/246 218/253/247
f 218/253/247 210/252/246 211/254/248
f 218/253/247 211/254/248 217/255/249
f 217/255/249 211/254/248 212/256/250
f 217/255/249 212/256/250 216/257/251
f 216/257/251 212/256/250 213/258/252
f 216/257/251 213/258/252 215/259/253
f 215/259/253 213/258/252 214/260/254
f 215/259/253 214/260/254 104/261/255
f 104/261/255 214/260/254 101/262/256
f 98/263/257 97/264/258 177/265/259
f 177/265/259 97/264/258 142/266/260
f 177/265/259 142/266/260 178/267/261
f 178/267/261 142/266/260 141/268/262
f 178/267/261 141/268/262 179/269/263
f 179/269/263 141/268/262 140/270/264
f 179/269/263 140/270/264 180/271/265
f 180/271/265 140/270/264 139/272/266
f 180/271/265 139/272/266 181/273/267
f 181/273/267 139/272/266 138/274/268
f 181/273/267 138/274/268 182/275/269
f 182/275/269 138/274/268 137/276/270
f 182/275/269 137/276/270 183/277/271
f 183/277/271 137/276/270 136/278/272
f 183/277/271 136/278/272 184/279/273
f 184/279/273 136/278/272 135/280/274
f 184/279/273 135/280/274 185/281/275
f 185/281/275 135/280/274 134/282/276
f 102/283/277 101/284/278 105/285/279
f 105/285/279 101/284/278 214/286/280
f 105/285/279 214/286/280 106/287/281
f 106/287/281 214/286/280 213/288/282
f 106/287/281 213/288/282 107/289/283
f 107/289/283 213/288/282 212/290/284
f 107/289/283 212/290/284 108/291/285
f 108/291/285 212/290/284 211/292/286
f 108/291/285 211/292/286 109/293/287
f 109/293/287 211/292/286 210/294/288
f 109/293/287 210/294/288 110/295/289
f 110/295/289 210/294/288 209/296/290
f 110/295/289 209/296/290 111/297/291
f 111/297/291 209/296/290 208/298/292
f 111/297/291 208/298/292 112/299/293
f 112/299/293 208/298/292 207/300/294
f 112/299/293 207/300/294 113/301/295
f 113/301/295 207/300/294 206/302/296
f 48/303/297 104/304/298 25/305/299
f 25/305/299 104/304/298 99/306/300
f 25/305/299 99/306/300 26/307/301
f 26/307/301 99/306/300 27/308/302
f 27/308/302 99/306/300 28/309/303
f 28/309/303 99/306/300 29/310/304
f 29/310/304 99/306/300 248/311/305
f 29/310/304 248/311/305 30/312/306
f 30/312/306 248/311/305 31/313/307
f 31/313/307 248/311/305 234/314/308
f 31/313/307 234/314/308 233/315/309
f 48/303/297 47/316/310 104/304/298
f 104/304/298 47/316/310 46/317/311
f 104/304/298 46/317/311 45/318/312
f 104/304/298 45/318/312 215/319/313
f 215/319/313 45/318/312 44/320/314
f 215/319/313 44/320/314 43/321/315
f 42/322/316 230/323/317 43/321/315
f 43/321/315 230/323/317 229/324/318
f 43/321/315 229/324/318 215/319/313
f 215/319/313 229/324/318 216/325/319
f 216/325/319 229/324/318 228/326/320
f 216/325/319 228/326/320 217/327/321
f 217/327/321 228/326/320 227/328/322
f 217/327/321 227/328/322 218/329/323
f 218/329/323 227/328/322 226/330/324
f 218/329/323 226/330/324 219/331/325
f 219/331/325 226/330/324 225/332/326
f 219/331/325 225/332/326 220/333/327
f 220/333/327 225/332/326 224/334/328
f 220/333/327 224/334/328 221/335/329
f 221/335/329 224/334/328 223/336/330
f 221/335/329 223/336/330 222/337/331
f 42/322/316 41/338/332 230/323/317
f 230/323/317 41/338/332 40/339/333
f 230/323/317 40/339/333 231/340/334
f 231/340/334 40/339/333 39/341/335
f 231/340/334 39/341/335 38/342/336
f 38/342/336 37/343/337 231/340/334
f 231/340/334 37/343/337 232/344/338
f 232/344/338 37/343/337 36/345/339
f 232/344/338 36/345/339 35/346/340
f 35/346/340 34/347/341 232/344/338
f 232/344/338 34/347/341 233/315/309
f 233/315/309 34/347/341 33/348/342
f 233/315/309 33/348/342 32/349/343
f 32/349/343 31/313/307 233/315/309
f 96/350/344 160/351/345 73/352/346
f 73/352/346 160/351/345 159/353/347
f 73/352/346 159/353/347 74/354/348
f 74/354/348 159/353/347 75/355/349
f 75/355/349 159/353/347 76/356/350
f 76/356/350 159/353/347 158/357/351
f 76/356/350 158/357/351 77/358/352
f 77/358/352 158/357/351 78/359/353
f 78/359/353 158/357/351 79/360/354
f 79/360/354 158/357/351 157/361/355
f 79/360/354 157/361/355 143/362/356
f 143/362/356 157/361/355 144/363/357
f 144/363/357 157/361/355 156/364/358
f 144/363/357 156/364/358 145/365/359
f 145/365/359 156/364/358 155/366/360
f 145/365/359 155/366/360 146/367/361
f 146/367/361 155/366/360 154/368/362
f 146/367/361 154/368/362 147/369/363
f 147/369/363 154/368/362 153/370/364
f 147/369/363 153/370/364 148/371/365
f 148/371/365 153/370/364 152/372/366
f 148/371/365 152/372/366 149/373/367
f 149/373/367 152/372/366 151/374/368
f 149/373/367 151/374/368 150/375/369
f 96/350/344 95/376/370 160/351/345
f 160/351/345 95/376/370 94/377/371
f 160/351/345 94/377/371 161/378/372
f 161/378/372 94/377/371 93/379/373
f 161/378/372 93/379/373 92/380/374
f 92/380/374 91/381/375 161/378/372
f 161/378/372 91/381/375 162/382/376
f 162/382/376 91/381/375 176/383/377
f 162/382/376 176/383/377 175/384/378
f 91/381/375 90/385/379 176/383/377
f 176/383/377 90/385/379 89/386/380
f 176/383/377 89/386/380 103/387/381
f 103/387/381 89/386/380 88/388/382
f 103/387/381 88/388/382 87/389/383
f 87/389/383 86/390/384 103/387/381
f 103/387/381 86/390/384 85/391/385
f 103/387/381 85/391/385 100/392/386
f 100/392/386 85/391/385 84/393/387
f 100/392/386 84/393/387 83/394/388
f 83/394/388 82/395/389 100/392/386
f 100/392/386 82/395/389 81/396/390
f 100/392/386 81/396/390 143/362/356
f 143/362/356 81/396/390 80/397/391
f 143/362/356 80/397/391 79/360/354
f 162/382/376 175/384/378 163/398/392
f 163/398/392 175/384/378 174/399/393
f 163/398/392 174/399/393 164/400/394
f 164/400/394 174/399/393 173/401/395
f 164/400/394 173/401/395 165/402/396
f 165/402/396 173/401/395 172/403/397
f 165/402/396 172/403/397 166/404/398
f 166/404/398 172/403/397 171/405/399
f 166/404/398 171/405/399 167/406/400
f 167/406/400 171/405/399 170/407/401
f 167/406/400 170/407/401 168/408/402
f 168/408/402 170/407/401 169/409/403
f 100/392/386 99/306/300 103/387/381
f 103/387/381 99/306/300 104/304/298
f 248/311/305 247/410/404 234/314/308
f 234/314/308 247/410/404 235/411/405
f 235/411/405 247/410/404 246/412/406
f 235/411/405 246/412/406 236/413/407
f 236/413/407 246/412/406 245/414/408
f 236/413/407 245/414/408 237/415/409
f 237/415/409 245/414/408 244/416/410
f 237/415/409 244/416/410 238/417/411
f 238/417/411 244/416/410 243/418/412
f 238/417/411 243/418/412 239/419/413
f 239/419/413 243/418/412 242/420/414
f 239/419/413 242/420/414 240/421/415
f 240/421/415 242/420/414 241/422/416
f 185/423/199 134/424/162 186/425/219
f 186/425/219 134/424/162 133/426/161
f 113/427/123 206/428/238 114/429/125
f 114/429/125 206/428/238 205/430/237
f 24/431/417 62/432/418 1/433/419
f 1/433/419 62/432/418 61/434/420
f 1/433/419 61/434/420 2/435/421
f 2/435/421 61/434/420 60/436/422
f 2/435/421 60/436/422 3/437/423
f 3/437/423 60/436/422 59/438/424
f 3/437/423 59/438/424 4/439/425
f 4/439/425 59/438/424 58/440/426
f 4/439/425 58/440/426 5/441/427
f 5/441/427 58/440/426 57/442/428
f 5/441/427 57/442/428 6/443/429
f 6/443/429 57/442/428 56/444/430
f 6/443/429 56/444/430 200/445/431
f 200/445/431 56/444/430 119/446/432
f 200/445/431 119/446/432 201/447/433
f 201/447/433 119/446/432 118/448/434
f 201/447/433 118/448/434 205/449/435
f 205/449/435 118/448/434 114/450/436
f 114/450/436 118/448/434 117/451/437
f 114/450/436 117/451/437 116/452/438
f 62/432/418 24/431/417 63/453/439
f 63/453/439 24/431/417 23/454/440
f 63/453/439 23/454/440 64/455/441
f 64/455/441 23/454/440 22/456/442
f 64/455/441 22/456/442 65/457/443
f 65/457/443 22/456/442 21/458/444
f 65/457/443 21/458/444 66/459/445
f 66/459/445 21/458/444 20/460/446
f 66/459/445 20/460/446 128/461/447
f 128/461/447 20/460/446 191/462/448
f 128/461/447 191/462/448 129/463/449
f 129/463/449 191/462/448 190/464/450
f 129/463/449 190/464/450 133/465/451
f 133/465/451 190/464/450 186/466/452
f 186/466/452 190/464/450 189/467/453
f 186/466/452 189/467/453 188/468/454
f 191/462/448 20/460/446 192/469/455
f 192/469/455 20/460/446 19/470/456
f 192/469/455 19/470/456 193/471/457
f 193/471/457 19/470/456 194/472/458
f 194/472/458 19/470/456 18/473/459
f 194/472/458 18/473/459 17/474/460
f 17/474/460 16/475/461 194/472/458
f 194/472/458 16/475/461 195/476/462
f 195/476/462 16/475/461 15/477/463
f 195/476/462 15/477/463 14/478/464
f 14/478/464 13/479/465 195/476/462
f 195/476/462 13/479/465 196/480/466
f 196/480/466 13/479/465 12/481/467
f 196/480/466 12/481/467 11/482/468
f 11/482/468 10/483/469 196/480/466
f 196/480/466 10/483/469 197/484/470
f 197/484/470 10/483/469 9/485/471
f 197/484/470 9/485/471 8/486/472
f 8/486/472 7/487/473 197/484/470
f 197/484/470 7/487/473 198/488/474
f 198/488/474 7/487/473 199/489/475
f 199/489/475 7/487/473 6/443/429
f 199/489/475 6/443/429 200/445/431
f 72/490/476 124/491/477 49/492/478
f 49/492/478 124/491/477 123/493/479
f 49/492/478 123/493/479 50/494/480
f 50/494/480 123/493/479 51/495/481
f 51/495/481 123/493/479 52/496/482
f 52/496/482 123/493/479 122/497/483
f 52/496/482 122/497/483 53/498/484
f 53/498/484 122/497/483 54/499/485
f 54/499/485 122/497/483 55/500/486
f 55/500/486 122/497/483 121/501/487
f 55/500/486 121/501/487 120/502/488
f 72/490/476 71/503/489 124/491/477
f 124/491/477 71/503/489 70/504/490
f 124/491/477 70/504/490 125/505/491
f 125/505/491 70/504/490 69/506/492
f 125/505/491 69/506/492 68/507/493
f 68/507/493 67/508/494 125/505/491
f 125/505/491 67/508/494 126/509/495
f 126/509/495 67/508/494 127/510/496
f 127/510/496 67/508/494 66/459/445
f 127/510/496 66/459/445 128/461/447
f 119/446/432 56/444/430 120/502/488
f 120/502/488 56/444/430 55/500/486
f 132/511/497 131/512/498 133/465/451
f 133/465/451 131/512/498 130/513/499
f 133/465/451 130/513/499 129/463/449
f 116/452/438 115/514/500 114/450/436
f 204/515/501 203/516/502 205/449/435
f 205/449/435 203/516/502 202/517/503
f 205/449/435 202/517/503 201/447/433
f 188/468/454 187/518/504 186/466/452
# 248 vertices
# 518 texture params
# 504 normals
# 500 facets

# 1 groups
